<?xml version="1.0" encoding="utf-8"?>
<!-- Generator: Adobe Illustrator 27.5.0, SVG Export Plug-In . SVG Version: 6.00 Build 0)  -->
<svg version="1.1" xmlns="http://www.w3.org/2000/svg" xmlns:xlink="http://www.w3.org/1999/xlink" x="0px" y="0px"
	 viewBox="0 0 2500 2500" style="enable-background:new 0 0 2500 2500;" xml:space="preserve">
<g id="Background">
	<rect style="fill:#FFFFFF;" width="2500" height="2500"/>
</g>
<g id="Illustration">
	<g>
		<path style="fill:#F9EFE4;" d="M2075.023,1136.734c-46.575-304.858-237.534-679.397-614.794-718.593
			c0,0-286.434-34.84-568.794,17.964c-167.581,31.339-314.526,124.629-407.506,258.71
			c-92.981,134.081-124.04,297.574-86.346,453.444c24.482,101.239,41.025,206.018,36.485,310.047
			c-7.902,181.053-3.356,350.053,172.353,458.028c156.887,96.41,354.332,181.44,542.697,196.333
			c128.012,10.121,271.568-6.257,394.948-39.585C2172.831,1903.233,2121.598,1441.592,2075.023,1136.734z"/>
		<g>
			<g>
				<defs>
					<path id="SVGID_1_" d="M992.234,1447.689l158.105-50.284c0,0,3.968-90.57-52.981-135.484
						c-116.193-91.64-27.823-187.01,3.215-232.492c46.807-68.591,58.142-149.448-43.201-150.85
						c-101.343-1.401-54.427-172.691,37.131-272.57c89.596-97.738-32.445-313.404-245.788-119.667
						c-127.408,115.699-53.768,266.375-34.67,351.307c19.098,84.931-101.643,130.861-27.467,218.443
						c63.36,74.811,151.632,115.98,118.386,191.84C871.716,1323.792,887.469,1391.982,992.234,1447.689z"/>
				</defs>
				<use xlink:href="#SVGID_1_"  style="overflow:visible;fill:#FFFFFF;"/>
				<clipPath id="SVGID_00000060747669592258383100000018079942068199265962_">
					<use xlink:href="#SVGID_1_"  style="overflow:visible;"/>
				</clipPath>
				
					<linearGradient id="SVGID_00000083065347247297945300000016901266354089033607_" gradientUnits="userSpaceOnUse" x1="-179.2044" y1="548.4912" x2="-509.4782" y2="1487.165" gradientTransform="matrix(0.953 -0.3031 0.3031 0.953 983.8997 -138.5266)">
					<stop  offset="0" style="stop-color:#799B91"/>
					<stop  offset="1" style="stop-color:#3E6764"/>
				</linearGradient>
				
					<path style="clip-path:url(#SVGID_00000060747669592258383100000018079942068199265962_);fill:url(#SVGID_00000083065347247297945300000016901266354089033607_);" d="
					M992.234,1447.689l158.105-50.284c0,0,3.968-90.57-52.981-135.484c-116.193-91.64-27.823-187.01,3.215-232.492
					c46.807-68.591,54.228-140.339-33.714-157.382c-99.501-19.283-63.914-166.159,27.644-266.038
					c89.596-97.738-32.445-313.404-245.788-119.667c-127.408,115.699-53.768,266.375-34.67,351.307
					c19.098,84.931-101.643,130.861-27.467,218.443c63.36,74.811,151.632,115.98,118.386,191.84
					C871.716,1323.792,887.469,1391.982,992.234,1447.689z"/>
				<g style="clip-path:url(#SVGID_00000060747669592258383100000018079942068199265962_);">
					<path style="fill:#FFFFFF;" d="M1065.329,1440.6l3.092-1.646c-1.02-1.915-102.393-193.998-145.472-414.72
						c-39.689-203.343-36.579-473.311,203.613-604.671l-1.68-3.073c-106.923,58.475-176.563,148.797-206.989,268.458
						c-24.305,95.588-23.756,209.99,1.631,340.027C962.715,1246.197,1064.308,1438.681,1065.329,1440.6z"/>
					<path style="fill:#FFFFFF;" d="M907.338,735.5l3.181-1.467c-48.785-105.874-56.59-275.826-56.664-277.53l-3.499,0.149
						C850.431,458.363,858.267,629.004,907.338,735.5z"/>
					<path style="fill:#FFFFFF;" d="M929.796,656.326c90.094-105.738,205.754-105.535,206.911-105.521l0.045-3.501
						c-1.175-0.017-118.422-0.284-209.622,106.75L929.796,656.326z"/>
					<path style="fill:#FFFFFF;" d="M958.974,1167c-12.729-169.234,189.025-275.897,191.077-276.772l-1.158-3.302
						c-2.096,0.668-206.254,109.6-193.411,280.337L958.974,1167z"/>
					<path style="fill:#FFFFFF;" d="M936.736,1100.647l3.053-1.721c-53.149-94.356-184.862-129.022-186.187-129.361l-0.869,3.392
						C754.044,973.294,884.331,1007.606,936.736,1100.647z"/>
					<path style="fill:#FFFFFF;" d="M1053.134,1408.377c-14.667-62.78,57.356-139.091,58.084-139.855l-2.532-2.418
						c-3.031,3.171-74.063,78.438-58.963,143.07L1053.134,1408.377z"/>
					<path style="fill:#FFFFFF;" d="M1028.516,1363.213l3.111-1.609c-23.405-45.285-112.752-75.608-142.112-85.573
						c-4.149-1.409-7.731-2.624-8.326-2.966l-1.788,3.011c0.833,0.495,3.212,1.31,8.989,3.271
						C917.419,1289.2,1005.76,1319.182,1028.516,1363.213z"/>
				</g>
			</g>
			<g>
				
					<linearGradient id="SVGID_00000116194910222518770940000001371661086864672697_" gradientUnits="userSpaceOnUse" x1="2475.7925" y1="-2998.0232" x2="2891.6304" y2="-1905.3741" gradientTransform="matrix(-0.4276 0.904 0.904 0.4276 4066.0015 -179.2673)">
					<stop  offset="0" style="stop-color:#799B91"/>
					<stop  offset="1" style="stop-color:#3E6764"/>
				</linearGradient>
				<path style="fill:url(#SVGID_00000116194910222518770940000001371661086864672697_);" d="M976.956,1279.098
					c44.667-4.205,74.675,27.3,92.817,53.5c-1.616,3.997-1.526,6.708-2.259,11.087c-6.617,39.521-17.861,54.972-30.533,92.897
					c-2.728,8.163-18.021,29.689-24.834,38.083l-12.952,15.446c0,0-103.218-2.988-108.003-61.558
					c-4.785-58.571-102.456-73.844-153.201-88.313c-31.162-8.885-42.567-22.93-53.493-28.033
					c-115.659-54.015-164.92-32.247-191.74-72.916c-29.607-44.895,21.951-84.274-7.677-134.814
					c-33.456-57.069-121.661-45.173-141.252-106.254c-3.359-10.472-6.525-21.323-5.162-35.93
					c3.365-36.054,32.604-54.815,15.193-88.41c-34.999-67.527-23.167-151.105,51.369-175.357
					c73.563-23.935,160.956,72.127,193.547,240.966c36.867,117.429,58.341,127.183,114.932,140.481
					c39.637,9.315,153.277,8.311,170.11,77.383C900.652,1226.426,925.892,1283.906,976.956,1279.098z"/>
				<g>
					<defs>
						<path id="SVGID_00000176004234499983606670000016893185118228229044_" d="M1090.493,1367.726l-86.794,120.663
							c0,0-107.722-1.266-112.506-59.837s-102.456-73.845-153.201-88.313c-137.686-39.256-62.79-187.515-234.833-252.897
							c-45.758-17.39-139.719-34.292-159.329-89.119c-22.341-62.464,32.423-81.136,10.03-124.34
							c-34.999-67.527-23.166-151.106,51.369-175.357c73.564-23.935,160.956,72.127,193.548,240.965
							c36.867,117.43,58.341,127.183,114.931,140.481c39.638,9.315,153.277,8.312,170.111,77.383
							c16.834,69.071,42.074,126.55,93.137,121.743C1054.654,1271.784,1090.493,1367.726,1090.493,1367.726z"/>
					</defs>
					<clipPath id="SVGID_00000095311750658952899480000016532541412402296492_">
						<use xlink:href="#SVGID_00000176004234499983606670000016893185118228229044_"  style="overflow:visible;"/>
					</clipPath>
					<g style="opacity:0.5;clip-path:url(#SVGID_00000095311750658952899480000016532541412402296492_);">
						<path style="fill:#FCFDFE;" d="M1046.291,1417.862l-1.426,2.578c-14.31-7.739-28.637-15.733-42.583-23.761
							c-103.253-59.447-196.722-127.115-277.81-201.13c-68.708-62.715-129.51-130.852-180.716-202.518
							c-41.18-57.634-76.406-117.853-104.699-178.985c-19.889-42.975-36.174-85.954-48.398-127.743
							c-2.132-7.282-3.908-14.881-5.627-22.23c-2.289-9.791-4.656-19.917-7.882-29.369l2.641-1.124
							c3.271,9.582,5.655,19.775,7.96,29.633c1.709,7.313,3.478,14.874,5.587,22.083c12.186,41.658,28.421,84.508,48.255,127.362
							c28.223,60.981,63.366,121.056,104.451,178.557c51.101,71.519,111.782,139.52,180.358,202.114
							c80.951,73.89,174.271,141.45,277.366,200.804C1017.692,1402.15,1031.998,1410.133,1046.291,1417.862z"/>
						<path style="fill:#FCFDFE;" d="M612.006,1075.475l-2.098,2.052c-79.086-87.274-280.732-113.35-282.759-113.603l0.521-2.868
							C329.707,961.31,532.287,987.503,612.006,1075.475z"/>
						<path style="fill:#FCFDFE;" d="M855.333,1298.032l-1.87,2.273c-60.91-52.313-57.667-215.019-57.628-216.657l2.793-0.127
							C798.589,1085.145,795.374,1246.537,855.333,1298.032z"/>
						<path style="fill:#FCFDFE;" d="M892.588,1324.44l-1.475,2.552c-45.476-25.904-122.596-35.09-217.149-25.863
							c-4.755,0.464-4.755,0.464-5.209,0.214l1.445-2.569l-0.723,1.284l0.222-1.432c0.317,0.006,2.112-0.168,4.194-0.372
							C768.986,1288.975,846.653,1298.273,892.588,1324.44z"/>
						<path style="fill:#FCFDFE;" d="M1020.394,1403.342l-2.091,2.058c-39.085-42.76-24.466-132.76-24.314-133.663l2.751,0.301
							C996.591,1272.93,982.205,1361.561,1020.394,1403.342z"/>
						<path style="fill:#FCFDFE;" d="M1044.8,1422.049c-46.714-5.853-97.515,2.119-155.304,24.374l-0.813-2.699
							c58.234-22.424,109.471-30.451,156.64-24.541L1044.8,1422.049z"/>
						<path style="fill:#FCFDFE;" d="M458.846,848.336l-2.198,1.933c-41.179-51.25-96.619-94.376-114.837-108.547
							c-4.41-3.431-5.958-4.644-6.42-5.168l2.124-2.021c0.358,0.395,2.879,2.356,6.071,4.839
							C361.863,753.588,417.479,796.851,458.846,848.336z"/>
						<path style="fill:#FCFDFE;" d="M513.164,942.783l-2.608,1.216c-22.394-58.695,28.985-180.122,31.183-185.263l2.542,1.012
							C543.748,760.996,491.189,885.184,513.164,942.783z"/>
					</g>
				</g>
			</g>
			<g>
				
					<linearGradient id="SVGID_00000164488010412306781880000007266074799959359673_" gradientUnits="userSpaceOnUse" x1="8351.7178" y1="-2911.071" x2="8866.3926" y2="-2063.7837" gradientTransform="matrix(-0.5201 0.8541 0.8541 0.5201 7380.1528 -5007.9248)">
					<stop  offset="0" style="stop-color:#46736E"/>
					<stop  offset="0.9964" style="stop-color:#2F4F4F"/>
				</linearGradient>
				<path style="fill:url(#SVGID_00000164488010412306781880000007266074799959359673_);" d="M1094.872,1354.271
					c-6.343,7.975,49.884,89.951-22.462,80.417c-18.074-2.382-71.744-25.196-112.894,37.437
					c-7.988,12.158-15.977,24.316-23.965,36.474c-34.407-6.261-65.675-18.537-53.467-62.734
					c18.959-68.636-78.732-128.042-123.391-132.441c-55.273-5.445-183.57-20.823-155.883-127.306
					c23.048-88.647,55.551-142.088-33.664-201.73c-89.216-59.643-114.72-146.474-55.796-231.152
					c62.008-89.111-9.296-234.045,76.036-286.736c148.689-91.808,279.642,147.656,241.035,342.981
					c-38.607,195.324,72.563,135.653,150.828,175.815c7.054,4.14,17.671,11.102,28.642,21.698
					c67.544,65.238,31.395,155.156,59.995,252.541C1108.891,1392.348,1105.559,1340.836,1094.872,1354.271z"/>
				<g>
					<defs>
						<path id="SVGID_00000131368926942726262350000016368885055694303879_" d="M1085.921,1314.09l-124.017,200.692
							c-34.294-4.538-93.456-19.55-79.819-68.918c18.958-68.637-78.732-128.042-123.391-132.441
							c-55.273-5.445-183.57-20.823-155.883-127.306c23.048-88.647,55.551-142.087-33.665-201.729
							c-89.215-59.643-114.719-146.474-55.796-231.153c62.008-89.111-9.297-234.045,76.036-286.735
							c148.689-91.809,279.641,147.655,241.034,342.98c-38.607,195.324,72.562,135.654,150.828,175.816
							c106.849,54.829-4.192,188.264,12.869,250.802C1007.492,1285.124,1054.792,1305.314,1085.921,1314.09z"/>
					</defs>
					<clipPath id="SVGID_00000131347220755038621030000007261359904831767952_">
						<use xlink:href="#SVGID_00000131368926942726262350000016368885055694303879_"  style="overflow:visible;"/>
					</clipPath>
					<g style="opacity:0.5;clip-path:url(#SVGID_00000131347220755038621030000007261359904831767952_);">
						<path style="fill:#FCFDFE;" d="M997.448,1390.554l-3.437,3.788c-259.29-239.621-395.352-612.443-355.089-972.974l4.907,0.286
							C603.736,780.666,739.235,1151.928,997.448,1390.554z"/>
						<path style="fill:#FCFDFE;" d="M867.818,1246.98l-2.668,4.361c-119.395-70.829-278.114-18.802-279.704-18.268l-1.311-4.746
							C585.743,1227.784,746.54,1175.036,867.818,1246.98z"/>
						<path style="fill:#FCFDFE;" d="M951.01,1345.085l-4.322,2.667c-69.614-123.498,56.575-363.189,57.859-365.596l4.316,2.186
							C1007.593,986.722,882.719,1223.936,951.01,1345.085z"/>
						<path style="fill:#FCFDFE;" d="M703.984,938.713l-4.102,3.021c-63.549-92.353-236.036-112.445-237.771-112.638l0.805-4.979
							C464.672,824.311,639.262,844.653,703.984,938.713z"/>
						<path style="fill:#FCFDFE;" d="M648.916,716.47l-4.939,0.184c2.581-131.787,126.967-264.486,128.227-265.811l3.467,3.364
							C774.426,455.514,651.455,586.737,648.916,716.47z"/>
					</g>
				</g>
			</g>
		</g>
		<g>
			
				<linearGradient id="SVGID_00000100347819080338331390000016729741802786648453_" gradientUnits="userSpaceOnUse" x1="498.3054" y1="871.8945" x2="1198.7825" y2="1150.7247">
				<stop  offset="0" style="stop-color:#E4D6CA"/>
				<stop  offset="1" style="stop-color:#D4BDAC"/>
			</linearGradient>
			<path style="fill:url(#SVGID_00000100347819080338331390000016729741802786648453_);" d="M1647.509,715.002
				c0-28.268-18.336-52.297-42.584-58.351c-0.867-0.216-1.829-0.409-2.71-0.579c-2.644-0.51-5.398-0.807-8.158-0.875l-519.16-12.819
				l-530.675-13.104c-1.134-0.028-2.268-0.027-3.389,0.002c-14.417,0.371-27.635,5.401-38.176,13.656
				c-0.193,0.151-0.388,0.301-0.579,0.454c-1.513,1.214-2.973,2.493-4.368,3.837c-0.033,0.031-0.068,0.061-0.1,0.092
				c-0.825,0.798-1.624,1.623-2.406,2.463c-10.537,11.356-16.97,26.564-16.97,43.417v47.022l0,0v737.947
				c0,5.656,0.727,11.103,2.087,16.26c0.816,3.094,1.863,6.082,3.118,8.949c8.35,19.065,25.994,32.716,47.368,35.841
				c4.331,0.633,8.813,0.838,13.403,0.564l804.624-48v0l245.355-14.63c29.422-1.755,53.32-29.363,53.32-61.669V756.963l0,0V715.002z
				"/>
			
				<linearGradient id="SVGID_00000158739005569176236370000007417444588125590149_" gradientUnits="userSpaceOnUse" x1="611.6824" y1="733.4025" x2="530.7625" y2="692.2793">
				<stop  offset="0" style="stop-color:#96888E"/>
				<stop  offset="1" style="stop-color:#706369"/>
			</linearGradient>
			<path style="fill:url(#SVGID_00000158739005569176236370000007417444588125590149_);" d="M563.933,629.76l-19.712-0.487
				c-1.134-0.028-2.268-0.027-3.389,0.002c-14.417,0.371-27.635,5.401-38.175,13.656c-0.193,0.151-0.388,0.301-0.579,0.454
				c-1.514,1.214-2.973,2.492-4.368,3.837c-0.033,0.031-0.068,0.061-0.1,0.092c-0.825,0.798-1.624,1.623-2.405,2.463
				c-10.537,11.356-16.97,26.564-16.97,43.417v51.766l16.728-4.853L563.933,629.76z"/>
			<g>
				<path style="fill:#FFFFFF;" d="M494.962,740.108l0,737.691c0,36.19,29.615,63.76,65.926,61.594l1049.086-62.597
					c29.403-1.755,53.109-29.349,53.109-61.644V737.93L494.962,740.108z"/>
				<path style="fill:#FFFFFF;" d="M560.888,1518.597c-24.651,1.423-44.789-17.384-44.789-41.931V693.497
					c0-24.547,20.138-44.059,44.789-43.497l1049.086,23.894c20.002,0.456,36.215,18.712,36.215,40.698v701.466
					c0,21.986-16.213,40.809-36.215,41.964L560.888,1518.597z"/>
				
					<linearGradient id="SVGID_00000101791696651870795330000003583493473530356380_" gradientUnits="userSpaceOnUse" x1="1199.675" y1="477.5319" x2="791.632" y2="1288.5179">
					<stop  offset="0" style="stop-color:#96888E"/>
					<stop  offset="1" style="stop-color:#706369"/>
				</linearGradient>
				<path style="fill:url(#SVGID_00000101791696651870795330000003583493473530356380_);" d="M1609.974,655.119L560.888,629.203
					c-36.31-0.897-65.927,27.709-65.927,63.899v47.006l1168.123,16.746v-41.947C1663.084,682.612,1639.378,655.846,1609.974,655.119
					z"/>
				<path style="fill:#FFFFFF;" d="M612.007,689.007c0,11.717-9.519,21.051-21.285,20.847c-11.792-0.204-21.37-9.905-21.37-21.668
					c0-11.763,9.578-21.096,21.37-20.846C602.488,667.59,612.007,677.29,612.007,689.007z"/>
				<path style="fill:#FFFFFF;" d="M686.102,690.433c0,11.636-9.388,20.906-20.992,20.706c-11.629-0.201-21.075-9.834-21.075-21.516
					c0-11.682,9.446-20.951,21.075-20.704C676.714,669.166,686.102,678.798,686.102,690.433z"/>
				<path style="fill:#FFFFFF;" d="M759.181,691.84c0,11.556-9.26,20.764-20.705,20.567c-11.47-0.198-20.786-9.764-20.786-21.365
					c0-11.601,9.316-20.808,20.786-20.565C749.921,670.72,759.181,680.284,759.181,691.84z"/>
				<polygon style="fill:#F9EFE4;" points="1601.078,1418.76 571.784,1473.992 571.784,858.638 1601.078,862.178 				"/>
				<g>
					<polygon style="fill:#F9EFE4;" points="1133.551,800.167 571.784,794.913 571.784,828.153 1133.551,831.674 					"/>
					<polygon style="fill:#F9EFE4;" points="1544.095,804.006 1544.095,834.247 1601.078,834.604 1601.078,804.539 					"/>
				</g>
				<g style="opacity:0.5;">
					<path style="fill:#FFFFFF;" d="M1209.793,1052.328c-122.108-176.72-335.538-116.118-471.933-313.852
						c-24.713-35.827-41.502-72.409-53.027-106.211l-123.944-3.062c-36.31-0.897-65.927,27.709-65.927,63.899v784.697
						c0,36.19,29.616,63.76,65.927,61.594l804.073-47.978c-23.488-33.413-45.2-70.966-63.597-113.172
						C1230.624,1215.953,1283.044,1158.34,1209.793,1052.328z"/>
				</g>
			</g>
			<g>
				<defs>
					<polygon id="SVGID_00000062880735297282250460000011003266472336685213_" points="834.91,1462.507 1431.094,1428.102 
						1899.226,898.441 1599.561,424.814 573.878,568.236 558.221,1418.978 					"/>
				</defs>
				<clipPath id="SVGID_00000179614089937101625990000007229799425583793807_">
					<use xlink:href="#SVGID_00000062880735297282250460000011003266472336685213_"  style="overflow:visible;"/>
				</clipPath>
				<g style="clip-path:url(#SVGID_00000179614089937101625990000007229799425583793807_);">
					
						<linearGradient id="SVGID_00000060001105876856895890000015172275130607682724_" gradientUnits="userSpaceOnUse" x1="1907.0045" y1="698.6631" x2="1862.7996" y2="778.5721">
						<stop  offset="0" style="stop-color:#FAEBD7"/>
						<stop  offset="1" style="stop-color:#E8D0BA"/>
					</linearGradient>
					<path style="fill:url(#SVGID_00000060001105876856895890000015172275130607682724_);" d="M1743.49,933.848
						c0,0,11.552-14.309,33.209-15.207c21.637-0.897,51.09-14.39,63.727-15.678c3.048-0.311,4.559-1.227,4.818-2.374
						c0.533-2.362-13.493-5.658-25.941-5.96c-22.089-0.536-34.982,8.313-37.964,3.86c-3.335-4.978,10.937-18.795,8.324-21.833
						c-2.026-2.354-11.73,5.362-22.122,10.113c-7.379,3.374-36.261,39.135-36.261,39.135L1743.49,933.848z"/>
					
						<linearGradient id="SVGID_00000047741899961752998990000001802130682112960415_" gradientUnits="userSpaceOnUse" x1="1699.172" y1="748.0791" x2="1431.8999" y2="1017.233">
						<stop  offset="0" style="stop-color:#F6AF9A"/>
						<stop  offset="0.9964" style="stop-color:#F89F8A"/>
					</linearGradient>
					<path style="fill:url(#SVGID_00000047741899961752998990000001802130682112960415_);" d="M1759.252,928.207
						c-1.767,85.869-43.397,163.867-110.059,202.269c-2.758,1.59-5.573,3.123-8.426,4.579
						c-121.799,62.182-243.847-43.041-258.533-56.131c-3.802-3.374-21.98-20.011-40.937-47.621
						c-21.367-31.053-43.711-76.028-47.565-131.512c-1.573-22.707-6.368-91.948,29.531-112.938
						c36.952-21.608,95.755,20.299,119.644,37.313c101.025,71.982,103.454,160.346,159.014,169.319
						c24.895,4.02,64.455-7.277,123.878-87.765C1736.961,913.22,1748.101,920.715,1759.252,928.207z"/>
					
						<linearGradient id="SVGID_00000079451497972576336780000015791286640077692820_" gradientUnits="userSpaceOnUse" x1="1472.1803" y1="1119.2203" x2="1523.7197" y2="1000.1328">
						<stop  offset="0" style="stop-color:#F6AF9A"/>
						<stop  offset="0.9964" style="stop-color:#F89F8A"/>
					</linearGradient>
					<path style="opacity:0.3;fill:url(#SVGID_00000079451497972576336780000015791286640077692820_);" d="M1649.193,1130.476
						c-2.758,1.59-5.573,3.123-8.426,4.579c-121.799,62.182-243.847-43.041-258.533-56.131c-3.802-3.374-21.98-20.011-40.937-47.621
						c5.894-26.687,13.909-62.061,13.909-62.061s52.27-6.494,77.066,55.455c8.959,22.383,19.78,44.187,38.097,59.892
						c18.474,15.865,32.771,13.447,56.063,9.817c21.428-3.329,43.821,13.012,62.388,20.885
						C1608.034,1123.438,1627.97,1131.839,1649.193,1130.476z"/>
				</g>
				
					<linearGradient id="SVGID_00000095340703758297530330000013579568709725044669_" gradientUnits="userSpaceOnUse" x1="975.738" y1="1380.4083" x2="1343.01" y2="531.7863">
					<stop  offset="0" style="stop-color:#F6AF9A"/>
					<stop  offset="0.9964" style="stop-color:#F89F8A"/>
				</linearGradient>
				
					<path style="clip-path:url(#SVGID_00000179614089937101625990000007229799425583793807_);fill:url(#SVGID_00000095340703758297530330000013579568709725044669_);" d="
					M831.224,801.051c74.042-25.464,187.234-53.483,326.027-46.469c80.585,4.072,158.102,13.502,213.131,29.892
					c7.445,43.098,6.784,91.661,14.234,134.779c1.713,43.181,2.265,101.66-2.429,170.694c-4.694,69.022-9.288,70.008-20.037,167.371
					c-17.52,158.697-10.193,200.328-41.091,218.949c-20.086,12.105-27.349-2.988-129.701-15.035
					c-68.512-8.065-103.439-11.856-138.072-0.23c-47.122,15.817-62.88,43.323-82.299,33.994
					c-18.615-8.944-20.985-42.324-23.233-100.49c-3.467-89.723-3.254-150.671-3.573-172.492
					c-1.467-100.118-25.884-176.814-57.138-274.983C867.505,885.665,846.934,835.975,831.224,801.051z"/>
				<g style="clip-path:url(#SVGID_00000179614089937101625990000007229799425583793807_);">
					
						<linearGradient id="SVGID_00000043458597014359138020000008584894415597238202_" gradientUnits="userSpaceOnUse" x1="1497.1257" y1="172.9988" x2="1506.4946" y2="-76.5579" gradientTransform="matrix(0.8944 0.4471 -0.4471 0.8944 -163.3565 23.6114)">
						<stop  offset="0" style="stop-color:#FAEBD7"/>
						<stop  offset="1" style="stop-color:#E8D0BA"/>
					</linearGradient>
					<path style="fill:url(#SVGID_00000043458597014359138020000008584894415597238202_);" d="M1148.049,655.137
						c-1.096,25.213-4.841,45.027-8.117,58.552c-3.751,15.495-6.08,19.412-8.954,22.528c-4.327,4.691-10.712,8.452-46.021,15.202
						c-19.203,3.67-21.635,3.383-22.154,5.304c-2.53,9.375,47.491,45.058,101.355,40.648c32.996-2.701,63.809-20.151,62.503-30.424
						c-1.315-10.341-34.328-6.923-43.126-26.027c-6.118-13.287,2.427-31.068,12.196-45.626
						C1187.894,677.869,1155.877,672.55,1148.049,655.137z"/>
					<g>
						
							<linearGradient id="SVGID_00000089575077588628781100000012339801965134682275_" gradientUnits="userSpaceOnUse" x1="-873.152" y1="777.6833" x2="-936.9557" y2="615.6336" gradientTransform="matrix(-0.9515 -0.3078 -0.3078 0.9515 493.4156 -244.4988)">
							<stop  offset="0" style="stop-color:#3B3138"/>
							<stop  offset="1" style="stop-color:#241F21"/>
						</linearGradient>
						<path style="fill:url(#SVGID_00000089575077588628781100000012339801965134682275_);" d="M1209.606,681.507
							c10.638-7.642,16.844-25.157,12.02-39.177c-4.151-12.063-15.158-17.29-21.747-20.422c-19.087-9.069-46.936-8.903-61.821,7.126
							c-8.817,9.499-5.26,36.615-4.88,41.403c0.434,5.415,3.491,8.255,5.643,12.966c2.98,6.533,7.607,16.882,15.056,34.097
							c2.186-3.598,5.151-7.965,9.066-12.462c1.507-1.732,7.488-8.46,14.783-13.251
							C1192.347,682.176,1199.525,688.748,1209.606,681.507z"/>
						
							<linearGradient id="SVGID_00000152248780260220851530000001861628821866227606_" gradientUnits="userSpaceOnUse" x1="1148.7078" y1="720.14" x2="1145.7534" y2="958.17" gradientTransform="matrix(0.9685 0.249 -0.249 0.9685 240.9386 -313.329)">
							<stop  offset="0" style="stop-color:#FAEBD7"/>
							<stop  offset="1" style="stop-color:#E8D0BA"/>
						</linearGradient>
						<path style="fill:url(#SVGID_00000152248780260220851530000001861628821866227606_);" d="M1140.729,700.695
							c0,0,5.81,26.638,32.37,33.671c23.793,6.299,44.853-46.746,33.723-63.265c-3.714-5.511-13.131-10.456-21.973-10.83
							c-5.222-0.221-7.508,1.292-16.03,0.757c-7.861-0.491-9.63-2.011-12.432-0.842c-3.504,1.465-7.405,6.633-8.005,24.004
							c-2.919-6.163-7.662-9.752-12.037-9.177c-0.698,0.094-2.662,0.682-4.117,2.088
							C1126.963,682.188,1129.831,691.926,1140.729,700.695z"/>
						
							<linearGradient id="SVGID_00000155142144985476341760000014309502453751675026_" gradientUnits="userSpaceOnUse" x1="-892.2917" y1="786.5519" x2="-957.0381" y2="622.1076" gradientTransform="matrix(-0.9515 -0.3078 -0.3078 0.9515 493.4156 -244.4988)">
							<stop  offset="0" style="stop-color:#3B3138"/>
							<stop  offset="1" style="stop-color:#241F21"/>
						</linearGradient>
						<path style="fill:url(#SVGID_00000155142144985476341760000014309502453751675026_);" d="M1156.391,656.592
							c0.839,1.247-4.005,4.435-6.263,10.5c-4.385,11.77,2.587,30.032,14.066,35.259c6.789,3.089,10.15-0.651,22.176,1.997
							c7.448,1.641,13.125,4.613,16.614,6.739c-0.615,14.334-8.304,26.236-18.715,29.443c-11.206,3.452-21.516-4.427-25.825-7.722
							c-2.882-2.203-12.126-9.24-14.334-20.969c-2.3-12.221,5.275-16.559,1.055-25.724c-2.129-4.622-5.931-7.596-7.9-15.817
							c-0.534-2.233-0.76-4.126-0.866-5.382C1144.548,660.338,1155.176,654.786,1156.391,656.592z"/>
						
							<linearGradient id="SVGID_00000046300816102934573880000017536355553424145340_" gradientUnits="userSpaceOnUse" x1="-954.5507" y1="688.132" x2="-951.2629" y2="717.4418" gradientTransform="matrix(-0.9515 -0.3078 -0.3078 0.9515 493.4156 -244.4988)">
							<stop  offset="0" style="stop-color:#CBAF85"/>
							<stop  offset="1" style="stop-color:#BA7C44"/>
						</linearGradient>
						<path style="fill:url(#SVGID_00000046300816102934573880000017536355553424145340_);" d="M1192.949,713.086
							c0,0-5.916,1.029-14.439-2.414c-0.414-0.168-0.922-0.197-1.049,0.013c-0.478,0.788,3.846,6.507,9.469,6.744
							c3.994,0.166,7.998-2.458,7.805-3.535C1194.652,713.439,1193.81,713.211,1192.949,713.086z"/>
					</g>
				</g>
				
					<linearGradient id="SVGID_00000114763081727570068020000009167781638696361091_" gradientUnits="userSpaceOnUse" x1="705.1163" y1="1256.4001" x2="1069.327" y2="414.8515">
					<stop  offset="0" style="stop-color:#F6AF9A"/>
					<stop  offset="0.9964" style="stop-color:#F89F8A"/>
				</linearGradient>
				
					<path style="clip-path:url(#SVGID_00000179614089937101625990000007229799425583793807_);fill:url(#SVGID_00000114763081727570068020000009167781638696361091_);" d="
					M906.956,1212.714c1.717,20.916-2.666,35.05-9.98,44.684c-32.404,42.69-142.371,23.596-207.612-34.917
					c-48.235-43.261-73.756-109.779-72.814-169.09c1.839-115.735,104.97-228.27,258.782-266.233
					c22.81,71.002,45.63,142.035,68.461,213.105c-95.019,0.515-152.656,74.21-144.114,127.347
					C806.044,1167.203,850.41,1203.304,906.956,1212.714z"/>
				
					<linearGradient id="SVGID_00000150797050632805305240000016870225854144330903_" gradientUnits="userSpaceOnUse" x1="1042.1416" y1="1409.0793" x2="1409.6284" y2="559.9611">
					<stop  offset="0" style="stop-color:#F6AF9A"/>
					<stop  offset="0.9964" style="stop-color:#F89F8A"/>
				</linearGradient>
				
					<path style="opacity:0.3;clip-path:url(#SVGID_00000179614089937101625990000007229799425583793807_);fill:url(#SVGID_00000150797050632805305240000016870225854144330903_);" d="
					M1281.225,1423.518c-50.356-22.963-50.064-68.948-97.049-88.79c-66.968-28.281-140.848,34.224-152.373,16.453
					c-11.991-18.486,76.219-73.493,64.476-129.093c-9.331-44.176-70.896-37.125-103.837-97.781
					c-31.229-57.5-0.953-110.006-28.606-130.154c-9.913-7.224-27.395-10.213-60.523,4.58
					c23.097,75.137,39.666,141.381,40.866,223.282c0.32,21.821,0.106,82.769,3.573,172.492c2.248,58.166,4.618,91.547,23.233,100.49
					c19.419,9.328,35.178-18.178,82.299-33.994c34.633-11.626,69.56-7.835,138.072,0.23
					c102.352,12.047,109.615,27.141,129.701,15.035c13.085-7.886,19.307-19.95,23.472-43.243
					C1323.973,1435.012,1302.174,1433.07,1281.225,1423.518z"/>
				
					<linearGradient id="SVGID_00000077312983112243765540000017115258814205767827_" gradientUnits="userSpaceOnUse" x1="1392.3666" y1="413.9722" x2="1348.1619" y2="493.8806">
					<stop  offset="0" style="stop-color:#FAEBD7"/>
					<stop  offset="1" style="stop-color:#E8D0BA"/>
				</linearGradient>
				
					<path style="clip-path:url(#SVGID_00000179614089937101625990000007229799425583793807_);fill:url(#SVGID_00000077312983112243765540000017115258814205767827_);" d="
					M899.535,1221.53l24.533-1.111c0,0,26.894-23.02,39.14-21.41c12.248,1.61,30.577,10.659,32.812,12.538
					c2.236,1.878-6.707,12.13-15.647,11.009c-8.939-1.122-28.88,3.629-32.445,11.75c-3.565,8.121-19.034,12.854-21.662,8.03
					l-32.977,6.369L899.535,1221.53z"/>
			</g>
			<g>
				<path style="fill:#FFFFFF;" d="M988.432,1361.86c0,22.575-18.463,41.759-41.331,42.852
					c-22.973,1.098-41.673-16.46-41.673-39.222c0-22.762,18.7-41.956,41.673-42.867
					C969.969,1321.716,988.432,1339.285,988.432,1361.86z"/>
				<path style="fill:#FFFFFF;" d="M1153.341,1354.649c0,22.204-17.86,41.057-39.98,42.115c-22.22,1.062-40.306-16.22-40.306-38.604
					s18.086-41.248,40.306-42.129C1135.481,1315.153,1153.341,1332.445,1153.341,1354.649z"/>
				<path style="fill:#FFFFFF;" d="M1312.912,1347.671c0,21.845-17.286,40.379-38.694,41.403
					c-21.503,1.028-39.004-15.986-39.004-38.005c0-22.02,17.501-40.564,39.004-41.417
					C1295.626,1308.803,1312.912,1325.826,1312.912,1347.671z"/>
			</g>
		</g>
		<g>
			
				<linearGradient id="SVGID_00000057843032174753894320000013301595654556252077_" gradientUnits="userSpaceOnUse" x1="3001.5388" y1="1770.6631" x2="2856.7927" y2="2258.2305" gradientTransform="matrix(1 0 0 1 -1675.0461 0)">
				<stop  offset="0" style="stop-color:#96888E"/>
				<stop  offset="1" style="stop-color:#706369"/>
			</linearGradient>
			<path style="fill:url(#SVGID_00000057843032174753894320000013301595654556252077_);" d="M1455.921,2058.18l-323.442-9.014
				c-36.889-1.686-66.26-47.879-66.26-103.009v-0.606c0-55.13,29.371-100.58,66.26-101.332l346.075-11.707L1455.921,2058.18z"/>
			<g>
				
					<linearGradient id="SVGID_00000049923368092217938490000000344181981248152754_" gradientUnits="userSpaceOnUse" x1="3074.7141" y1="1943.3132" x2="3703.3689" y2="1943.3132" gradientTransform="matrix(1 0 0 1 -1675.0461 0)">
					<stop  offset="0" style="stop-color:#E4D6CA"/>
					<stop  offset="1" style="stop-color:#D4BDAC"/>
				</linearGradient>
				<path style="fill:url(#SVGID_00000049923368092217938490000000344181981248152754_);" d="M2028.323,2025.638l-537.152,21.182
					c-50.25,1.981-91.503-34.74-91.503-82.044v-32.091c0-47.305,41.252-86.132,91.503-86.715l537.152-6.239V2025.638z"/>
				
					<linearGradient id="SVGID_00000040550017192443529840000004885460609591857541_" gradientUnits="userSpaceOnUse" x1="3060.3977" y1="1944.5082" x2="3715.0811" y2="1944.5082" gradientTransform="matrix(1 0 0 1 -1675.0461 0)">
					<stop  offset="0" style="stop-color:#5D535A"/>
					<stop  offset="1" style="stop-color:#464143"/>
				</linearGradient>
				<path style="fill:url(#SVGID_00000040550017192443529840000004885460609591857541_);" d="M2033.522,2035.34l-568.137,23.247
					c-43.912,1.797-80.033-47.007-80.033-108.812v-0.679c0-61.805,36.12-112.456,80.033-112.905l568.137-5.808
					c3.599-0.037,6.513,4.365,6.513,9.831s-2.914,9.936-6.513,9.984l-568.137,7.494c-35.355,0.467-64.373,41.293-64.373,91.005
					v0.678c0,49.712,29.019,89.054,64.373,87.713l568.137-21.561c3.599-0.137,6.513,4.184,6.513,9.651
					C2040.035,2030.642,2037.12,2035.193,2033.522,2035.34z"/>
			</g>
			<g>
				
					<linearGradient id="SVGID_00000109028817824182463550000016447832074112753066_" gradientUnits="userSpaceOnUse" x1="2752.8049" y1="1766.3274" x2="3111.561" y2="1766.3274" gradientTransform="matrix(1 0 0 1 -1675.0461 0)">
					<stop  offset="0" style="stop-color:#E4D6CA"/>
					<stop  offset="1" style="stop-color:#D4BDAC"/>
				</linearGradient>
				<path style="fill:url(#SVGID_00000109028817824182463550000016447832074112753066_);" d="M1436.515,1830.773l-307.894,6.935
					c-28.298,0.637-50.862-21.767-50.862-50.031v-19.174c0-28.264,22.563-52.585,50.862-54.352l307.894-19.219V1830.773z"/>
				
					<linearGradient id="SVGID_00000142142382319982302170000007046397008519164554_" gradientUnits="userSpaceOnUse" x1="2728.4395" y1="1763.4924" x2="2886.3359" y2="1765.218" gradientTransform="matrix(1 0 0 1 -1675.0461 0)">
					<stop  offset="0" style="stop-color:#96888E"/>
					<stop  offset="1" style="stop-color:#706369"/>
				</linearGradient>
				<path style="fill:url(#SVGID_00000142142382319982302170000007046397008519164554_);" d="M1393.19,1836.928l-260.71,7.291
					c-36.889,0.752-66.26-28.519-66.26-65.235v-0.403c0-36.716,29.37-68.479,66.26-70.855l260.71-20.388
					c4.573-0.289,57.609,3.141,57.609,7.159c0,4.018-49.538,7.062-54.078,7.332l-264.241,19.093
					c-29.804,1.793-53.632,27.404-53.632,57.123v0.405c0,29.718,23.828,53.309,53.632,52.574l260.71-8.557
					c4.54-0.119,57.609,3.967,57.609,7.985C1450.799,1834.469,1397.759,1836.825,1393.19,1836.928z"/>
			</g>
			<g>
				
					<linearGradient id="SVGID_00000013893893048873457910000009746832384500689842_" gradientUnits="userSpaceOnUse" x1="3074.7141" y1="1761.907" x2="3703.3689" y2="1761.907" gradientTransform="matrix(1 0 0 1 -1675.0461 0)">
					<stop  offset="0" style="stop-color:#E4D6CA"/>
					<stop  offset="1" style="stop-color:#D4BDAC"/>
				</linearGradient>
				<polygon style="fill:url(#SVGID_00000013893893048873457910000009746832384500689842_);" points="2028.323,1823.832 
					1399.668,1829.637 1399.668,1694.177 2028.323,1700.018 				"/>
				
					<linearGradient id="SVGID_00000028315247598500269280000004362169133443219387_" gradientUnits="userSpaceOnUse" x1="3060.3977" y1="1697.207" x2="3715.0811" y2="1697.207" gradientTransform="matrix(1 0 0 1 -1675.0461 0)">
					<stop  offset="0" style="stop-color:#96888E"/>
					<stop  offset="1" style="stop-color:#706369"/>
				</linearGradient>
				<path style="fill:url(#SVGID_00000028315247598500269280000004362169133443219387_);" d="M2033.522,1707.077l-640.332-5.278
					c-4.327-0.036-7.838-3.306-7.838-7.303c0-3.998,3.511-7.203,7.838-7.159l640.332,6.544c3.599,0.037,6.513,3.018,6.513,6.658
					C2040.035,1704.179,2037.12,1707.107,2033.522,1707.077z"/>
				
					<linearGradient id="SVGID_00000075163873501705256390000009263355331417683852_" gradientUnits="userSpaceOnUse" x1="3060.3977" y1="1827.057" x2="3715.0811" y2="1827.057" gradientTransform="matrix(1 0 0 1 -1675.0461 0)">
					<stop  offset="0" style="stop-color:#96888E"/>
					<stop  offset="1" style="stop-color:#706369"/>
				</linearGradient>
				<path style="fill:url(#SVGID_00000075163873501705256390000009263355331417683852_);" d="M2033.522,1830.382l-640.332,6.547
					c-4.327,0.044-7.838-3.161-7.838-7.159c0-3.998,3.511-7.268,7.838-7.303l640.332-5.281c3.599-0.03,6.513,2.898,6.513,6.538
					S2037.12,1830.345,2033.522,1830.382z"/>
			</g>
			<path style="opacity:0.7;fill:#FFFFFF;" d="M1369.234,2027.646l-68.748-3.927c-16.615-47.362-15.359-93.035,0-148.599
				l68.748,0.208C1355.452,1932.054,1357.548,1982.225,1369.234,2027.646z"/>
			
				<linearGradient id="SVGID_00000176042427614748569800000017003874236656539009_" gradientUnits="userSpaceOnUse" x1="2868.2905" y1="1870.7461" x2="2838.3496" y2="1826.4178" gradientTransform="matrix(1 0 0 1 -1675.0461 0)">
				<stop  offset="0" style="stop-color:#D3C5CB"/>
				<stop  offset="1" style="stop-color:#ADA0A6"/>
			</linearGradient>
			<path style="opacity:0.25;fill:url(#SVGID_00000176042427614748569800000017003874236656539009_);" d="M1226.726,1843.153
				l-2.186-85.753l-78.919,86.879c0,0-42.645,22.986-35.321,63.345l48.786-19.409l43.335,15.016
				C1202.421,1903.231,1203.508,1860.843,1226.726,1843.153z"/>
			
				<linearGradient id="SVGID_00000132078300737419921770000002618049667642315394_" gradientUnits="userSpaceOnUse" x1="1147.7019" y1="1703.6403" x2="1174.4186" y2="1879.9711">
				<stop  offset="0" style="stop-color:#96888E"/>
				<stop  offset="1" style="stop-color:#706369"/>
			</linearGradient>
			<path style="fill:url(#SVGID_00000132078300737419921770000002618049667642315394_);" d="M1136.748,1762.767l87.792-5.366
				c0,0-41.289,31.372-22.119,145.83c0,0-37.532-11.922-53.859-32.334l-38.262,36.727
				C1110.3,1907.624,1086.938,1805.859,1136.748,1762.767z"/>
		</g>
		<g>
			
				<linearGradient id="SVGID_00000082362269008515597280000004745792386351255718_" gradientUnits="userSpaceOnUse" x1="1699.7031" y1="1157.2644" x2="2245.7571" y2="1528.1687">
				<stop  offset="0" style="stop-color:#3B3138"/>
				<stop  offset="1" style="stop-color:#241F21"/>
			</linearGradient>
			<path style="fill:url(#SVGID_00000082362269008515597280000004745792386351255718_);" d="M2151.903,1341.26
				c-28.103-38.148-88.011-10.042-128.7-57.211c-25.104-29.1-6.926-47.105-33.654-73.091
				c-27.664-26.895-49.948-10.981-117.401-45.267c-37.441-19.031-39.118-16.686-43.881-17.629
				c-21.59-4.272-56.185-1.611-74.291,19.248c-14.807,17.058-3.716,29.153-15.255,78.403c-9.416,40.19-22.616,56.959-14.087,65.602
				c8.378,8.489,35.921,7.341,53.179,0.271c3.287-1.346,10.196-4.548,17.388-2.139c5.991,2.005,9.743,7.09,11.984,11.098
				c8.974,19.668,23.875,46.961,48.202,74.803c43.975,50.329,92.077,72.033,101.646,76.128
				c45.476,19.466,113.278,48.718,162.558,11.93C2163.062,1450.958,2178.484,1377.344,2151.903,1341.26z"/>
			
				<linearGradient id="SVGID_00000098189629865103838450000016606071710307106191_" gradientUnits="userSpaceOnUse" x1="-825.4927" y1="2419.2468" x2="-1017.5203" y2="1119.0586" gradientTransform="matrix(-1 0 0 1 673.0991 0)">
				<stop  offset="0" style="stop-color:#95AFC7"/>
				<stop  offset="1" style="stop-color:#7595B6"/>
			</linearGradient>
			<path style="fill:url(#SVGID_00000098189629865103838450000016606071710307106191_);" d="M1767.495,1300.13
				c-13.1-11.935-59.849,11.068-90.831,41.597c-36.398,35.867-33.6,64.948-65.364,109.507
				c-15.79,22.152-42.863,51.974-90.832,78.096c3.396,8.489,6.792,16.979,10.186,25.467c23.193,1.395,68.727,0.575,111.206-27.163
				c29.508-19.269,44.691-44.8,73.853-95.077C1744.979,1382.099,1783.87,1315.05,1767.495,1300.13z"/>
			
				<linearGradient id="SVGID_00000026156488114171258500000000709997865839574184_" gradientUnits="userSpaceOnUse" x1="-195.5322" y1="1982.3467" x2="-122.593" y2="1982.3467" gradientTransform="matrix(1 0 0 1 1652.8137 0)">
				<stop  offset="0" style="stop-color:#3B3138"/>
				<stop  offset="1" style="stop-color:#241F21"/>
			</linearGradient>
			<path style="fill:url(#SVGID_00000026156488114171258500000000709997865839574184_);" d="M1472.233,1982.325l36.494-21.928h16.47
				c0,0,5.611,20.884,4.974,21.928c-7.338,12.024-41.504,21.172-62.824,21.929c-3.54,0.125-8.479,0.144-9.756-2.422
				C1455.428,1997.487,1465.085,1988.373,1472.233,1982.325z"/>
			
				<linearGradient id="SVGID_00000063610132825415430470000016269358735729433492_" gradientUnits="userSpaceOnUse" x1="-161.1337" y1="2011.0916" x2="-52.3147" y2="1684.6335" gradientTransform="matrix(1 0 0 1 1652.8137 0)">
				<stop  offset="0" style="stop-color:#CBAF85"/>
				<stop  offset="1" style="stop-color:#BA7C44"/>
			</linearGradient>
			<path style="fill:url(#SVGID_00000063610132825415430470000016269358735729433492_);" d="M1509.372,1936.468
				c2.346,13.575-0.622,20.653-3.82,24.617c-2.251,2.79-4.25,3.584-17.613,15.134c-4.419,3.821-6.667,5.866-6.156,6.937
				c0.584,1.225,4.484,0.56,12.904-1.464c18.35-4.413,27.571-6.709,29.822-11.125c2.038-3.999,0.236-5.802,0.355-16.697
				c0.078-7.173,1.536-12.947,2.683-16.559C1521.489,1937.03,1515.431,1936.75,1509.372,1936.468z"/>
			
				<linearGradient id="SVGID_00000070092541018783123010000009797406524446432674_" gradientUnits="userSpaceOnUse" x1="-183.9222" y1="1848.42" x2="-139.3149" y2="1848.42" gradientTransform="matrix(1 0 0 1 1652.8137 0)">
				<stop  offset="0" style="stop-color:#3B3138"/>
				<stop  offset="1" style="stop-color:#241F21"/>
			</linearGradient>
			<path style="fill:url(#SVGID_00000070092541018783123010000009797406524446432674_);" d="M1482.991,1828.881
				c0,0-16.488,19.674-13.805,41.241c2.683,21.566,31.558-9.965,35.583-20.621c4.027-10.656,8.729-25.838,8.729-25.838
				S1493.251,1811.066,1482.991,1828.881z"/>
			
				<linearGradient id="SVGID_00000016770629027545361750000018333793255242759831_" gradientUnits="userSpaceOnUse" x1="-209.7754" y1="1970.9038" x2="-136.9362" y2="1752.3857" gradientTransform="matrix(1 0 0 1 1652.8137 0)">
				<stop  offset="0" style="stop-color:#CBAF85"/>
				<stop  offset="1" style="stop-color:#BA7C44"/>
			</linearGradient>
			<path style="fill:url(#SVGID_00000016770629027545361750000018333793255242759831_);" d="M1489.281,1798.099
				c0,0,4.473,22.92-4.058,35.017c-4.25,6.025-9.98,11.135-8.295,16.04c1.13,3.287,5.418,5.648,9.051,5.275
				c6.955-0.714,10.811-11.377,13.53-18.898c4.016-11.109,6.256-34.878,6.256-34.878L1489.281,1798.099z"/>
			
				<linearGradient id="SVGID_00000084503550293609903260000011912248285248272266_" gradientUnits="userSpaceOnUse" x1="-120.024" y1="1602.7534" x2="-65.6954" y2="1916.8412" gradientTransform="matrix(1 0 0 1 1652.8137 0)">
				<stop  offset="0" style="stop-color:#3B3138"/>
				<stop  offset="1" style="stop-color:#241F21"/>
			</linearGradient>
			<path style="fill:url(#SVGID_00000084503550293609903260000011912248285248272266_);" d="M1502.422,1817.42
				c-5.071-1.846-10.141-3.694-15.212-5.541c-7.91-18.068-17.565-47.744-14.34-83.814c8.293-92.762,94.087-141.917,103.618-147.177
				c23.375,11.728,47.052,28.273,47.909,49.131c1.076,26.183-34.593,40.023-68.123,78.31
				C1536.148,1731.309,1514.642,1765.553,1502.422,1817.42z"/>
			
				<linearGradient id="SVGID_00000108278406242133591820000012887933544273089938_" gradientUnits="userSpaceOnUse" x1="-43.2991" y1="1974.9934" x2="33.9499" y2="1730.5132" gradientTransform="matrix(1 0 0 1 1652.8137 0)">
				<stop  offset="0" style="stop-color:#3B3138"/>
				<stop  offset="1" style="stop-color:#241F21"/>
			</linearGradient>
			<path style="fill:url(#SVGID_00000108278406242133591820000012887933544273089938_);" d="M1507.888,1947.078
				c-16.754-65.445-12.474-118.851-7.641-149.617c7.305-46.5,22.163-141.087,85.314-176.357
				c13.79-7.702,33.505-14.599,57.532-36.012c20.065-17.882,32.819-36.688,40.514-49.938
				c84.457-24.775,162.356-14.735,196.731,30.56c3.972,5.234,13.916,16.586,15.839,33.326c4.341,37.769-32.77,83.239-74.412,92.735
				c-52.924,12.068-83.627-42.274-130.517-24.194c-13.117,5.057-24.236,17.59-46.477,42.656
				c-28.293,31.887-44.198,61.311-50.215,73.084c-17.917,35.059-31.504,60.94-33.486,94.481c-0.461,7.814-0.737,23.6-9.889,40.626
				c-7.025,13.069-16.548,21.784-23.633,27.168C1520.994,1946.09,1514.441,1946.585,1507.888,1947.078z"/>
			
				<linearGradient id="SVGID_00000147194492198514826860000001691014465248855692_" gradientUnits="userSpaceOnUse" x1="-43.2923" y1="1974.9962" x2="33.9567" y2="1730.5159" gradientTransform="matrix(1 0 0 1 1652.8137 0)">
				<stop  offset="0" style="stop-color:#5D535A"/>
				<stop  offset="1" style="stop-color:#464143"/>
			</linearGradient>
			<path style="opacity:0.3;fill:url(#SVGID_00000147194492198514826860000001691014465248855692_);" d="M1896.177,1599.041
				c-1.923-16.74-11.867-28.092-15.839-33.326c-34.375-45.295-112.274-55.335-196.731-30.56
				c-7.695,13.249-20.449,32.056-40.513,49.938c-24.028,21.413-43.743,28.31-57.533,36.012
				c-38.562,21.537-59.1,65.187-70.924,106.505c17.544-27.201,32.561-34.433,44.183-34.562
				c16.635-0.185,24.068,14.038,43.931,12.096c21.23-2.075,26.084-19.629,43.293-21.646c5.151-0.604,11.489,0.191,19.101,4.244
				c10.158-10.636,17.73-16.933,26.103-20.161c46.889-18.08,77.593,36.262,130.517,24.194
				C1863.407,1682.28,1900.518,1636.81,1896.177,1599.041z"/>
			
				<linearGradient id="SVGID_00000164504477477785969730000015319154603234942616_" gradientUnits="userSpaceOnUse" x1="65.4077" y1="1571.053" x2="119.6112" y2="1884.4171" gradientTransform="matrix(1 0 0 1 1652.8137 0)">
				<stop  offset="0" style="stop-color:#3B3138"/>
				<stop  offset="1" style="stop-color:#241F21"/>
			</linearGradient>
			<path style="fill:url(#SVGID_00000164504477477785969730000015319154603234942616_);" d="M1551.646,1650.376
				c9.559-0.508,24.28-0.802,42.036,0.953c84.27,8.328,107.501,50.011,177.148,60.183c16.475,2.407,89.832,13.12,121.604-29.287
				c22.81-30.446,19.359-82.906-5.591-103.539c-10.559-8.732-21.013-8.49-88.636-7.878c-25.467,0.231-50.934,0.313-76.4,0.637
				c-107.799,1.374-128.415-6.092-148.029,11.738C1564.629,1591.501,1551.249,1609.366,1551.646,1650.376z"/>
			<g>
				<g>
					
						<linearGradient id="SVGID_00000104690837817424591890000011900527698604277390_" gradientUnits="userSpaceOnUse" x1="-972.6759" y1="2440.9858" x2="-1164.7035" y2="1140.7971" gradientTransform="matrix(-1 0 0 1 673.0991 0)">
						<stop  offset="0" style="stop-color:#95AFC7"/>
						<stop  offset="1" style="stop-color:#7595B6"/>
					</linearGradient>
					<path style="fill:url(#SVGID_00000104690837817424591890000011900527698604277390_);" d="M1656.207,1540.967
						c0,0,53.478,10.455,109.861,20.484c63.8,11.336,131.359,22.138,129.572,16.643c-18.271-56.037,0.081-92.871,13.229-134.293
						c7.869-24.645,13.87-50.943,9.202-83.883c-13.069-92.098-138.854-55.424-138.854-55.424
						c-40.781,1.654-45.235,5.948-48.969,10.082c-26.112,28.806-33.34,62.359-33.34,62.359c-6.482,30.059,0.853,41.608,0,67.053
						C1696.135,1467.166,1688.614,1500.533,1656.207,1540.967z"/>
				</g>
				
					<linearGradient id="SVGID_00000134247762879706604720000004859411605146472339_" gradientUnits="userSpaceOnUse" x1="-959.9597" y1="2439.113" x2="-1151.9884" y2="1138.9172" gradientTransform="matrix(-1 0 0 1 673.0991 0)">
					<stop  offset="0" style="stop-color:#EF9F8E"/>
					<stop  offset="1" style="stop-color:#E68273"/>
				</linearGradient>
				<path style="fill:url(#SVGID_00000134247762879706604720000004859411605146472339_);" d="M1860.024,1557.769
					c0,0-118.006-31.573-188.349-35.515L1860.024,1557.769z"/>
			</g>
			
				<linearGradient id="SVGID_00000135684601877168376310000007105718062565570192_" gradientUnits="userSpaceOnUse" x1="1758.3385" y1="1362.359" x2="1809.9911" y2="1274.4904">
				<stop  offset="0" style="stop-color:#CBAF85"/>
				<stop  offset="1" style="stop-color:#BA7C44"/>
			</linearGradient>
			<path style="fill:url(#SVGID_00000135684601877168376310000007105718062565570192_);" d="M1806.541,1249.313
				c-1.153,5.384-7.018,34.273,4.802,41.706c2.562,1.612,7.485,2.534,17.332,4.38c6.447,1.208,11.855,1.949,15.67,2.405
				c-0.551,4.844-2.183,12.729-7.773,19.902c-15.672,20.106-47.095,14.903-51.576,14.087c-15.806-2.878-31.359-7.762-35.116-10.746
				c-5.719-4.545-10.216-7.955-12.876-11.419c6.117-2.956,18.466-10.751,26.753-13.302c6.194-1.905,12.007-3.265,17.296-4.241
				c0.869-5.58,1.739-11.161,2.609-16.742C1791.288,1266.666,1798.915,1257.99,1806.541,1249.313z"/>
			
				<linearGradient id="SVGID_00000103250578177543680950000012416243117250308539_" gradientUnits="userSpaceOnUse" x1="1853.2765" y1="1198.85" x2="1722.0945" y2="1295.6042">
				<stop  offset="0" style="stop-color:#CBAF85"/>
				<stop  offset="1" style="stop-color:#BA7C44"/>
			</linearGradient>
			<path style="fill:url(#SVGID_00000103250578177543680950000012416243117250308539_);" d="M1806.471,1265.289
				c0,0-10.84,18.31-31.081,13.041c-18.123-4.718-11.984-50.95,1.415-57.434c4.469-2.163,13.052-2.214,19.079,0.793
				c4.238,2.115,16.187,14.366,11.483,29.823c4.301-1.705,8.307-0.911,9.491,1.186c1.502,2.661-1.883,6.804-2.651,7.742
				C1811.55,1263.692,1808.08,1264.863,1806.471,1265.289z"/>
			<g>
				
					<linearGradient id="SVGID_00000013890331222303573780000004963962490690349217_" gradientUnits="userSpaceOnUse" x1="1482.5802" y1="1566.9595" x2="1693.0166" y2="1566.9595" gradientTransform="matrix(1 0 0 1 142.8204 0)">
					<stop  offset="0" style="stop-color:#5D535A"/>
					<stop  offset="1" style="stop-color:#464143"/>
				</linearGradient>
				<path style="fill:url(#SVGID_00000013890331222303573780000004963962490690349217_);" d="M1630.555,1551.32l192.529,9.369
					c2.65,0.13,5.067,1.549,6.469,3.801l5.327,8.551c2.651,4.256-0.535,9.746-5.546,9.555l-203.934-7.768L1630.555,1551.32z"/>
				
					<linearGradient id="SVGID_00000178175293366053042810000011017600426087911574_" gradientUnits="userSpaceOnUse" x1="1348.006" y1="1434.2153" x2="1485.974" y2="1571.0795" gradientTransform="matrix(1 0 0 1 142.8204 0)">
					<stop  offset="0" style="stop-color:#96888E"/>
					<stop  offset="1" style="stop-color:#706369"/>
				</linearGradient>
				<path style="fill:url(#SVGID_00000178175293366053042810000011017600426087911574_);" d="M1430.308,1444.106l198.904,3.854
					c5.885,0.114,11.275,3.321,14.183,8.437l68.878,121.184l-210.067-8.369c-5.765-0.23-11.027-3.352-13.991-8.303l-63.815-106.613
					C1421.683,1449.759,1425.02,1444.003,1430.308,1444.106z"/>
				
					<linearGradient id="SVGID_00000049219140652203586810000008441199168256286851_" gradientUnits="userSpaceOnUse" x1="1348.0063" y1="1434.2153" x2="1485.9744" y2="1571.0797" gradientTransform="matrix(1 0 0 1 142.8204 0)">
					<stop  offset="0" style="stop-color:#96888E"/>
					<stop  offset="1" style="stop-color:#706369"/>
				</linearGradient>
				<path style="opacity:0.25;fill:url(#SVGID_00000049219140652203586810000008441199168256286851_);" d="M1643.396,1456.399
					c-2.909-5.117-8.298-8.324-14.183-8.438l-4.359-0.084c-0.65,6.42-2.62,12.294-6.549,17.036
					c-12.265,14.804-32.642,5.673-47.829,21.339c-16.683,17.211-1.271,37.698-16.188,53.715
					c-15.701,16.859-41.089,3.132-70.274,13.921l4.202,7.021c2.963,4.952,8.225,8.074,13.99,8.304l210.067,8.369L1643.396,1456.399z
					"/>
			</g>
			
				<linearGradient id="SVGID_00000114037139462960749170000002001260022652959931_" gradientUnits="userSpaceOnUse" x1="-1152.1311" y1="1376.5696" x2="-1184.2821" y2="1707.7267" gradientTransform="matrix(-1 0 0 1 673.0991 0)">
				<stop  offset="0" style="stop-color:#A6B2C7"/>
				<stop  offset="1" style="stop-color:#7595B6"/>
			</linearGradient>
			<path style="opacity:0.3;fill:url(#SVGID_00000114037139462960749170000002001260022652959931_);" d="M1766.068,1561.451
				c63.8,11.336,131.359,22.138,129.572,16.643c-18.271-56.037,0.081-92.871,13.229-134.293l-3.441-21.338
				c0,0-23.738,10.215-29.525,34.673c-5.788,24.431,0.453,42.675-23.124,46.222c-14.99,2.267-46.863,17.657-68.44,36.434
				c-1.146,1.014-2.293,2.027-3.387,3.067C1774.55,1548.862,1769.297,1555.183,1766.068,1561.451z"/>
			<g>
				
					<linearGradient id="SVGID_00000172413001573941600940000010367054411199990438_" gradientUnits="userSpaceOnUse" x1="-1092.6367" y1="2458.7043" x2="-1284.6644" y2="1158.5149" gradientTransform="matrix(-1 0 0 1 673.0991 0)">
					<stop  offset="0" style="stop-color:#95AFC7"/>
					<stop  offset="1" style="stop-color:#7595B6"/>
				</linearGradient>
				<path style="fill:url(#SVGID_00000172413001573941600940000010367054411199990438_);" d="M1807.395,1544.886
					c-2.506-6.618-5.012-13.234-7.518-19.853c27.696-7.594,66-18.813,105.289-32.852c6.153-2.199,13.463-4.922,15.858-11.397
					c6.718-18.163-35.991-36.984-52.594-76.643c-15.355-36.679-6.904-87.58,10.917-93.593
					c37.083-12.513,168.584,151.174,121.618,220.177C1974.416,1569.731,1892.565,1575.942,1807.395,1544.886z"/>
			</g>
			
				<linearGradient id="SVGID_00000171709189796596202670000011506291413615315863_" gradientUnits="userSpaceOnUse" x1="1739.3075" y1="1536.7224" x2="1809.0652" y2="1536.7224">
				<stop  offset="0" style="stop-color:#CBAF85"/>
				<stop  offset="1" style="stop-color:#BA7C44"/>
			</linearGradient>
			<path style="fill:url(#SVGID_00000171709189796596202670000011506291413615315863_);" d="M1799.877,1525.033
				c-17.387-9.236-38.2,0.231-39.541,0.865c-3.82,1.803-9.38,5.016-14.999,10.754c-0.635,0.867-8.177,11.318-5.429,14.667
				c2.202,2.683,10.731,0.459,20.982-5.917c4.297-0.602,10.693-1.156,18.357-0.45c14.072,1.298,20.519,5.744,25.628,1.906
				c3.741-2.809,5.016-8.749,3.67-13.165C1807.098,1528.951,1802.82,1526.597,1799.877,1525.033z"/>
		</g>
		<g>
			<g>
				
					<linearGradient id="SVGID_00000020380565758473844200000002712430293821405057_" gradientUnits="userSpaceOnUse" x1="1388.8306" y1="352.1684" x2="1404.0315" y2="384.5971">
					<stop  offset="0" style="stop-color:#EF9F8E"/>
					<stop  offset="1" style="stop-color:#E68273"/>
				</linearGradient>
				<path style="fill:url(#SVGID_00000020380565758473844200000002712430293821405057_);" d="M1502.394,384.363
					c-46.641,0-89.795,11.356-124.952,30.62c-54.015,29.593-89.184,77.88-89.184,132.416c0,30.962,11.329,59.909,31.025,84.572
					l-20.658,54.916c-1.621,4.305,1.195,8.702,5.309,9.492l-0.006,0.008c0,0,0.066,0.007,0.159,0.017
					c0.315,0.053,0.635,0.084,0.963,0.093c2.121,0.189,6.774,0.507,9.724-0.009c-0.263-0.482-0.539-0.974-0.82-1.467
					c19.412-3.601,48.912-9.018,68.774-12.406c34.155,17.566,75.333,27.819,119.666,27.819c65.004,0,123.253-22.053,162.528-56.88
					c32.168-28.516,51.608-65.6,51.608-106.156C1716.531,457.352,1620.653,384.363,1502.394,384.363z"/>
				<g>
					<g>
						
							<linearGradient id="SVGID_00000073708471478558688920000003209391081570616498_" gradientUnits="userSpaceOnUse" x1="1297.1956" y1="547.3993" x2="1725.4689" y2="547.3993">
							<stop  offset="0" style="stop-color:#F6AF9A"/>
							<stop  offset="0.9964" style="stop-color:#F89F8A"/>
						</linearGradient>
						<path style="fill:url(#SVGID_00000073708471478558688920000003209391081570616498_);" d="M1725.469,547.399
							c0,40.556-19.441,77.64-51.609,106.156c-39.275,34.828-97.524,56.88-162.528,56.88c-44.334,0-85.511-10.253-119.666-27.819
							c-22.585,3.853-57.641,10.329-76.144,13.776c-5.437,1.014-9.911-4.322-7.959-9.505l20.658-54.916
							c-19.695-24.663-31.025-53.61-31.025-84.572c0-54.535,35.17-102.823,89.185-132.416c35.157-19.264,78.312-30.62,124.952-30.62
							C1629.591,384.363,1725.469,457.352,1725.469,547.399z"/>
						
							<linearGradient id="SVGID_00000111885307342663418140000007216000937961150397_" gradientUnits="userSpaceOnUse" x1="1328.5" y1="454.1075" x2="1660.818" y2="891.7634">
							<stop  offset="0" style="stop-color:#F6AF9A"/>
							<stop  offset="0.9964" style="stop-color:#F89F8A"/>
						</linearGradient>
						<path style="opacity:0.3;fill:url(#SVGID_00000111885307342663418140000007216000937961150397_);" d="M1673.86,653.555
							c-39.275,34.828-97.524,56.88-162.528,56.88c-44.334,0-85.511-10.253-119.666-27.819
							c-22.585,3.853-57.641,10.329-76.144,13.776c-5.437,1.014-9.911-4.322-7.959-9.505l20.658-54.916
							c-19.695-24.663-31.025-53.61-31.025-84.572c0-54.535,35.17-102.823,89.185-132.416c28.25,3.84,52.775,13.662,67.666,33.37
							c32.761,43.408-4.196,104.293,30.011,135.103c33.953,30.557,88.235-13.244,137.6,7.503
							C1640.212,598.753,1659.261,616.18,1673.86,653.555z"/>
					</g>
				</g>
			</g>
			<g>
				<polygon style="fill:#FFFFFF;" points="1506.603,468.476 1364.949,511.654 1506.603,554.831 1648.256,511.654 				"/>
				<path style="fill:#FFFFFF;" d="M1506.603,570.213l-89.153-27.175v62.079c0,10.189,7.125,19.002,17.093,21.115
					c47.878,10.151,93.914,10.466,137.995,0.332c9.765-2.245,16.649-10.994,16.649-21.013v-60.51L1506.603,570.213z"/>
				<path style="fill:#FFFFFF;" d="M1397.758,595.718c-7.745,3.441-14.518,3.513-20.319,0.217c-1.696-0.964-2.54-2.945-2.155-4.858
					l12.608-62.687l12.512,62.213C1400.83,592.716,1399.728,594.843,1397.758,595.718z"/>
				<polygon style="fill:#FFFFFF;" points="1506.602,505.258 1386.058,518.067 1386.058,538.978 1389.63,538.978 1389.997,520.652 
									"/>
			</g>
		</g>
		<g>
			<g>
				
					<linearGradient id="SVGID_00000069390718605806699350000005652394992819543685_" gradientUnits="userSpaceOnUse" x1="1539.9298" y1="1227.5399" x2="1525.6372" y2="1431.7183">
					<stop  offset="0" style="stop-color:#96888E"/>
					<stop  offset="1" style="stop-color:#706369"/>
				</linearGradient>
				<path style="fill:url(#SVGID_00000069390718605806699350000005652394992819543685_);" d="M1597.966,1325.46
					c-17.762-17.764-41.413-27.546-66.596-27.546c-25.183,0-47.724,7.563-65.487,25.327c-3.679,3.678-4.789,11.861-1.109,15.539
					c3.675,3.678,9.643,3.678,13.318,0c14.207-14.205,33.126-22.029,53.278-22.029s39.072,7.823,53.278,22.029
					c1.838,1.839,4.249,2.759,6.659,2.759c1.541,0,3.08-0.38,4.472-1.132l0.001,0.003c0,0,6.634-3.02,7.112-10.586
					c-0.85,0.287-1.6,0.601-2.276,0.93C1600.332,1328.817,1599.457,1326.95,1597.966,1325.46z"/>
				
					<linearGradient id="SVGID_00000054227706326263980630000005565267635414451360_" gradientUnits="userSpaceOnUse" x1="1541.8383" y1="1227.6733" x2="1527.5457" y2="1431.8521">
					<stop  offset="0" style="stop-color:#96888E"/>
					<stop  offset="1" style="stop-color:#706369"/>
				</linearGradient>
				<path style="fill:url(#SVGID_00000054227706326263980630000005565267635414451360_);" d="M1571.328,1352.099
					c-22.034-22.032-56.587-24.52-78.621-2.488c-3.679,3.678-4.975,12.129-1.296,15.807c3.675,3.679,9.643,3.678,13.318,0
					c14.691-14.689,38.59-14.689,53.28,0c1.838,1.839,4.249,2.758,6.659,2.758c2.303,0,4.602-0.85,6.406-2.53
					c0.001,0.003,0.002,0.006,0.003,0.009c0,0,4.607-3.634,5.269-10.111c-0.882,1.112-1.634,2.063-2.275,2.892
					C1573.994,1356.136,1573.086,1353.856,1571.328,1352.099z"/>
				
					<linearGradient id="SVGID_00000082363111372799486200000009054632632177744040_" gradientUnits="userSpaceOnUse" x1="1538.1173" y1="1227.4128" x2="1523.8247" y2="1431.5912">
					<stop  offset="0" style="stop-color:#96888E"/>
					<stop  offset="1" style="stop-color:#706369"/>
				</linearGradient>
				<path style="fill:url(#SVGID_00000082363111372799486200000009054632632177744040_);" d="M1627.34,1304.958
					c-0.124-2.233-1.028-4.431-2.734-6.137c-24.867-24.868-57.978-38.563-93.236-38.563c-35.255,0-66.781,10.825-91.646,35.691
					c-3.679,3.678-5.269,12.513-1.59,16.191c3.675,3.679,9.643,3.678,13.318,0c21.311-21.31,49.693-33.046,79.918-33.046
					c30.227,0,58.609,11.736,79.918,33.045c1.838,1.839,4.249,2.759,6.659,2.759c1.393,0,2.784-0.318,4.067-0.933l0.002,0.01
					c0,0,0.078-0.028,0.219-0.089c1.09-0.474,5.928-2.94,7.124-9.797C1628.644,1304.407,1627.971,1304.696,1627.34,1304.958z"/>
				
					<linearGradient id="SVGID_00000037663152408292003730000004127369772663766943_" gradientUnits="userSpaceOnUse" x1="1543.9093" y1="1227.8188" x2="1529.6167" y2="1431.9969">
					<stop  offset="0" style="stop-color:#96888E"/>
					<stop  offset="1" style="stop-color:#706369"/>
				</linearGradient>
				<path style="fill:url(#SVGID_00000037663152408292003730000004127369772663766943_);" d="M1550.168,1390.911
					c-0.275-4.601-2.194-8.888-5.479-12.172c-3.557-3.558-8.289-5.518-13.32-5.518c-5.031,0-9.265,0.375-12.821,3.932
					c-3.558,3.558-6.016,9.873-6.016,14.905s1.959,9.763,5.517,13.319c3.558,3.558,8.341,5.518,13.372,5.518
					c4.746,0,8.986-1.746,12.754-4.93v0.002c0,0,8.641-6.816,8.337-17.885C1551.672,1388.969,1550.859,1389.923,1550.168,1390.911z"
					/>
			</g>
			<g>
				<g>
					
						<linearGradient id="SVGID_00000026870688340354871990000000960047774088796060_" gradientUnits="userSpaceOnUse" x1="1482.92" y1="1197.9937" x2="1593.3494" y2="1424.1958">
						<stop  offset="0" style="stop-color:#D3C5CB"/>
						<stop  offset="1" style="stop-color:#ADA0A6"/>
					</linearGradient>
					<path style="fill:url(#SVGID_00000026870688340354871990000000960047774088796060_);" d="M1620.207,1311.284
						c-2.41,0-4.822-0.919-6.659-2.759c-21.309-21.31-49.691-33.045-79.918-33.045c-30.225,0-58.607,11.736-79.918,33.046
						c-3.675,3.677-9.643,3.679-13.318,0c-3.679-3.678-3.679-9.641,0-13.32c24.865-24.866,57.982-38.563,93.236-38.563
						c0.002,0-0.002,0,0,0c35.258,0,68.37,13.695,93.236,38.563c3.679,3.678,3.679,9.641,0,13.319
						C1625.028,1310.364,1622.616,1311.284,1620.207,1311.284z"/>
				</g>
				<g>
					
						<linearGradient id="SVGID_00000134248740727680350080000010161865653755428767_" gradientUnits="userSpaceOnUse" x1="1472.4181" y1="1203.1208" x2="1582.8474" y2="1429.3231">
						<stop  offset="0" style="stop-color:#D3C5CB"/>
						<stop  offset="1" style="stop-color:#ADA0A6"/>
					</linearGradient>
					<path style="fill:url(#SVGID_00000134248740727680350080000010161865653755428767_);" d="M1593.566,1337.923
						c-2.41,0-4.821-0.919-6.659-2.759c-14.207-14.205-33.126-22.029-53.278-22.029c-20.152,0-39.072,7.823-53.278,22.029
						c-3.675,3.678-9.643,3.679-13.318,0.001c-3.679-3.678-3.679-9.642,0-13.32c17.762-17.763,41.413-27.547,66.596-27.547
						c25.183,0,48.834,9.783,66.596,27.547c3.679,3.678,3.679,9.641,0,13.32C1598.388,1337.003,1595.976,1337.923,1593.566,1337.923
						z"/>
				</g>
				<g>
					
						<linearGradient id="SVGID_00000061450005200549169460000015900852014529259436_" gradientUnits="userSpaceOnUse" x1="1461.9161" y1="1208.2476" x2="1572.3456" y2="1434.45">
						<stop  offset="0" style="stop-color:#D3C5CB"/>
						<stop  offset="1" style="stop-color:#ADA0A6"/>
					</linearGradient>
					<path style="fill:url(#SVGID_00000061450005200549169460000015900852014529259436_);" d="M1566.928,1364.562
						c-2.41,0-4.821-0.919-6.659-2.758c-14.69-14.689-38.59-14.689-53.28,0c-3.675,3.677-9.643,3.679-13.318,0
						c-3.679-3.678-3.679-9.641,0-13.319c22.034-22.032,57.883-22.032,79.917,0c3.679,3.678,3.679,9.641,0,13.319
						C1571.75,1363.642,1569.338,1364.562,1566.928,1364.562z"/>
				</g>
				<g>
					
						<linearGradient id="SVGID_00000021803985017954671830000014172769511983891092_" gradientUnits="userSpaceOnUse" x1="1448.7882" y1="1214.6561" x2="1559.2178" y2="1440.8588">
						<stop  offset="0" style="stop-color:#D3C5CB"/>
						<stop  offset="1" style="stop-color:#ADA0A6"/>
					</linearGradient>
					<path style="fill:url(#SVGID_00000021803985017954671830000014172769511983891092_);" d="M1533.629,1407.28
						c-5.031,0-9.762-1.96-13.32-5.518c-3.558-3.556-5.517-8.287-5.517-13.319c0-5.032,1.961-9.763,5.519-13.32
						c3.556-3.556,8.287-5.516,13.318-5.516s9.762,1.96,13.32,5.518c3.556,3.556,5.517,8.286,5.517,13.319
						c0,5.032-1.959,9.763-5.519,13.321C1543.391,1405.319,1538.66,1407.28,1533.629,1407.28z"/>
				</g>
			</g>
		</g>
		<g>
			<g>
				
					<linearGradient id="SVGID_00000060753427754432178450000016358985331355495857_" gradientUnits="userSpaceOnUse" x1="796.8048" y1="1375.6538" x2="768.8446" y2="1492.2537">
					<stop  offset="0" style="stop-color:#96888E"/>
					<stop  offset="1" style="stop-color:#706369"/>
				</linearGradient>
				
					<ellipse style="fill:url(#SVGID_00000060753427754432178450000016358985331355495857_);" cx="778.902" cy="1450.312" rx="204.814" ry="44.374"/>
				
					<linearGradient id="SVGID_00000050630040894947680150000008881470070119177121_" gradientUnits="userSpaceOnUse" x1="805.6788" y1="1380.0845" x2="778.0127" y2="1495.4578">
					<stop  offset="0" style="stop-color:#96888E"/>
					<stop  offset="1" style="stop-color:#706369"/>
				</linearGradient>
				<path style="fill:url(#SVGID_00000050630040894947680150000008881470070119177121_);" d="M574.26,1450.312
					c0,0-9.526,47.723-9.526,48.141c0,0.419,427.138,0,427.138,0l-8.002-48.141H574.26z"/>
			</g>
			
				<linearGradient id="SVGID_00000018213437698232483650000016166847955570699685_" gradientUnits="userSpaceOnUse" x1="684.1481" y1="1101.0149" x2="924.2169" y2="2114.9016">
				<stop  offset="0" style="stop-color:#5D535A"/>
				<stop  offset="1" style="stop-color:#464143"/>
			</linearGradient>
			
				<ellipse style="fill:url(#SVGID_00000018213437698232483650000016166847955570699685_);" cx="778.303" cy="1498.663" rx="213.509" ry="46.257"/>
			
				<linearGradient id="SVGID_00000020363572788214048330000011926727810435214489_" gradientUnits="userSpaceOnUse" x1="680.5897" y1="1822.7271" x2="818.6885" y2="2087.8533">
				<stop  offset="0" style="stop-color:#96888E"/>
				<stop  offset="1" style="stop-color:#706369"/>
			</linearGradient>
			
				<ellipse style="fill:url(#SVGID_00000020363572788214048330000011926727810435214489_);" cx="778.303" cy="2010.321" rx="142.713" ry="46.571"/>
			
				<linearGradient id="SVGID_00000169527890635602889990000004145783178403439039_" gradientUnits="userSpaceOnUse" x1="689.0172" y1="1818.3374" x2="827.1163" y2="2083.4641">
				<stop  offset="0" style="stop-color:#96888E"/>
				<stop  offset="1" style="stop-color:#706369"/>
			</linearGradient>
			
				<rect x="635.591" y="1970.735" style="fill:url(#SVGID_00000169527890635602889990000004145783178403439039_);" width="285.425" height="38.033"/>
			<g>
				
					<linearGradient id="SVGID_00000043446160701645568930000011926722015495340197_" gradientUnits="userSpaceOnUse" x1="515.0235" y1="1489.9886" x2="922.9096" y2="2240.4995">
					<stop  offset="0" style="stop-color:#D3C5CB"/>
					<stop  offset="1" style="stop-color:#ADA0A6"/>
				</linearGradient>
				
					<ellipse style="fill:url(#SVGID_00000043446160701645568930000011926722015495340197_);" cx="778.303" cy="1974.424" rx="153.937" ry="50.234"/>
				
					<linearGradient id="SVGID_00000105425146630479507720000004519501424869241497_" gradientUnits="userSpaceOnUse" x1="714.5435" y1="1381.5536" x2="1122.4291" y2="2132.0637">
					<stop  offset="0" style="stop-color:#D3C5CB"/>
					<stop  offset="1" style="stop-color:#ADA0A6"/>
				</linearGradient>
				
					<ellipse style="fill:url(#SVGID_00000105425146630479507720000004519501424869241497_);" cx="778.303" cy="1498.872" rx="193.063" ry="39.35"/>
				
					<linearGradient id="SVGID_00000143604100952131612120000007602543094733781392_" gradientUnits="userSpaceOnUse" x1="629.932" y1="1427.5377" x2="1037.8187" y2="2178.0498">
					<stop  offset="0" style="stop-color:#D3C5CB"/>
					<stop  offset="1" style="stop-color:#ADA0A6"/>
				</linearGradient>
				<polygon style="fill:url(#SVGID_00000143604100952131612120000007602543094733781392_);" points="585.12,1498.872 
					624.366,1974.424 932.241,1974.424 971.487,1498.872 				"/>
			</g>
			<g style="opacity:0.25;">
				
					<linearGradient id="SVGID_00000102509476377909970250000004703610557474898351_" gradientUnits="userSpaceOnUse" x1="1118.8315" y1="1415.7494" x2="586.4367" y2="1938.2551">
					<stop  offset="0" style="stop-color:#D3C5CB"/>
					<stop  offset="1" style="stop-color:#ADA0A6"/>
				</linearGradient>
				<path style="fill:url(#SVGID_00000102509476377909970250000004703610557474898351_);" d="M971.366,1498.872
					c0-21.733-86.437-39.35-193.063-39.35c-37.017,0-71.598,2.124-100.976,5.806c-4.564,15.205-7.008,31.34-6.266,48.196
					c4.256,96.648,109.238,128.923,145.555,220.194c22.137,55.635,22.991,143.837-60.474,290.423
					c7.237,0.34,14.636,0.518,22.162,0.518c85.017,0,153.937-22.491,153.937-50.234l39.246-475.552H971.366z"/>
			</g>
			<g>
				
					<linearGradient id="SVGID_00000108276993492368616280000011285787407472199577_" gradientUnits="userSpaceOnUse" x1="591.9368" y1="1741.4622" x2="964.6804" y2="1741.4622">
					<stop  offset="0" style="stop-color:#F3E9E1"/>
					<stop  offset="1" style="stop-color:#E1D1C5"/>
				</linearGradient>
				<path style="fill:url(#SVGID_00000108276993492368616280000011285787407472199577_);" d="M617.57,1878.786
					c81.052,7.754,239.645,7.791,321.451,0.113c1.98-0.186,3.552-1.909,3.732-4.084l21.91-265.49
					c0.204-2.471-1.446-4.657-3.694-4.894c-78.029-8.224-288.661-8.182-365.333,0.126c-2.243,0.243-3.886,2.427-3.682,4.893
					l21.891,265.253C614.024,1876.875,615.592,1878.597,617.57,1878.786z"/>
				<g>
					
						<linearGradient id="SVGID_00000127728516401423735340000017250093805448411819_" gradientUnits="userSpaceOnUse" x1="632.1655" y1="1703.5477" x2="834.9433" y2="1728.0209">
						<stop  offset="0" style="stop-color:#E4D6CA"/>
						<stop  offset="1" style="stop-color:#D4BDAC"/>
					</linearGradient>
					<path style="fill:url(#SVGID_00000127728516401423735340000017250093805448411819_);" d="M941.99,1606.778
						c-5.679,88.995-11.358,177.99-17.037,266.985c-0.297,4.653,3.312,8.507,7.622,8.133c0.081-0.007,0.162-0.014,0.242-0.021
						c3.468-0.302,6.214-3.289,6.477-7.031c6.233-88.934,12.466-177.868,18.699-266.801c0.293-4.184-2.595-7.839-6.472-8.182
						c-0.629-0.056-1.265-0.111-1.907-0.166C945.689,1599.358,942.26,1602.54,941.99,1606.778z"/>
					
						<linearGradient id="SVGID_00000093870928638722166920000007924162816211154093_" gradientUnits="userSpaceOnUse" x1="631.8114" y1="1706.4707" x2="834.5893" y2="1730.944">
						<stop  offset="0" style="stop-color:#E4D6CA"/>
						<stop  offset="1" style="stop-color:#D4BDAC"/>
					</linearGradient>
					<path style="fill:url(#SVGID_00000093870928638722166920000007924162816211154093_);" d="M915.593,1605.035
						c-4.824,90.19-9.648,180.38-14.471,270.569c-0.244,4.557,3.253,8.323,7.478,8.059c0.067-0.004,0.133-0.008,0.2-0.012
						c3.567-0.223,6.416-3.283,6.646-7.129c5.386-90.15,10.773-180.299,16.159-270.449c0.253-4.238-2.746-7.885-6.677-8.112
						c-0.629-0.036-1.261-0.073-1.897-0.109C919.142,1597.633,915.817,1600.842,915.593,1605.035z"/>
					
						<linearGradient id="SVGID_00000154416880570474108780000001429609679165100715_" gradientUnits="userSpaceOnUse" x1="631.4523" y1="1709.4478" x2="834.2301" y2="1733.9209">
						<stop  offset="0" style="stop-color:#E4D6CA"/>
						<stop  offset="1" style="stop-color:#D4BDAC"/>
					</linearGradient>
					<path style="fill:url(#SVGID_00000154416880570474108780000001429609679165100715_);" d="M889.176,1603.866
						c-3.93,91.032-7.86,182.064-11.79,273.097c-0.193,4.477,3.217,8.171,7.368,7.981c0.059-0.003,0.119-0.005,0.178-0.008
						c3.643-0.167,6.571-3.292,6.765-7.22l13.494-273.013c0.21-4.255-2.847-7.873-6.794-8.033c-0.628-0.026-1.258-0.051-1.891-0.076
						C892.629,1596.439,889.357,1599.684,889.176,1603.866z"/>
					
						<linearGradient id="SVGID_00000049927862327903395410000001679693363106691755_" gradientUnits="userSpaceOnUse" x1="631.0916" y1="1712.4353" x2="833.8694" y2="1736.9084">
						<stop  offset="0" style="stop-color:#E4D6CA"/>
						<stop  offset="1" style="stop-color:#D4BDAC"/>
					</linearGradient>
					<path style="fill:url(#SVGID_00000049927862327903395410000001679693363106691755_);" d="M862.757,1603.064
						c-3.012,91.637-6.025,183.274-9.037,274.911c-0.145,4.413,3.202,8.035,7.293,7.899c0.054-0.002,0.108-0.004,0.163-0.005
						c3.705-0.123,6.69-3.313,6.847-7.307c3.584-91.617,7.168-183.234,10.752-274.852c0.167-4.259-2.931-7.839-6.881-7.952
						c-0.625-0.018-1.25-0.036-1.878-0.053C866.134,1595.596,862.894,1598.879,862.757,1603.064z"/>
					
						<linearGradient id="SVGID_00000005965923647751882080000010591956634196190124_" gradientUnits="userSpaceOnUse" x1="630.7314" y1="1715.4219" x2="833.5089" y2="1739.895">
						<stop  offset="0" style="stop-color:#E4D6CA"/>
						<stop  offset="1" style="stop-color:#D4BDAC"/>
					</linearGradient>
					<path style="fill:url(#SVGID_00000005965923647751882080000010591956634196190124_);" d="M836.34,1602.538l-6.237,276.172
						c-0.098,4.351,3.191,7.907,7.225,7.817c0.05-0.001,0.1-0.002,0.151-0.003c3.763-0.084,6.803-3.336,6.92-7.394
						c2.653-92.044,5.306-184.089,7.959-276.133c0.123-4.252-2.999-7.793-6.941-7.869c-0.626-0.012-1.253-0.024-1.881-0.036
						C839.649,1595.02,836.435,1598.346,836.34,1602.538z"/>
					
						<linearGradient id="SVGID_00000134930930208614134140000002405875761401323711_" gradientUnits="userSpaceOnUse" x1="630.3717" y1="1718.4036" x2="833.1497" y2="1742.8767">
						<stop  offset="0" style="stop-color:#E4D6CA"/>
						<stop  offset="1" style="stop-color:#D4BDAC"/>
					</linearGradient>
					<path style="fill:url(#SVGID_00000134930930208614134140000002405875761401323711_);" d="M809.927,1602.24
						c-1.136,92.323-2.271,184.645-3.407,276.968c-0.053,4.29,3.184,7.786,7.161,7.734c0.048-0.001,0.095-0.001,0.143-0.002
						c3.82-0.05,6.911-3.361,6.988-7.48c1.711-92.315,3.422-184.63,5.134-276.946c0.079-4.244-3.065-7.742-7-7.786
						c-0.623-0.007-1.246-0.014-1.869-0.02C813.177,1594.667,809.979,1598.034,809.927,1602.24z"/>
					
						<linearGradient id="SVGID_00000140714304813713533130000018172709679509500607_" gradientUnits="userSpaceOnUse" x1="630.0125" y1="1721.3788" x2="832.7903" y2="1745.8519">
						<stop  offset="0" style="stop-color:#E4D6CA"/>
						<stop  offset="1" style="stop-color:#D4BDAC"/>
					</linearGradient>
					<path style="fill:url(#SVGID_00000140714304813713533130000018172709679509500607_);" d="M783.517,1602.143
						c-0.187,92.45-0.374,184.9-0.561,277.349c-0.009,4.229,3.173,7.665,7.094,7.649c0.052,0,0.104,0,0.156-0.001
						c3.869-0.016,7.005-3.391,7.04-7.565c0.763-92.447,1.527-184.895,2.29-277.342c0.035-4.232-3.128-7.687-7.052-7.701
						c-0.622-0.002-1.245-0.005-1.868-0.006C786.705,1594.514,783.525,1597.925,783.517,1602.143z"/>
					
						<linearGradient id="SVGID_00000176729026666516049860000015761687560318708400_" gradientUnits="userSpaceOnUse" x1="629.6542" y1="1724.3467" x2="832.4317" y2="1748.8198">
						<stop  offset="0" style="stop-color:#E4D6CA"/>
						<stop  offset="1" style="stop-color:#D4BDAC"/>
					</linearGradient>
					<path style="fill:url(#SVGID_00000176729026666516049860000015761687560318708400_);" d="M757.108,1602.239
						c0.763,92.444,1.526,184.889,2.29,277.333c0.034,4.172,3.169,7.547,7.037,7.564c0.052,0,0.104,0,0.156,0.001
						c3.922,0.018,7.105-3.419,7.096-7.649c-0.187-92.447-0.374-184.894-0.561-277.341c-0.009-4.219-3.19-7.63-7.101-7.617
						c-0.623,0.002-1.245,0.005-1.868,0.007C760.235,1594.553,757.073,1598.007,757.108,1602.239z"/>
					
						<linearGradient id="SVGID_00000085967898773610153000000012836725424695573416_" gradientUnits="userSpaceOnUse" x1="629.2966" y1="1727.3085" x2="832.0742" y2="1751.7816">
						<stop  offset="0" style="stop-color:#E4D6CA"/>
						<stop  offset="1" style="stop-color:#D4BDAC"/>
					</linearGradient>
					<path style="fill:url(#SVGID_00000085967898773610153000000012836725424695573416_);" d="M730.698,1602.527
						c1.711,92.306,3.422,184.612,5.133,276.918c0.076,4.119,3.166,7.429,6.985,7.48c0.047,0.001,0.095,0.001,0.143,0.002
						c3.978,0.053,7.217-3.443,7.164-7.734c-1.136-92.314-2.271-184.627-3.407-276.941c-0.052-4.206-3.251-7.574-7.151-7.532
						c-0.624,0.007-1.247,0.014-1.869,0.021C733.762,1594.786,730.62,1598.283,730.698,1602.527z"/>
					
						<linearGradient id="SVGID_00000131331795723082604910000009449337840763188130_" gradientUnits="userSpaceOnUse" x1="628.94" y1="1730.2655" x2="831.7177" y2="1754.7386">
						<stop  offset="0" style="stop-color:#E4D6CA"/>
						<stop  offset="1" style="stop-color:#D4BDAC"/>
					</linearGradient>
					<path style="fill:url(#SVGID_00000131331795723082604910000009449337840763188130_);" d="M704.286,1603.019
						c2.653,92.028,5.305,184.057,7.958,276.085c0.117,4.057,3.156,7.307,6.917,7.394c0.05,0.001,0.101,0.002,0.151,0.004
						c4.035,0.092,7.326-3.465,7.228-7.817c-2.079-92.042-4.157-184.083-6.236-276.125c-0.095-4.193-3.31-7.52-7.198-7.446
						c-0.628,0.012-1.255,0.024-1.881,0.036C707.283,1595.227,704.164,1598.768,704.286,1603.019z"/>
					
						<linearGradient id="SVGID_00000167381564944823831350000011570911559969001391_" gradientUnits="userSpaceOnUse" x1="628.5833" y1="1733.2208" x2="831.3608" y2="1757.694">
						<stop  offset="0" style="stop-color:#E4D6CA"/>
						<stop  offset="1" style="stop-color:#D4BDAC"/>
					</linearGradient>
					<path style="fill:url(#SVGID_00000167381564944823831350000011570911559969001391_);" d="M677.871,1603.743
						c3.583,91.594,7.166,183.187,10.749,274.781c0.156,3.993,3.14,7.182,6.843,7.307c0.054,0.002,0.109,0.004,0.163,0.005
						c4.093,0.137,7.442-3.485,7.297-7.899c-3.012-91.613-6.023-183.227-9.035-274.84c-0.138-4.187-3.379-7.469-7.261-7.359
						c-0.627,0.018-1.253,0.036-1.877,0.054C680.8,1595.906,677.704,1599.485,677.871,1603.743z"/>
					
						<linearGradient id="SVGID_00000119114387460860518810000010203970440287729061_" gradientUnits="userSpaceOnUse" x1="628.2264" y1="1736.178" x2="831.0037" y2="1760.651">
						<stop  offset="0" style="stop-color:#E4D6CA"/>
						<stop  offset="1" style="stop-color:#D4BDAC"/>
					</linearGradient>
					<path style="fill:url(#SVGID_00000119114387460860518810000010203970440287729061_);" d="M651.454,1604.75
						c4.496,90.971,8.993,181.943,13.489,272.914c0.194,3.926,3.119,7.05,6.761,7.219c0.059,0.003,0.119,0.006,0.178,0.008
						c4.153,0.193,7.566-3.502,7.373-7.981c-3.929-91-7.857-181.999-11.786-272.999c-0.181-4.183-3.455-7.429-7.334-7.272
						c-0.632,0.026-1.262,0.051-1.89,0.077C654.299,1596.879,651.244,1600.496,651.454,1604.75z"/>
					
						<linearGradient id="SVGID_00000057858530432548082860000018371319837724844455_" gradientUnits="userSpaceOnUse" x1="627.8677" y1="1739.1497" x2="830.6453" y2="1763.6228">
						<stop  offset="0" style="stop-color:#E4D6CA"/>
						<stop  offset="1" style="stop-color:#D4BDAC"/>
					</linearGradient>
					<path style="fill:url(#SVGID_00000057858530432548082860000018371319837724844455_);" d="M625.043,1606.14
						c5.384,90.104,10.767,180.207,16.151,270.311c0.23,3.844,3.075,6.902,6.64,7.129c0.067,0.004,0.133,0.008,0.2,0.013
						c4.227,0.268,7.728-3.499,7.484-8.059c-4.821-90.144-9.643-180.288-14.464-270.433c-0.224-4.195-3.553-7.405-7.443-7.182
						c-0.636,0.036-1.268,0.073-1.897,0.11C627.786,1598.259,624.79,1601.905,625.043,1606.14z"/>
					
						<linearGradient id="SVGID_00000042724447012819866910000016877446174900785312_" gradientUnits="userSpaceOnUse" x1="627.5029" y1="1742.1719" x2="830.2803" y2="1766.6449">
						<stop  offset="0" style="stop-color:#E4D6CA"/>
						<stop  offset="1" style="stop-color:#D4BDAC"/>
					</linearGradient>
					<path style="fill:url(#SVGID_00000042724447012819866910000016877446174900785312_);" d="M598.658,1608.144
						c6.228,88.866,12.457,177.733,18.685,266.599c0.262,3.739,3.002,6.723,6.466,7.031c0.081,0.007,0.162,0.014,0.244,0.022
						c4.313,0.381,7.928-3.475,7.631-8.132c-5.675-88.929-11.35-177.858-17.025-266.786c-0.271-4.243-3.707-7.426-7.636-7.083
						c-0.642,0.056-1.277,0.113-1.906,0.17C601.246,1600.313,598.365,1603.965,598.658,1608.144z"/>
				</g>
			</g>
			<path style="opacity:0.3;fill:#FFFFFF;" d="M766.435,1887.136c0.052,0,0.104,0,0.156,0.001c2.089,0.009,3.963-0.967,5.262-2.516
				c4.311,0.011,8.625,0.012,12.936,0.003c1.299,1.549,3.172,2.527,5.261,2.518c0.052,0,0.104,0,0.156-0.001
				c2.087-0.009,3.955-1,5.243-2.56c4.328-0.026,8.646-0.061,12.948-0.107c1.311,1.535,3.193,2.495,5.285,2.468
				c0.048,0,0.095-0.001,0.143-0.002c1.049-0.014,2.042-0.276,2.934-0.732c19.414-68.464,13.949-117.076-0.142-152.49
				c-23.419-58.856-75.39-93.181-110.493-136.055c-0.353,0.422-0.666,0.883-0.926,1.381c-4.173,0.088-8.302,0.184-12.381,0.288
				c-1.286-2.219-3.591-3.669-6.189-3.595c-0.627,0.018-1.253,0.036-1.877,0.054c-2.598,0.076-4.82,1.656-5.993,3.937
				c-4.207,0.13-8.346,0.269-12.407,0.417c-1.31-2.194-3.624-3.61-6.213-3.506c-0.632,0.026-1.262,0.051-1.89,0.077
				c-2.588,0.107-4.786,1.705-5.937,3.989c-4.26,0.186-8.414,0.382-12.445,0.59c-1.344-2.158-3.671-3.525-6.251-3.377
				c-0.636,0.036-1.268,0.073-1.897,0.11c-2.574,0.152-4.741,1.774-5.862,4.063c-4.363,0.273-8.539,0.562-12.509,0.865
				c-1.401-2.099-3.751-3.387-6.32-3.162c-0.642,0.056-1.277,0.113-1.906,0.17c-2.551,0.231-4.666,1.901-5.732,4.206
				c-1.283,0.128-2.533,0.257-3.749,0.389c-2.243,0.243-3.886,2.427-3.682,4.893l21.891,265.253
				c0.179,2.172,1.748,3.894,3.725,4.083c0.426,0.041,0.858,0.081,1.289,0.122c1.18,1.604,2.941,2.687,4.951,2.865
				c0.081,0.007,0.162,0.014,0.244,0.022c2.057,0.182,3.953-0.601,5.344-1.974c4.3,0.344,8.769,0.669,13.387,0.976
				c1.213,1.596,3.013,2.653,5.049,2.782c0.067,0.004,0.133,0.008,0.2,0.013c2.074,0.131,3.972-0.71,5.34-2.138
				c4.299,0.249,8.708,0.482,13.21,0.702c1.237,1.593,3.064,2.631,5.121,2.727c0.059,0.003,0.119,0.006,0.178,0.008
				c2.082,0.097,3.978-0.785,5.327-2.252c4.294,0.182,8.661,0.352,13.092,0.509c1.252,1.587,3.094,2.613,5.161,2.682
				c0.054,0.002,0.109,0.004,0.163,0.005c2.089,0.07,3.982-0.843,5.317-2.338c4.294,0.13,8.638,0.249,13.023,0.357
				c1.266,1.58,3.119,2.595,5.196,2.642c0.05,0.001,0.101,0.002,0.151,0.004c2.092,0.048,3.979-0.891,5.303-2.408
				c4.296,0.087,8.623,0.163,12.975,0.228c1.279,1.572,3.142,2.576,5.226,2.604c0.048,0.001,0.095,0.001,0.143,0.002
				c2.092,0.028,3.974-0.932,5.286-2.466c4.301,0.048,8.619,0.085,12.948,0.113C762.481,1886.135,764.348,1887.127,766.435,1887.136
				z"/>
		</g>
	</g>
</g>
</svg>
