<?xml version="1.0" encoding="utf-8"?>
<!-- Generator: Adobe Illustrator 27.5.0, SVG Export Plug-In . SVG Version: 6.00 Build 0)  -->
<svg version="1.1" xmlns="http://www.w3.org/2000/svg" xmlns:xlink="http://www.w3.org/1999/xlink" x="0px" y="0px"
	 viewBox="0 0 2500 2500" style="enable-background:new 0 0 2500 2500;" xml:space="preserve">
<g id="Background">
	<rect style="fill:#FFFFFF;" width="2500" height="2500"/>
</g>
<g id="Illustration">
	<g id="Chatbot_self_learning_1_">
		<ellipse style="fill:#F2E6DC;" cx="1250" cy="1250" rx="914.675" ry="915"/>
		<g>
			<path style="fill:#D3BBA3;" d="M1716.054,2089.747c-32.569,0-64.548-11.813-95.376-35.291c-0.97-0.738-1.157-2.123-0.42-3.093
				c0.739-0.969,2.125-1.159,3.092-0.418c38.007,28.942,77.713,39.688,118.034,31.947
				c119.767-23.007,184.261-207.756,190.136-325.372c6.181-123.664-13.174-213.456-44.138-310.229
				c-0.373-1.161,0.267-2.403,1.429-2.775c1.168-0.37,2.403,0.271,2.774,1.43c31.11,97.233,50.558,187.466,44.344,311.794
				c-5.946,119.013-71.623,306.033-193.713,329.486C1733.463,2088.908,1724.737,2089.747,1716.054,2089.747z"/>
			<g>
				<path style="fill:#E6D0BE;" d="M2018.464,1520.492c-21.133,39.624-59.583,48.772-77.338,35.319
					c-17.755-13.454-19.729-53.344,13.043-84.039c32.623-30.555,85.124-45.601,85.124-45.601S2041.061,1478.122,2018.464,1520.492z"
					/>
				<path style="fill:#D3BBA3;" d="M1923.336,1580.862c-0.463,0-0.931-0.146-1.33-0.447c-0.972-0.736-1.164-2.12-0.427-3.091
					l92.814-122.572c0.733-0.972,2.116-1.166,3.09-0.428c0.972,0.736,1.164,2.121,0.427,3.092l-92.814,122.572
					C1924.663,1580.56,1924.004,1580.862,1923.336,1580.862z"/>
			</g>
			<g>
				<path style="fill:#E6D0BE;" d="M1834.507,1525.04c47.48,27.714,56.878,75.204,39.594,96.309
					c-17.283,21.104-66.167,21.662-102.183-19.883c-35.852-41.356-51.808-106.318-51.808-106.318
					S1783.736,1495.405,1834.507,1525.04z"/>
				<path style="fill:#D3BBA3;" d="M1933.083,1672.514c-0.491,0-0.987-0.164-1.396-0.5l-177.466-145.44
					c-0.942-0.773-1.08-2.163-0.308-3.105c0.769-0.941,2.161-1.082,3.105-0.308l177.466,145.44c0.942,0.773,1.08,2.163,0.308,3.105
					C1934.357,1672.238,1933.723,1672.514,1933.083,1672.514z"/>
			</g>
			<g>
				<path style="fill:#E6D0BE;" d="M1861.961,1354.3c30.239,27.186,29.935,62.989,14.258,75.685
					c-15.677,12.696-51.166,5.775-71.031-29.71c-19.775-35.324-21.605-84.764-21.605-84.764S1829.627,1325.23,1861.961,1354.3z"/>
				<path style="fill:#D3BBA3;" d="M1889.486,1448.825c-0.642,0-1.28-0.279-1.715-0.816l-84.633-104.262
					c-0.767-0.946-0.623-2.336,0.323-3.104c0.944-0.769,2.338-0.622,3.103,0.322l84.633,104.262
					c0.767,0.946,0.623,2.336-0.323,3.104C1890.467,1448.663,1889.973,1448.825,1889.486,1448.825z"/>
			</g>
			<g>
				<path style="fill:#E6D0BE;" d="M2064.396,1761.526c-44.784,31.89-91.92,20.921-104.039-3.52
					c-12.119-24.441,7.484-69.242,60.154-84.989c52.43-15.676,118.183-3.499,118.183-3.499S2112.284,1727.425,2064.396,1761.526z"/>
				<path style="fill:#D3BBA3;" d="M1932.807,1773.349c-0.813,0-1.593-0.449-1.978-1.226c-0.543-1.091-0.097-2.416,0.996-2.958
					l164.202-81.474c1.09-0.541,2.414-0.096,2.957,0.997c0.543,1.091,0.097,2.416-0.996,2.958l-164.202,81.474
					C1933.471,1773.276,1933.137,1773.349,1932.807,1773.349z"/>
			</g>
			<g>
				<path style="fill:#E6D0BE;" d="M1851.941,1751.8c41.862,16.224,55.563,53.31,44.346,72.559
					c-11.218,19.249-50.568,26.005-84.968-2.852c-34.244-28.726-55.485-79.056-55.485-79.056S1807.177,1734.451,1851.941,1751.8z"/>
				<path style="fill:#D3BBA3;" d="M1921.092,1841.486c-0.377,0-0.761-0.097-1.11-0.301l-132.794-77.442
					c-1.052-0.614-1.407-1.965-0.795-3.018c0.619-1.052,1.97-1.407,3.019-0.794l132.794,77.442c1.052,0.614,1.407,1.965,0.795,3.018
					C1922.59,1841.094,1921.851,1841.486,1921.092,1841.486z"/>
			</g>
			<g>
				<path style="fill:#E6D0BE;" d="M1786.631,1981.49c6.367,44.456-19.242,74.572-41.512,74.218s-47.434-31.362-39.136-75.499
					c8.26-43.936,41.717-87.115,41.717-87.115S1779.823,1933.952,1786.631,1981.49z"/>
				<path style="fill:#D3BBA3;" d="M1744.268,2086.858c-0.011,0-0.024,0-0.035,0c-1.22-0.019-2.192-1.023-2.172-2.242l2.442-153.748
					c0.019-1.217,0.935-2.182,2.241-2.171c1.22,0.019,2.192,1.024,2.172,2.242l-2.442,153.748
					C1746.456,2085.893,1745.471,2086.858,1744.268,2086.858z"/>
			</g>
			<g>
				<path style="fill:#E6D0BE;" d="M1956.956,1980.094c-31.33,32.166-70.806,30.238-84.112,12.369
					c-13.305-17.869-4.094-56.731,35.929-77.078c39.841-20.254,94.453-20.075,94.453-20.075S1990.457,1945.699,1956.956,1980.094z"
					/>
				<path style="fill:#D3BBA3;" d="M1849.4,2011.652c-0.674,0-1.338-0.307-1.771-0.888c-0.729-0.977-0.526-2.36,0.45-3.088
					l123.273-91.855c0.978-0.729,2.36-0.526,3.088,0.45c0.728,0.977,0.526,2.36-0.45,3.088l-123.273,91.855
					C1850.32,2011.51,1849.859,2011.652,1849.4,2011.652z"/>
			</g>
		</g>
		<g>
			<g>
				<path style="fill:#E6D0BE;" d="M887.033,608.398c-14.249,0-24.814,11.066-24.814,25.319v1354.173
					c0,9.436,6.661,16.158,16.093,16.158h795.99c14.249,0,25.45-10.627,25.45-24.881V633.717c0-14.254-11.201-25.319-25.45-25.319
					H887.033z"/>
				<g>
					<path style="fill:#363E44;" d="M1695.872,2076.809H866.101c-27.663,0-50.169-22.505-50.169-50.168V563.758
						c0-27.663,22.505-50.17,50.169-50.17h829.771c27.662,0,50.167,22.506,50.167,50.17v1462.882
						C1746.04,2054.304,1723.534,2076.809,1695.872,2076.809z M866.101,518.002c-25.229,0-45.755,20.526-45.755,45.756v1462.882
						c0,25.229,20.526,45.755,45.755,45.755h829.771c25.229,0,45.754-20.526,45.754-45.755V563.758
						c0-25.23-20.525-45.756-45.754-45.756H866.101z"/>
					<path style="fill:#363E44;" d="M1349.312,564.304h-149.875c-1.219,0-2.207-0.988-2.207-2.207c0-1.219,0.988-2.207,2.207-2.207
						h149.875c1.22,0,2.207,0.988,2.207,2.207C1351.519,563.315,1350.532,564.304,1349.312,564.304z"/>
				</g>
			</g>
			<g>
				<g>
					<g>
						<path style="fill:#8B865C;" d="M1597.058,766.075v104.303c0,49.263-40.045,89.199-89.291,89.199l0,0
							c-49.246,0-89.291-39.936-89.291-89.199V766.075H1597.058z"/>
						<g>
							<g>
								<path style="fill:#363E44;" d="M1616.2,876.086h-15.191V811.61h15.191V876.086z M1605.422,871.672h6.364v-55.649h-6.364
									V871.672z"/>
								<path style="fill:#363E44;" d="M1616.2,869.925h-2.207c-0.037,0-0.075,0-0.112,0v-2.207h-2.095v-49.282h2.095v-2.207h2.207
									l0.006,0.112c11.277,1.142,20.117,10.933,20.117,22.8v8.539c0,11.692-8.618,21.01-20.012,22.13V869.925z M1616.2,820.798
									v44.573c8.913-1.1,15.598-8.474,15.598-17.689v-8.539C1631.798,829.753,1624.988,821.976,1616.2,820.798z"/>
							</g>
							<g>
								<path style="fill:#363E44;" d="M1610.041,936.147h-57.628c-1.22,0-2.207-0.988-2.207-2.207s0.987-2.207,2.207-2.207h53.215
									v-54.775c0-1.219,0.987-2.207,2.207-2.207c1.22,0,2.207,0.988,2.207,2.207V936.147z"/>
								
									<ellipse transform="matrix(1 -0.0022 0.0022 1 -2.0447 3.4031)" style="fill:#363E44;" cx="1550.964" cy="934.168" rx="16.097" ry="16.103"/>
							</g>
						</g>
						<g>
							<path style="fill:#363E44;" d="M1555.706,869.674l-117.509,0.657c-11.091,0.062-20.135-8.879-20.203-19.974l-0.063-10.284
								c-0.068-11.105,8.878-20.16,19.979-20.222l117.509-0.657c11.091-0.062,20.135,8.879,20.203,19.974l0.063,10.284
								C1575.753,860.557,1566.806,869.612,1555.706,869.674z"/>
							<path style="fill:#FFFFFF;" d="M1431.368,872.575c-15.044,0-27.332-12.195-27.425-27.257
								c-0.045-7.369,2.767-14.276,7.918-19.489c5.153-5.213,12.025-8.106,19.354-8.147l107.25-0.599c0.052,0,0.103,0,0.155,0
								c15.044,0,27.333,12.195,27.425,27.257c0.045,7.369-2.767,14.276-7.918,19.489c-5.153,5.213-12.025,8.106-19.355,8.147
								l-107.25,0.599C1431.471,872.575,1431.419,872.575,1431.368,872.575z M1538.62,821.496c-0.043,0-0.086,0-0.129,0
								l-107.25,0.599c-6.151,0.035-11.917,2.462-16.24,6.836s-6.683,10.17-6.644,16.319c0.078,12.678,10.39,22.911,23.012,22.911
								c0.043,0,0.086,0,0.129,0l107.25-0.599l0,0c6.151-0.035,11.917-2.462,16.24-6.836c4.323-4.374,6.683-10.17,6.644-16.319
								C1561.554,831.729,1551.242,821.496,1538.62,821.496z"/>
							<path style="fill:#FFFFFF;" d="M1441.554,861.622c-0.155,0-0.312-0.016-0.47-0.051c-0.823-0.179-1.64-0.422-2.429-0.723
								c-1.138-0.435-1.707-1.711-1.271-2.85c0.435-1.138,1.707-1.703,2.849-1.273c0.58,0.222,1.181,0.401,1.786,0.533
								c1.192,0.259,1.948,1.434,1.69,2.625C1443.485,860.917,1442.57,861.622,1441.554,861.622z M1452.175,859.936
								c-0.758,0-1.496-0.39-1.905-1.09c-0.616-1.052-0.265-2.403,0.786-3.02c0.532-0.313,1.05-0.67,1.536-1.063
								c0.95-0.769,2.338-0.618,3.103,0.328c0.767,0.948,0.621,2.337-0.328,3.103c-0.657,0.532-1.358,1.017-2.08,1.441
								C1452.938,859.839,1452.554,859.936,1452.175,859.936z M1431.48,853.765c-0.81,0-1.59-0.447-1.976-1.223
								c-0.379-0.76-0.7-1.551-0.957-2.351c-0.369-1.162,0.271-2.403,1.433-2.772c1.168-0.374,2.403,0.271,2.773,1.432
								c0.185,0.586,0.422,1.166,0.7,1.724c0.543,1.09,0.099,2.415-0.991,2.959C1432.146,853.69,1431.809,853.765,1431.48,853.765z
								 M1459.304,849.339c-0.101,0-0.207-0.006-0.31-0.022c-1.207-0.17-2.047-1.288-1.877-2.494
								c0.084-0.596,0.127-1.199,0.127-1.793l-0.002-0.26c0-1.219,0.987-2.207,2.207-2.207c1.22,0,2.207,0.988,2.207,2.207h-2.207
								l2.207,0.083c0.002,0.976-0.056,1.788-0.168,2.588C1461.332,848.543,1460.385,849.339,1459.304,849.339z M1431.32,840.995
								c-0.313,0-0.631-0.067-0.933-0.208c-1.103-0.516-1.58-1.83-1.065-2.934c0.358-0.761,0.776-1.503,1.243-2.206
								c0.675-1.014,2.041-1.291,3.06-0.612c1.015,0.676,1.289,2.046,0.612,3.06c-0.345,0.518-0.655,1.067-0.916,1.628
								C1432.947,840.525,1432.152,840.995,1431.32,840.995z M1455.345,837.039c-0.58,0-1.157-0.226-1.59-0.678
								c-0.433-0.449-0.903-0.871-1.396-1.252c-0.963-0.745-1.142-2.131-0.396-3.096c0.739-0.962,2.123-1.145,3.095-0.398
								c0.664,0.514,1.297,1.081,1.879,1.687c0.845,0.878,0.817,2.276-0.06,3.119
								C1456.446,836.835,1455.894,837.039,1455.345,837.039z M1441.212,832.909c-0.996,0-1.899-0.678-2.142-1.688
								c-0.287-1.185,0.442-2.377,1.627-2.664c0.819-0.198,1.662-0.335,2.5-0.407c1.194-0.114,2.28,0.797,2.386,2.011
								c0.106,1.214-0.795,2.283-2.011,2.388c-0.616,0.053-1.235,0.153-1.84,0.299
								C1441.559,832.89,1441.384,832.909,1441.212,832.909z"/>
							<path style="fill:#FFFFFF;" d="M1533.105,861.109c-0.155,0-0.312-0.016-0.47-0.051c-0.821-0.178-1.638-0.421-2.429-0.722
								c-1.138-0.434-1.709-1.71-1.276-2.849c0.435-1.138,1.707-1.71,2.849-1.276c0.584,0.223,1.187,0.403,1.791,0.534
								c1.192,0.259,1.948,1.434,1.69,2.625C1535.036,860.404,1534.12,861.109,1533.105,861.109z M1543.725,859.424
								c-0.758,0-1.496-0.39-1.905-1.09c-0.616-1.052-0.265-2.403,0.786-3.02c0.532-0.313,1.05-0.67,1.536-1.064
								c0.95-0.769,2.338-0.619,3.103,0.328c0.767,0.948,0.621,2.337-0.328,3.103c-0.657,0.532-1.358,1.017-2.08,1.441
								C1544.488,859.327,1544.105,859.424,1543.725,859.424z M1523.028,853.251c-0.81,0-1.59-0.447-1.976-1.223
								c-0.377-0.753-0.698-1.543-0.957-2.346c-0.373-1.161,0.265-2.403,1.424-2.777c1.172-0.374,2.403,0.265,2.778,1.426
								c0.19,0.592,0.427,1.173,0.705,1.729c0.543,1.091,0.099,2.415-0.991,2.959
								C1523.694,853.176,1523.358,853.251,1523.028,853.251z M1550.857,848.828c-0.101,0-0.207-0.006-0.31-0.021
								c-1.207-0.171-2.047-1.288-1.877-2.495c0.084-0.595,0.127-1.197,0.127-1.789c-0.002-0.043-0.004-0.154-0.004-0.265
								c0-1.219,0.987-2.207,2.207-2.207c1.22,0,2.207,0.988,2.207,2.207h-2.207l2.207,0.042c0,0.014,0.004,0.209,0.004,0.223
								c0,0.798-0.058,1.608-0.17,2.407C1552.885,848.033,1551.938,848.828,1550.857,848.828z M1522.873,840.482
								c-0.313,0-0.631-0.067-0.933-0.208c-1.103-0.516-1.58-1.83-1.065-2.934c0.358-0.761,0.776-1.503,1.244-2.206
								c0.674-1.014,2.041-1.291,3.06-0.612c1.015,0.676,1.289,2.046,0.612,3.06c-0.345,0.518-0.655,1.067-0.916,1.628
								C1524.5,840.012,1523.705,840.482,1522.873,840.482z M1546.9,836.528c-0.58,0-1.157-0.226-1.59-0.678
								c-0.433-0.449-0.903-0.871-1.396-1.252c-0.963-0.745-1.142-2.131-0.396-3.096c0.739-0.962,2.123-1.145,3.095-0.398
								c0.664,0.514,1.297,1.081,1.879,1.687c0.845,0.878,0.817,2.276-0.06,3.119C1548.001,836.323,1547.449,836.528,1546.9,836.528
								z M1532.765,832.398c-0.996,0-1.899-0.678-2.142-1.689c-0.287-1.185,0.442-2.377,1.627-2.664
								c0.819-0.198,1.661-0.335,2.5-0.407c1.181-0.098,2.282,0.797,2.386,2.011c0.106,1.214-0.795,2.283-2.011,2.388
								c-0.616,0.053-1.235,0.153-1.84,0.3C1533.112,832.379,1532.937,832.398,1532.765,832.398z"/>
						</g>
						<path style="fill:#363E44;" d="M1506.165,916.887c-1.493,0-3.069-0.108-4.73-0.342c-1.207-0.17-2.047-1.285-1.877-2.492
							c0.17-1.207,1.252-2.056,2.493-1.878c18.762,2.638,24.451-13.178,24.684-13.853c0.399-1.151,1.649-1.765,2.802-1.371
							c1.151,0.393,1.767,1.641,1.377,2.793C1530.851,899.93,1524.871,916.887,1506.165,916.887z"/>
					</g>
					<g>
						
							<rect x="1424.634" y="1020.183" transform="matrix(-1 -1.224647e-16 1.224647e-16 -1 3046.3235 2140.4565)" style="fill:#776E42;" width="197.056" height="100.091"/>
						
							<rect x="1389.225" y="980.141" transform="matrix(-1 -1.224647e-16 1.224647e-16 -1 3047.863 2017.2645)" style="fill:#8B865C;" width="269.412" height="56.982"/>
					</g>
				</g>
				<g>
					<g>
						<polygon style="fill:#FFFFFF;" points="963.131,652.417 1350.605,652.417 1350.605,931.485 1304.486,931.485 
							1324.288,1010.196 1235.623,931.485 963.131,931.485 						"/>
						<path style="fill:#363E44;" d="M1307.87,1016.597l-93.389-82.905H940.62V650.21h391.888v283.482h-45.495L1307.87,1016.597z
							 M945.034,929.279h271.124l83.941,74.517l-18.749-74.517h46.745V654.624H945.034V929.279z"/>
					</g>
					<g>
						<g>
							<path style="fill:#363E44;" d="M1298.185,828.699H1151.67c-1.219,0-2.207-0.988-2.207-2.207c0-1.219,0.988-2.207,2.207-2.207
								h146.516c1.22,0,2.207,0.988,2.207,2.207C1300.392,827.711,1299.405,828.699,1298.185,828.699z"/>
							<path style="fill:#363E44;" d="M1298.185,867.583h-79.337c-1.219,0-2.207-0.988-2.207-2.207c0-1.219,0.988-2.207,2.207-2.207
								h79.337c1.22,0,2.207,0.988,2.207,2.207C1300.392,866.595,1299.405,867.583,1298.185,867.583z"/>
							<path style="fill:#363E44;" d="M1195.331,867.583h-23.55c-1.219,0-2.207-0.988-2.207-2.207c0-1.219,0.988-2.207,2.207-2.207
								h23.55c1.219,0,2.207,0.988,2.207,2.207C1197.538,866.595,1196.55,867.583,1195.331,867.583z"/>
							<path style="fill:#363E44;" d="M1298.185,711.891h-79.337c-1.219,0-2.207-0.988-2.207-2.207c0-1.219,0.988-2.207,2.207-2.207
								h79.337c1.22,0,2.207,0.988,2.207,2.207C1300.392,710.903,1299.405,711.891,1298.185,711.891z"/>
							<path style="fill:#363E44;" d="M1195.331,711.891h-78.81c-1.219,0-2.207-0.988-2.207-2.207c0-1.219,0.988-2.207,2.207-2.207
								h78.81c1.219,0,2.207,0.988,2.207,2.207C1197.538,710.903,1196.55,711.891,1195.331,711.891z"/>
							<path style="fill:#363E44;" d="M1298.185,789.815h-56.069c-1.219,0-2.207-0.988-2.207-2.207c0-1.219,0.988-2.207,2.207-2.207
								h56.069c1.22,0,2.207,0.988,2.207,2.207C1300.392,788.827,1299.405,789.815,1298.185,789.815z"/>
							<path style="fill:#363E44;" d="M1218.848,789.815h-90.271c-1.219,0-2.207-0.988-2.207-2.207c0-1.219,0.988-2.207,2.207-2.207
								h90.271c1.219,0,2.207,0.988,2.207,2.207C1221.055,788.827,1220.067,789.815,1218.848,789.815z"/>
							<path style="fill:#363E44;" d="M1298.267,750.93h-181.746c-1.219,0-2.207-0.988-2.207-2.207c0-1.219,0.988-2.207,2.207-2.207
								h181.746c1.22,0,2.207,0.988,2.207,2.207C1300.474,749.942,1299.487,750.93,1298.267,750.93z"/>
						</g>
						<g>
							<g>
								<g>
									<path style="fill:#E6D0BE;" d="M1120.58,861.228l-47.716-82.154v-61.761h-44.179v61.761l-47.749,82.154
										c-5.577,9.664,1.018,21.815,12.173,21.815h115.266C1119.529,883.042,1126.157,870.891,1120.58,861.228z"/>
									<path style="fill:#FFFFFF;" d="M1108.374,885.249H993.109c-5.906,0-11.19-3.045-14.136-8.147
										c-3.053-5.285-3.033-11.632,0.052-16.978l47.454-81.645v-63.372h48.592v63.372l47.421,81.645
										c3.08,5.336,3.097,11.676,0.046,16.959C1119.584,882.196,1114.291,885.249,1108.374,885.249z M1030.892,719.52v60.149
										l-48.048,82.668c-2.284,3.958-2.304,8.655-0.05,12.558c2.148,3.72,6.004,5.94,10.314,5.94h115.265
										c4.321,0,8.187-2.228,10.341-5.96c2.252-3.899,2.236-8.587-0.043-12.539l-48.015-82.668V719.52H1030.892z"/>
								</g>
								<path style="fill:#FFFFFF;" d="M1078.201,819.999c-0.763,0-1.504-0.396-1.914-1.103l-13.331-23.098
									c-0.609-1.056-0.247-2.405,0.808-3.015c1.056-0.61,2.404-0.247,3.015,0.808l13.331,23.098
									c0.609,1.056,0.247,2.405-0.808,3.015C1078.954,819.905,1078.575,819.999,1078.201,819.999z"/>
								<g>
									<ellipse style="fill:#E6D0BE;" cx="1050.319" cy="715.807" rx="33.093" ry="10.442"/>
									<path style="fill:#FFFFFF;" d="M1050.319,728.456c-17.542,0-35.3-4.344-35.3-12.648c0-8.304,17.758-12.649,35.3-12.649
										c17.542,0,35.3,4.345,35.3,12.649C1085.619,724.111,1067.861,728.456,1050.319,728.456z M1050.319,707.572
										c-18.854,0-30.886,4.878-30.886,8.235c0,3.358,12.032,8.234,30.886,8.234c18.855,0,30.886-4.877,30.886-8.234
										C1081.205,712.45,1069.173,707.572,1050.319,707.572z"/>
								</g>
							</g>
							<g>
								<polygon style="fill:#D87355;" points="1082.89,827.799 1018.593,827.799 996.3,866.469 1105.183,866.469 								"/>
								<path style="fill:#FFFFFF;" d="M1037.085,849.577c-3.391,0-6.15-2.76-6.15-6.15c0-3.391,2.759-6.151,6.15-6.151
									c3.39,0,6.148,2.76,6.148,6.151C1043.233,846.818,1040.475,849.577,1037.085,849.577z M1037.085,841.69
									c-0.957,0-1.736,0.779-1.736,1.737c0,0.958,0.779,1.737,1.736,1.737c0.957,0,1.735-0.779,1.735-1.737
									C1038.82,842.469,1038.042,841.69,1037.085,841.69z"/>
								<path style="fill:#FFFFFF;" d="M1063.694,860.564c-5.642,0-10.232-4.591-10.232-10.235s4.59-10.235,10.232-10.235
									c5.642,0,10.232,4.591,10.232,10.235S1069.336,860.564,1063.694,860.564z M1063.694,844.507
									c-3.209,0-5.819,2.612-5.819,5.822c0,3.21,2.61,5.822,5.819,5.822c3.209,0,5.819-2.612,5.819-5.822
									C1069.513,847.119,1066.903,844.507,1063.694,844.507z"/>
								<path style="fill:#FFFFFF;" d="M1043.983,816.62c-4.4,0-7.979-3.581-7.979-7.981c0-4.402,3.58-7.982,7.979-7.982
									c4.399,0,7.979,3.581,7.979,7.982C1051.962,813.04,1048.383,816.62,1043.983,816.62z M1043.983,805.07
									c-1.967,0-3.566,1.601-3.566,3.569c0,1.968,1.599,3.568,3.566,3.568c1.966,0,3.565-1.6,3.565-3.568
									C1047.549,806.671,1045.95,805.07,1043.983,805.07z"/>
							</g>
						</g>
					</g>
				</g>
				<g>
					<g>
						<path style="fill:#8B865C;" d="M1594.338,1506.431v104.479c0,49.347-40.113,89.35-89.442,89.35l0,0
							c-49.329,0-89.442-40.003-89.442-89.35v-104.479H1594.338z"/>
						<g>
							<g>
								<path style="fill:#363E44;" d="M1613.508,1616.623H1598.3v-64.577h15.208V1616.623z M1602.714,1612.209h6.381v-55.75h-6.381
									V1612.209z"/>
								<path style="fill:#363E44;" d="M1613.508,1610.452h-2.207c-0.037,0-0.073,0-0.11,0v-2.207h-2.097v-49.365h2.097v-2.207
									h2.207l0.006,0.111c11.295,1.144,20.15,10.95,20.15,22.837v8.553c0,11.71-8.635,21.043-20.046,22.164V1610.452z
									 M1613.508,1561.241v44.656c8.933-1.098,15.633-8.488,15.633-17.722v-8.553
									C1629.141,1570.212,1622.316,1562.418,1613.508,1561.241z"/>
							</g>
							<g>
								<path style="fill:#363E44;" d="M1607.34,1676.785h-57.723c-1.22,0-2.207-0.988-2.207-2.207s0.987-2.207,2.207-2.207h53.309
									v-54.871c0-1.219,0.987-2.207,2.207-2.207c1.22,0,2.207,0.988,2.207,2.207V1676.785z"/>
								
									<ellipse transform="matrix(0.0022 -1 1 0.0022 -130.0615 3219.2656)" style="fill:#363E44;" cx="1548.167" cy="1674.808" rx="16.13" ry="16.125"/>
							</g>
						</g>
						<g>
							<path style="fill:#363E44;" d="M1552.917,1610.205l-117.708,0.658c-11.11,0.062-20.169-8.894-20.237-20.008l-0.064-10.301
								c-0.069-11.123,8.893-20.194,20.012-20.256l117.708-0.658c11.11-0.062,20.169,8.894,20.237,20.008l0.064,10.301
								C1572.998,1601.072,1564.036,1610.143,1552.917,1610.205z"/>
							<path style="fill:#FFFFFF;" d="M1428.368,1613.107c-15.068,0-27.376-12.214-27.468-27.299
								c-0.045-7.381,2.771-14.299,7.931-19.519c5.161-5.222,12.045-8.119,19.385-8.16l107.431-0.601
								c15.118-0.054,27.531,12.163,27.623,27.3c0.045,7.381-2.771,14.299-7.931,19.519c-5.159,5.221-12.045,8.119-19.383,8.16l0,0
								l-107.434,0.6C1428.471,1613.107,1428.42,1613.107,1428.368,1613.107z M1535.944,1610.3h0.021H1535.944z M1535.801,1561.94
								c-0.043,0-0.086,0-0.129,0l-107.432,0.601c-6.161,0.034-11.939,2.466-16.271,6.849c-4.332,4.381-6.696,10.188-6.657,16.348
								c0.078,12.702,10.409,22.955,23.055,22.955c0.043,0,0.086,0,0.129,0l107.434-0.6c6.161-0.034,11.939-2.468,16.269-6.849
								c4.332-4.382,6.696-10.189,6.659-16.35C1558.779,1572.193,1548.447,1561.94,1535.801,1561.94z"/>
							<path style="fill:#FFFFFF;" d="M1438.572,1602.133c-0.155,0-0.313-0.016-0.47-0.049c-0.828-0.18-1.646-0.424-2.433-0.724
								c-1.138-0.435-1.707-1.711-1.271-2.85c0.435-1.138,1.709-1.705,2.849-1.272c0.578,0.222,1.181,0.401,1.791,0.532
								c1.192,0.259,1.948,1.433,1.69,2.625C1440.503,1601.427,1439.589,1602.133,1438.572,1602.133z M1449.209,1600.445
								c-0.759,0-1.496-0.39-1.905-1.091c-0.616-1.052-0.265-2.403,0.787-3.02c0.537-0.315,1.056-0.673,1.543-1.066
								c0.946-0.766,2.334-0.617,3.103,0.33c0.765,0.948,0.616,2.338-0.332,3.103c-0.655,0.53-1.355,1.015-2.082,1.441
								C1449.972,1600.348,1449.589,1600.445,1449.209,1600.445z M1428.478,1594.264c-0.813,0-1.593-0.448-1.978-1.224
								c-0.375-0.754-0.696-1.545-0.955-2.349c-0.373-1.161,0.265-2.403,1.427-2.776c1.164-0.376,2.403,0.268,2.776,1.427
								c0.19,0.593,0.427,1.176,0.705,1.733c0.543,1.09,0.097,2.416-0.993,2.959
								C1429.144,1594.19,1428.807,1594.264,1428.478,1594.264z M1456.353,1589.832c-0.101,0-0.207-0.006-0.31-0.021
								c-1.207-0.17-2.047-1.287-1.877-2.493c0.084-0.598,0.127-1.203,0.127-1.798l-0.002-0.262c0-1.219,0.987-2.207,2.207-2.207
								s2.207,0.988,2.207,2.207h-2.207l2.207,0.085c0.002,0.977-0.056,1.79-0.168,2.591
								C1458.381,1589.036,1457.435,1589.832,1456.353,1589.832z M1428.323,1581.474c-0.313,0-0.629-0.066-0.931-0.207
								c-1.105-0.516-1.582-1.83-1.067-2.934c0.358-0.765,0.778-1.51,1.246-2.212c0.679-1.014,2.045-1.291,3.062-0.61
								c1.013,0.677,1.287,2.047,0.61,3.06c-0.347,0.518-0.655,1.066-0.918,1.63
								C1429.95,1581.003,1429.154,1581.474,1428.323,1581.474z M1452.384,1577.51c-0.578,0-1.155-0.226-1.588-0.676
								c-0.44-0.455-0.909-0.878-1.401-1.256c-0.963-0.745-1.142-2.131-0.397-3.096c0.739-0.962,2.123-1.146,3.095-0.398
								c0.66,0.51,1.293,1.078,1.879,1.688c0.847,0.878,0.821,2.275-0.058,3.12
								C1453.487,1577.305,1452.935,1577.51,1452.384,1577.51z M1438.227,1573.374c-0.996,0-1.901-0.679-2.144-1.689
								c-0.285-1.185,0.444-2.377,1.629-2.663c0.819-0.197,1.659-0.334,2.5-0.407c1.185-0.119,2.284,0.792,2.39,2.006
								s-0.793,2.284-2.006,2.39c-0.621,0.055-1.243,0.156-1.849,0.302C1438.572,1573.355,1438.4,1573.374,1438.227,1573.374z"/>
							<path style="fill:#FFFFFF;" d="M1530.278,1601.621c-0.155,0-0.315-0.016-0.472-0.051c-0.828-0.18-1.644-0.423-2.431-0.723
								c-1.138-0.434-1.709-1.71-1.276-2.849c0.433-1.138,1.709-1.708,2.849-1.276c0.582,0.222,1.185,0.402,1.797,0.536
								c1.192,0.26,1.946,1.435,1.685,2.626C1532.207,1600.917,1531.293,1601.621,1530.278,1601.621z M1540.915,1599.932
								c-0.759,0-1.496-0.39-1.905-1.09c-0.616-1.052-0.265-2.403,0.787-3.02c0.537-0.315,1.056-0.673,1.543-1.066
								c0.946-0.766,2.334-0.617,3.103,0.33c0.765,0.948,0.616,2.338-0.332,3.103c-0.655,0.53-1.355,1.015-2.082,1.441
								C1541.678,1599.835,1541.295,1599.932,1540.915,1599.932z M1520.186,1593.751c-0.812,0-1.593-0.448-1.978-1.224
								c-0.375-0.754-0.696-1.545-0.955-2.349c-0.373-1.161,0.265-2.403,1.427-2.776c1.164-0.374,2.403,0.267,2.776,1.427
								c0.19,0.593,0.427,1.176,0.705,1.733c0.543,1.09,0.097,2.416-0.993,2.959
								C1520.852,1593.677,1520.516,1593.751,1520.186,1593.751z M1548.059,1589.32c-0.101,0-0.207-0.007-0.31-0.022
								c-1.207-0.17-2.047-1.286-1.877-2.493c0.084-0.598,0.127-1.201,0.127-1.794l-0.002-0.266c0-1.219,0.987-2.207,2.207-2.207
								s2.207,0.988,2.207,2.207h-2.207l2.207,0.085c0.002,0.979-0.056,1.79-0.168,2.591
								C1550.087,1588.524,1549.141,1589.32,1548.059,1589.32z M1520.029,1580.96c-0.313,0-0.629-0.066-0.931-0.207
								c-1.106-0.516-1.582-1.83-1.067-2.934c0.358-0.765,0.778-1.51,1.246-2.212c0.677-1.015,2.043-1.292,3.062-0.61
								c1.013,0.677,1.287,2.047,0.61,3.06c-0.347,0.518-0.655,1.066-0.918,1.63
								C1521.656,1580.489,1520.86,1580.96,1520.029,1580.96z M1544.094,1576.997c-0.578,0-1.155-0.226-1.588-0.676
								c-0.44-0.455-0.909-0.878-1.401-1.256c-0.963-0.745-1.142-2.131-0.396-3.096c0.741-0.962,2.123-1.145,3.095-0.398
								c0.66,0.51,1.293,1.078,1.879,1.687c0.847,0.878,0.821,2.275-0.058,3.12
								C1545.197,1576.792,1544.646,1576.997,1544.094,1576.997z M1529.935,1572.862c-0.996,0-1.901-0.679-2.144-1.69
								c-0.285-1.185,0.444-2.377,1.629-2.663c0.819-0.197,1.659-0.334,2.5-0.407c1.181-0.126,2.284,0.792,2.39,2.006
								s-0.793,2.284-2.006,2.39c-0.623,0.055-1.244,0.156-1.849,0.302C1530.28,1572.843,1530.108,1572.862,1529.935,1572.862z"/>
						</g>
						<path style="fill:#363E44;" d="M1503.29,1657.494c-1.496,0-3.073-0.109-4.737-0.343c-1.207-0.17-2.047-1.286-1.877-2.492
							c0.17-1.207,1.259-2.052,2.493-1.878c18.796,2.653,24.499-13.202,24.731-13.879c0.399-1.151,1.649-1.767,2.802-1.371
							c1.151,0.393,1.767,1.641,1.377,2.793C1528.017,1640.51,1522.026,1657.494,1503.29,1657.494z"/>
					</g>
					<g>
						
							<rect x="1421.623" y="1760.967" transform="matrix(-1 -1.224647e-16 1.224647e-16 -1 3040.635 3622.1943)" style="fill:#776E42;" width="197.389" height="100.26"/>
						
							<rect x="1386.155" y="1720.858" transform="matrix(-1 -1.224647e-16 1.224647e-16 -1 3042.177 3498.7944)" style="fill:#8B865C;" width="269.867" height="57.078"/>
					</g>
				</g>
				<g>
					<g>
						<polygon style="fill:#FFFFFF;" points="880.416,1885.072 1333.285,1885.072 1333.285,1667.043 1282.222,1667.043 
							1304.146,1605.548 1205.977,1667.043 880.416,1667.043 						"/>
						<path style="fill:#363E44;" d="M1357.536,1887.279H900.252v-222.442h327.135l103.015-64.531l-23.007,64.531h50.142V1887.279z
							 M904.666,1882.865h448.456V1669.25h-51.986l20.844-58.46l-93.326,58.46H904.666V1882.865z"/>
					</g>
					<g>
						<path style="fill:#D3BBA3;" d="M1285.238,1754.48H1105.72c-1.219,0-2.207-0.988-2.207-2.207c0-1.219,0.988-2.207,2.207-2.207
							h179.518c1.22,0,2.207,0.988,2.207,2.207C1287.445,1753.492,1286.458,1754.48,1285.238,1754.48z"/>
						<path style="fill:#D3BBA3;" d="M1230.098,1736.028H1105.72c-1.219,0-2.207-0.988-2.207-2.207c0-1.219,0.988-2.207,2.207-2.207
							h124.378c1.219,0,2.207,0.988,2.207,2.207C1232.304,1735.04,1231.316,1736.028,1230.098,1736.028z"/>
						<path style="fill:#D3BBA3;" d="M1283.453,1717.575H1105.72c-1.219,0-2.207-0.988-2.207-2.207s0.988-2.207,2.207-2.207h177.734
							c1.22,0,2.207,0.988,2.207,2.207S1284.673,1717.575,1283.453,1717.575z"/>
					</g>
					<g>
						<path style="fill:#D3BBA3;" d="M1252.656,1841.099h-147.347c-1.219,0-2.207-0.988-2.207-2.207
							c0-1.219,0.988-2.207,2.207-2.207h147.347c1.22,0,2.207,0.988,2.207,2.207
							C1254.862,1840.111,1253.875,1841.099,1252.656,1841.099z"/>
						<path style="fill:#D3BBA3;" d="M1285.238,1822.647h-179.93c-1.219,0-2.207-0.988-2.207-2.207s0.988-2.207,2.207-2.207h179.93
							c1.22,0,2.207,0.988,2.207,2.207S1286.458,1822.647,1285.238,1822.647z"/>
						<path style="fill:#D3BBA3;" d="M1188.488,1804.194h-83.18c-1.219,0-2.207-0.988-2.207-2.207c0-1.219,0.988-2.207,2.207-2.207
							h83.18c1.219,0,2.207,0.988,2.207,2.207C1190.695,1803.206,1189.707,1804.194,1188.488,1804.194z"/>
					</g>
					<g>
						<path style="fill:#D3BBA3;" d="M933.916,1807.281c-0.509,0-1.019-0.175-1.436-0.532c-0.924-0.794-1.031-2.186-0.237-3.112
							l94.769-110.426c0.794-0.924,2.186-1.032,3.112-0.237c0.924,0.793,1.031,2.186,0.237,3.112l-94.769,110.426
							C935.155,1807.021,934.538,1807.281,933.916,1807.281z"/>
						<path style="fill:#8B865C;" d="M1042.549,1750.9c0,0,3.814,25.813-2.03,35.672c-11.703,19.743-33.273,32.924-57.874,32.782
							c-36.886-0.213-66.616-30.297-66.403-67.196c0.052-8.954,1.861-17.486,5.1-25.271c3.353-8.061,19.903-13.069,19.903-13.069
							s5.523-17.877,12.131-21.158c9.046-4.491,19.25-6.991,30.038-6.929c12.012,0.069,23.265,3.306,32.972,8.915
							c3.417,1.974,7.355,9.858,7.355,9.858s6.8,0.984,8.838,3.238c4.291,4.747,7.91,10.112,10.707,15.946
							C1047.526,1732.534,1042.549,1750.9,1042.549,1750.9z"/>
						<path style="fill:#EFBC73;" d="M972.126,1707.776c-1.912,1.152-0.871,4.148-2.776,5.222
							c-3.268,1.842-12.01-3.768-11.499-7.968c0.553-4.547,12.036-8.183,16.197-4.669c2.679,2.262,1.25,6.581,3.843,7.69
							c2.199,0.94,6.04-0.961,6.864-3.845c1.087-3.808-3.713-7.141-4.118-7.415c-4.855-3.278-11.541-1.484-14.001-0.824
							c-5.315,1.426-6.523,3.517-9.06,2.746c-2.679-0.814-3.232-3.724-4.198-6.05c-14.379,7.14-25.827,19.311-32.032,34.226
							c2.385,3.382,8.195,3.783,10.149,9.723c1.028,3.124,0.311,5.719,2.471,7.415c2.2,1.727,4.551,0.298,6.314,2.197
							c1.046,1.127,0.632,2.075,1.373,6.042c0.715,3.828,1.072,5.742,2.196,6.866c3.242,3.241,11.214,0.765,11.256-0.549
							c0.028-0.87-3.439-0.612-4.667-3.021c-1.28-2.513,1.459-4.817,0.275-7.14c-1.3-2.549-5.373-1.302-6.589-3.57
							c-1.255-2.341,1.139-7.299,4.941-9.337c5.577-2.99,9.554,2.783,15.099,0.549c6.901-2.779,4.899-13.391,13.178-17.302
							c4.175-1.972,7.383-0.548,7.961-2.197C986.397,1713.446,975.921,1705.49,972.126,1707.776z"/>
						<path style="fill:#EFBC73;" d="M964.314,1754.346c4.456-1.743,8.574-0.74,10.172-0.351c1.257,0.306,4.264,1.072,7.149,3.449
							c4.501,3.707,3.178,6.78,6.967,9.293c4.096,2.716,8.592,1.083,9.289,3.194c0.378,1.143-0.925,1.667-2.032,4.356
							c-1.964,4.772,0.045,8.216-2.032,9.583c-1.134,0.747-3.484,0.871-3.484,0.871c0,0,0.208,2.8-0.581,4.937
							c-0.552,1.498-1.144,1.45-2.613,3.485c-2.058,2.85-1.49,3.764-2.987,5.637c-2.238,2.801-4.379,1.846-5.722,3.752
							c-2.834,4.02,4.472,11.41,2.323,13.939c-1.629,1.916-8.303,0.598-11.225-3.485c-2.06-2.879-0.538-4.735-1.742-11.81
							c-0.989-5.811-3.1-10.934-3.871-12.778c-2.207-5.28-3.871-7.239-3.256-10.608c0.53-2.9,2.107-3.331,1.901-5.461
							c-0.392-4.054-6.294-4.397-6.967-8.131C954.93,1760.48,959.987,1756.038,964.314,1754.346z"/>
						<path style="fill:#EFBC73;" d="M1043.283,1723.688c-9.298-2.236-11.714-2.905-15.755-1.798
							c-3.495,0.958-6.303,2.75-11.918,6.334c-5.354,3.417-6.297,4.873-6.704,5.589c-2.314,4.065-1.2,8.565,0,13.413
							c1.048,4.232,2.192,8.857,5.214,9.687c1.448,0.398,2.213-0.382,6.704-2.235c5.735-2.367,8.603-3.55,9.683-2.608
							c2.153,1.877-4.679,9.151-1.862,14.53c1.884,3.599,6.307,2.95,7.821,7.079c1.032,2.814-0.628,4.19,0,7.079
							c0.483,2.221,2.087,4.273,4.049,5.812c5.844-9.859,9.231-21.353,9.302-33.642
							C1049.877,1742.456,1047.524,1732.535,1043.283,1723.688z"/>
						<g>
							<path style="fill:#BC8271;" d="M987.051,1829.473c-0.152,0-0.303,0-0.455-0.001c-20.542-0.12-39.808-8.232-54.249-22.846
								c-0.857-0.867-0.848-2.265,0.018-3.122c0.868-0.856,2.264-0.848,3.122,0.018c13.612,13.775,31.772,21.423,51.135,21.535
								c0.141,0.001,0.287,0.001,0.428,0.001c19.205,0.001,37.282-7.427,50.951-20.945c13.771-13.618,21.416-31.785,21.527-51.154
								c0.14-24.349-11.85-47.012-32.073-60.626c-1.011-0.681-1.279-2.052-0.598-3.063c0.679-1.01,2.052-1.279,3.063-0.598
								c21.451,14.44,34.169,38.483,34.021,64.313c-0.119,20.548-8.228,39.82-22.837,54.266
								C1026.604,1821.592,1007.423,1829.473,987.051,1829.473z"/>
						</g>
						<path style="fill:#EFBC73;" d="M1032.577,1707.743c-4.666-5.161-10.127-9.591-16.192-13.095
							c-0.424,1.901-0.394,3.769,0.342,5.261c1.028,2.083,3.164,2.899,2.979,4.843c-0.182,1.918-2.486,3.521-4.469,4.098
							c-3.383,0.984-5.532-1.106-6.704,0c-1.76,1.66,2.184,7.22,0.372,8.942c-1.186,1.127-3.331-0.824-5.587,0.373
							c-2.135,1.134-3.526,4.642-2.235,7.079c1.004,1.894,3.375,2.66,5.214,2.608c1.543-0.044,3.613-0.689,9.311-7.079
							c5.265-5.904,6.017-8.179,8.194-8.197c3.657-0.03,6.377,6.355,7.076,5.961c0.65-0.365-3.02-5.127-1.862-8.197
							C1029.507,1709.043,1030.793,1708.233,1032.577,1707.743z"/>
						<path style="fill:#BC8271;" d="M1019.893,1864.396h-62.352c-1.219,0-2.207-0.988-2.207-2.207v-9.924
							c0-1.219,0.988-2.207,2.207-2.207h62.352c1.219,0,2.207,0.988,2.207,2.207v9.924
							C1022.1,1863.408,1021.112,1864.396,1019.893,1864.396z M959.747,1859.983h57.939v-5.51h-57.939V1859.983z"/>
						<path style="fill:#BC8271;" d="M997.747,1854.473h-18.885c-0.681,0-1.324-0.315-1.742-0.852s-0.565-1.238-0.396-1.899
							l4.689-18.429c0.249-0.978,1.129-1.663,2.139-1.663h9.506c1.01,0,1.89,0.684,2.139,1.663l4.689,18.429
							c0.168,0.661,0.022,1.361-0.397,1.899C999.071,1854.158,998.427,1854.473,997.747,1854.473z M981.7,1850.059h13.208
							l-3.567-14.015h-6.075L981.7,1850.059z"/>
						<path style="fill:#BC8271;" d="M991.894,1836.044h-7.43c-1.219,0-2.207-0.988-2.207-2.207v-6.571
							c0-1.219,0.988-2.207,2.207-2.207h7.43c1.219,0,2.207,0.988,2.207,2.207v6.571
							C994.101,1835.056,993.113,1836.044,991.894,1836.044z M986.672,1831.63h3.016v-2.157h-3.016V1831.63z"/>
					</g>
				</g>
				<g>
					<g>
						<g>
							<polygon style="opacity:0.5;fill:#FFFFFF;" points="1509.606,1447.596 915.557,1447.596 915.557,1202.766 961.979,1202.766 
								942.048,1133.712 1031.294,1202.766 1509.606,1202.766 							"/>
							<path style="fill:#8B865C;" d="M1491.058,1449.803h-594.05c-1.219,0-2.207-0.988-2.207-2.207v-244.83
								c0-1.219,0.988-2.207,2.207-2.207h43.488l-19.118-66.236c-0.264-0.917,0.09-1.901,0.88-2.437
								c0.789-0.539,1.835-0.505,2.59,0.08l88.651,68.593h477.558c1.22,0,2.207,0.988,2.207,2.207v244.83
								C1493.265,1448.815,1492.278,1449.803,1491.058,1449.803z M899.215,1445.39h589.636v-240.417h-476.106
								c-0.489,0-0.963-0.163-1.35-0.461l-83.903-64.919l18.058,62.561c0.192,0.666,0.06,1.385-0.357,1.938
								c-0.417,0.554-1.07,0.88-1.764,0.88h-44.215V1445.39z"/>
						</g>
						<g>
							
								<rect x="949.081" y="1353.905" transform="matrix(-1 -1.224647e-16 1.224647e-16 -1 2215.7371 2765.457)" style="fill:#E6D0BE;" width="317.574" height="57.647"/>
							
								<rect x="1337.096" y="1353.905" transform="matrix(-1 -1.224647e-16 1.224647e-16 -1 2778.8384 2765.457)" style="fill:#E6D0BE;" width="104.646" height="57.647"/>
							<g>
								<path style="fill:#363E44;" d="M1104.257,1323.045H949.063c-1.219,0-2.207-0.988-2.207-2.207
									c0-1.219,0.988-2.207,2.207-2.207h155.194c1.219,0,2.207,0.988,2.207,2.207
									C1106.463,1322.057,1105.475,1323.045,1104.257,1323.045z"/>
								<path style="fill:#363E44;" d="M1441.742,1323.045h-281.981c-1.219,0-2.207-0.988-2.207-2.207
									c0-1.219,0.988-2.207,2.207-2.207h281.981c1.22,0,2.207,0.988,2.207,2.207
									C1443.949,1322.057,1442.962,1323.045,1441.742,1323.045z"/>
								<path style="fill:#363E44;" d="M1033.099,1291.028h-84.036c-1.219,0-2.207-0.988-2.207-2.207
									c0-1.219,0.988-2.207,2.207-2.207h84.036c1.219,0,2.207,0.988,2.207,2.207
									C1035.306,1290.04,1034.318,1291.028,1033.099,1291.028z"/>
								<path style="fill:#363E44;" d="M1299.414,1291.028h-241.405c-1.219,0-2.207-0.988-2.207-2.207
									c0-1.219,0.988-2.207,2.207-2.207h241.405c1.22,0,2.207,0.988,2.207,2.207
									C1301.621,1290.04,1300.634,1291.028,1299.414,1291.028z"/>
								<path style="fill:#363E44;" d="M1441.742,1291.028H1333.16c-1.22,0-2.207-0.988-2.207-2.207
									c0-1.219,0.987-2.207,2.207-2.207h108.582c1.22,0,2.207,0.988,2.207,2.207
									C1443.949,1290.04,1442.962,1291.028,1441.742,1291.028z"/>
								<path style="fill:#363E44;" d="M1008.453,1259.01h-59.39c-1.219,0-2.207-0.988-2.207-2.207s0.988-2.207,2.207-2.207h59.39
									c1.219,0,2.207,0.988,2.207,2.207S1009.671,1259.01,1008.453,1259.01z"/>
								<path style="fill:#363E44;" d="M1199.471,1259.01h-166.372c-1.219,0-2.207-0.988-2.207-2.207s0.988-2.207,2.207-2.207
									h166.372c1.219,0,2.207,0.988,2.207,2.207S1200.69,1259.01,1199.471,1259.01z"/>
								<path style="fill:#363E44;" d="M1345.726,1259.01h-128.013c-1.219,0-2.207-0.988-2.207-2.207s0.988-2.207,2.207-2.207
									h128.013c1.22,0,2.207,0.988,2.207,2.207S1346.946,1259.01,1345.726,1259.01z"/>
							</g>
						</g>
					</g>
					<g>
						<g>
							<path style="fill:#FFFFFF;" d="M1559.116,1322.391c1.376-4.444,5.026-16.035,5.026-16.035s10.761,3.776,15.211,5.153
								c7.011,2.17,13.67,3.063,19.976,2.669c6.305-0.389,11.867-2.462,16.684-6.219c4.817-3.753,8.443-9.565,10.879-17.431
								c1.799-5.811,1.976-11.377,0.532-16.699c-1.446-5.318-4.208-10.015-8.288-14.089c-4.08-4.073-9.198-7.063-15.355-8.968
								c-4.79-1.483-9.545-2.014-14.262-1.604c-4.722,0.414-9.241,1.545-13.56,3.392c-3.48,1.549-8.442,4.573-8.442,4.573
								l-16.657-26.803c0,0,3.324-2.778,8.028-5.257c8.115-4.418,16.86-7.1,26.244-8.039c9.378-0.936,18.772,0.048,28.179,2.96
								c11.801,3.652,21.613,9.64,29.437,17.964s13.155,17.892,15.993,28.7c2.837,10.812,2.482,21.944-1.064,33.398
								c-2.648,8.552-6.273,15.721-10.876,21.508c-4.604,5.79-9.987,10.308-16.144,13.553c-6.163,3.248-12.798,5.314-19.913,6.204
								c-7.119,0.888-14.307,0.782-22.028-0.299c-0.736-0.17-1.538-0.316-1.527-0.346l-8.119,26.27l-30.282-9.814L1559.116,1322.391
								z M1548.131,1407.806c-4.962-1.536-8.357-4.036-10.185-7.509c-1.834-3.47-1.979-7.683-0.443-12.644l1.35-4.36
								c1.535-4.957,4.035-8.351,7.51-10.182c3.469-1.829,7.684-1.978,12.646-0.443l3.335,1.032
								c4.958,1.535,8.351,4.039,10.185,7.509c1.828,3.473,1.978,7.687,0.443,12.644l-1.35,4.36
								c-1.536,4.961-4.041,8.354-7.51,10.183c-3.475,1.832-7.688,1.977-12.646,0.442L1548.131,1407.806z"/>
						</g>
						<g>
							<path style="fill:#BC8271;" d="M1550.641,1404.893c-2.179,0-4.506-0.381-6.976-1.145l-3.334-1.032
								c-5.521-1.709-9.385-4.599-11.484-8.589c-2.105-3.983-2.308-8.802-0.599-14.324l1.351-4.362
								c1.707-5.515,4.597-9.378,8.59-11.482c3.991-2.104,8.81-2.306,14.327-0.597l3.334,1.03c5.513,1.707,9.377,4.596,11.484,8.587
								c2.105,3.998,2.306,8.817,0.599,14.328l-1.349,4.36c-1.709,5.517-4.599,9.38-8.59,11.483
								C1555.79,1404.312,1553.331,1404.893,1550.641,1404.893z M1545.555,1366.634c-1.978,0-3.752,0.409-5.31,1.23
								c-2.959,1.559-5.062,4.465-6.431,8.883l-1.351,4.361c-1.366,4.421-1.274,8.007,0.287,10.959
								c1.558,2.96,4.465,5.063,8.887,6.433l0,0l3.334,1.032c4.416,1.366,8.004,1.274,10.967-0.288
								c2.959-1.559,5.062-4.465,6.431-8.883l1.349-4.36c1.366-4.415,1.271-8-0.287-10.964c-1.562-2.958-4.469-5.062-8.885-6.43
								l-3.334-1.03C1549.178,1366.948,1547.288,1366.634,1545.555,1366.634z M1571.922,1361.953c-0.228,0-0.459-0.036-0.681-0.108
								l-30.281-9.814c-1.138-0.369-1.776-1.58-1.435-2.728l10.327-34.739c0.004-0.008,0.006-0.016,0.009-0.024
								c1.377-4.448,5.028-16.044,5.028-16.044c0.181-0.57,0.584-1.043,1.119-1.31c0.528-0.268,1.151-0.308,1.718-0.11
								c0.108,0.038,10.775,3.779,15.133,5.128c6.73,2.082,13.191,2.944,19.186,2.574c5.825-0.359,11.027-2.296,15.465-5.757
								c4.433-3.452,7.84-8.951,10.129-16.344c1.664-5.376,1.836-10.58,0.511-15.468c-1.338-4.917-3.935-9.326-7.719-13.106
								c-3.802-3.797-8.663-6.63-14.45-8.422c-4.485-1.387-9.004-1.896-13.417-1.513c-4.463,0.391-8.797,1.475-12.883,3.223
								c-3.282,1.461-8.114,4.399-8.161,4.429c-1.034,0.629-2.383,0.31-3.023-0.72l-16.656-26.803
								c-0.58-0.934-0.384-2.153,0.459-2.858c0.144-0.12,3.558-2.958,8.415-5.517c8.314-4.528,17.426-7.319,27.05-8.282
								c9.646-0.959,19.413,0.066,29.052,3.048c12.111,3.748,22.337,9.992,30.393,18.559c8.041,8.553,13.598,18.529,16.518,29.651
								c2.931,11.164,2.564,22.809-1.088,34.611c-2.717,8.777-6.506,16.257-11.258,22.229c-4.776,6.004-10.441,10.758-16.842,14.132
								c-6.364,3.354-13.318,5.522-20.667,6.441c-7.187,0.896-14.488,0.809-22.313-0.263l-7.528,24.349
								c-0.175,0.563-0.567,1.034-1.09,1.307C1572.623,1361.869,1572.274,1361.953,1571.922,1361.953z M1544.37,1348.497
								l26.104,8.461l7.461-24.132c0.267-0.863,1.032-1.476,1.933-1.547c0.302-0.021,0.603,0.016,0.879,0.109l1.317,0.287
								c7.357,1.021,14.374,1.119,21.26,0.26c6.819-0.853,13.264-2.861,19.158-5.967c5.855-3.086,11.051-7.452,15.445-12.974
								c4.409-5.542,7.939-12.536,10.495-20.788c3.405-11.001,3.754-21.831,1.036-32.185c-2.733-10.401-7.937-19.738-15.467-27.748
								c-7.525-8.004-17.109-13.847-28.483-17.368c-9.068-2.807-18.26-3.779-27.307-2.872c-9.036,0.904-17.585,3.521-25.406,7.781
								c-2.616,1.378-4.795,2.859-6.155,3.851l14.463,23.272c1.804-1.046,4.571-2.594,6.808-3.59
								c4.547-1.944,9.336-3.142,14.266-3.574c4.987-0.431,10.071,0.136,15.107,1.694c6.476,2.004,11.948,5.205,16.262,9.514
								c4.338,4.331,7.318,9.401,8.859,15.073c1.55,5.709,1.362,11.741-0.554,17.93c-2.56,8.271-6.474,14.501-11.631,18.519
								c-5.153,4.018-11.176,6.266-17.904,6.681c-6.547,0.406-13.527-0.523-20.766-2.764c-3.261-1.01-9.752-3.25-13.135-4.426
								c-1.123,3.567-3.329,10.596-4.336,13.842L1544.37,1348.497z"/>
						</g>
					</g>
				</g>
			</g>
		</g>
		<g>
			
				<ellipse transform="matrix(0.1614 -0.9869 0.9869 0.1614 366.0962 2826.0217)" style="fill:#FFFFFF;" cx="1845.898" cy="1197.597" rx="39.85" ry="39.831"/>
			<path style="fill:#FFFFFF;" d="M1920.885,1237.861c-0.336,0-0.677-0.077-0.996-0.238c-1.088-0.552-1.521-1.879-0.97-2.966
				c20.43-40.288,4.293-89.688-35.97-110.121c-1.088-0.552-1.521-1.879-0.97-2.966c0.547-1.086,1.879-1.523,2.965-0.969
				c42.435,21.533,59.441,73.594,37.91,116.052C1922.467,1237.419,1921.691,1237.861,1920.885,1237.861z"/>
			<path style="fill:#FFFFFF;" d="M1980.878,1268.305c-0.336,0-0.677-0.077-0.996-0.238c-1.088-0.552-1.521-1.88-0.97-2.966
				c37.214-73.385,7.821-163.369-65.522-200.59c-1.088-0.552-1.522-1.879-0.97-2.966c0.549-1.086,1.879-1.523,2.965-0.969
				c75.515,38.322,105.779,130.967,67.462,206.521C1982.46,1267.863,1981.684,1268.305,1980.878,1268.305z"/>
			<path style="fill:#FFFFFF;" d="M2040.868,1298.75c-0.336,0-0.677-0.077-0.996-0.238c-1.088-0.552-1.521-1.88-0.97-2.966
				c54.001-106.481,11.351-237.05-95.072-291.06c-1.088-0.552-1.521-1.879-0.97-2.966c0.55-1.086,1.879-1.523,2.965-0.969
				c108.595,55.11,152.114,188.341,97.012,296.991C2042.45,1298.309,2041.674,1298.75,2040.868,1298.75z"/>
		</g>
		<g>
			<g>
				<path style="fill:#F7F1EB;" d="M1841.951,1977.591h263.172c-17.069,0-30.906-16.717-30.906-37.482l0,0
					c0-20.765,13.837-37.482,30.906-37.482h-263.172c-17.069,0-30.906,16.717-30.906,37.482l0,0
					C1811.045,1960.874,1824.882,1977.591,1841.951,1977.591z"/>
				<path style="fill:#D87355;" d="M1413.212,1977.591h536.793c-34.816,0-50.84-16.983-50.84-38.584l0,0
					c0-21.601,16.024-38.584,50.84-38.584h-536.793c-34.815,0-50.839,16.984-50.839,38.584l0,0
					C1362.373,1960.607,1378.397,1977.591,1413.212,1977.591z"/>
				<path style="fill:#84524D;" d="M2109.573,1979.797h-159.568c-33.216,0-53.047-14.836-53.047-39.688
					c0-24.852,19.831-39.688,53.047-39.688h159.568c1.22,0,2.207,0.988,2.207,2.207c0,1.219-0.987,2.207-2.207,2.207h-159.568
					c-30.908,0-48.633,12.857-48.633,35.275c0,22.418,17.725,35.275,48.633,35.275h159.568c1.22,0,2.207,0.988,2.207,2.207
					C2111.78,1978.809,2110.793,1979.797,2109.573,1979.797z"/>
				<path style="fill:#E6D0BE;" d="M2085.329,1968.773h-141.057c-1.22,0-2.207-0.988-2.207-2.207c0-1.219,0.987-2.207,2.207-2.207
					h141.057c1.22,0,2.207,0.988,2.207,2.207C2087.536,1967.785,2086.549,1968.773,2085.329,1968.773z"/>
				<path style="fill:#E6D0BE;" d="M2076.512,1953.34h-138.854c-1.22,0-2.207-0.988-2.207-2.207s0.987-2.207,2.207-2.207h138.854
					c1.22,0,2.207,0.988,2.207,2.207S2077.732,1953.34,2076.512,1953.34z"/>
				<path style="fill:#E6D0BE;" d="M2074.31,1944.52h-165.303c-1.22,0-2.207-0.988-2.207-2.207c0-1.219,0.987-2.207,2.207-2.207
					h165.303c1.22,0,2.207,0.988,2.207,2.207C2076.517,1943.532,2075.53,1944.52,2074.31,1944.52z"/>
				<path style="fill:#E6D0BE;" d="M2076.512,1924.677h-152.078c-1.22,0-2.207-0.988-2.207-2.207c0-1.219,0.987-2.207,2.207-2.207
					h152.078c1.22,0,2.207,0.988,2.207,2.207C2078.719,1923.688,2077.732,1924.677,2076.512,1924.677z"/>
			</g>
			<g>
				<path style="fill:#F7F1EB;" d="M1649.971,2050.35h-246.5c15.988,0,28.948,24.74,28.948,55.12l0,0
					c0,30.38-12.961,55.121-28.948,55.121h246.5c15.987,0,28.948-24.741,28.948-55.121l0,0
					C1678.919,2075.09,1665.959,2050.35,1649.971,2050.35z"/>
				<path style="fill:#8B865C;" d="M2051.549,2048.145h-502.787c32.61,0,59.046,25.722,59.046,57.325l0,0
					c0,31.603-26.436,57.325-59.046,57.325h502.787c32.609,0,59.045-25.722,59.045-57.325l0,0
					C2110.594,2073.867,2084.158,2048.145,2051.549,2048.145z"/>
				<path style="fill:#84524D;" d="M1548.762,2162.798h-151.091c-1.22,0-2.207-0.988-2.207-2.207c0-1.219,0.987-2.207,2.207-2.207
					h151.091c31.873,0,56.84-23.242,56.84-52.914c0-29.672-24.966-52.914-56.84-52.914h-151.091c-1.22,0-2.207-0.988-2.207-2.207
					c0-1.219,0.987-2.207,2.207-2.207h151.091c34.347,0,61.253,25.182,61.253,57.328
					C1610.015,2137.616,1583.109,2162.798,1548.762,2162.798z"/>
				<path style="fill:#E6D0BE;" d="M1554.156,2067.991h-132.24c-1.22,0-2.207-0.988-2.207-2.207s0.987-2.207,2.207-2.207h132.24
					c1.22,0,2.207,0.988,2.207,2.207S1555.376,2067.991,1554.156,2067.991z"/>
				<path style="fill:#E6D0BE;" d="M1560.77,2090.038h-132.242c-1.22,0-2.207-0.988-2.207-2.207c0-1.219,0.987-2.207,2.207-2.207
					h132.242c1.22,0,2.207,0.988,2.207,2.207C1562.977,2089.05,1561.99,2090.038,1560.77,2090.038z"/>
				<path style="fill:#E6D0BE;" d="M1587.217,2103.268h-156.485c-1.22,0-2.207-0.988-2.207-2.207s0.987-2.207,2.207-2.207h156.485
					c1.22,0,2.207,0.988,2.207,2.207S1588.436,2103.268,1587.217,2103.268z"/>
				<path style="fill:#E6D0BE;" d="M1571.789,2131.93h-143.261c-1.22,0-2.207-0.988-2.207-2.207c0-1.219,0.987-2.207,2.207-2.207
					h143.261c1.22,0,2.207,0.988,2.207,2.207C1573.995,2130.942,1573.008,2131.93,1571.789,2131.93z"/>
				<rect x="1880.354" y="2072.398" style="fill:#FFFFFF;" width="136.65" height="63.94"/>
			</g>
			<g>
				<path style="fill:#F7F1EB;" d="M1649.971,1979.796h-246.5c15.988,0,28.948,15.828,28.948,35.277l0,0
					c0,19.449-12.961,35.277-28.948,35.277h246.5c15.987,0,28.948-15.828,28.948-35.277l0,0
					C1678.919,1995.623,1665.959,1979.796,1649.971,1979.796z"/>
				<path style="fill:#EFBC73;" d="M2051.549,1977.591h-502.787c32.61,0,47.62,17.249,47.62,37.482l0,0
					c0,20.232-15.009,37.482-47.62,37.482h502.787c32.609,0,47.618-17.25,47.618-37.482l0,0
					C2099.167,1994.84,2084.158,1977.591,2051.549,1977.591z"/>
				<path style="fill:#84524D;" d="M1548.762,2052.556h-151.091c-1.22,0-2.207-0.988-2.207-2.207c0-1.219,0.987-2.207,2.207-2.207
					h151.091c28.86,0,45.413-12.053,45.413-33.07c0-21.017-16.553-33.07-45.413-33.07h-151.091c-1.22,0-2.207-0.988-2.207-2.207
					c0-1.219,0.987-2.207,2.207-2.207h151.091c31.201,0,49.827,14.012,49.827,37.484
					C1598.589,2038.544,1579.963,2052.556,1548.762,2052.556z"/>
				<path style="fill:#E6D0BE;" d="M1554.156,1990.822h-132.24c-1.22,0-2.207-0.988-2.207-2.207c0-1.219,0.987-2.207,2.207-2.207
					h132.24c1.22,0,2.207,0.988,2.207,2.207C1556.363,1989.833,1555.376,1990.822,1554.156,1990.822z"/>
				<path style="fill:#E6D0BE;" d="M1560.77,2006.255h-132.242c-1.22,0-2.207-0.988-2.207-2.207c0-1.219,0.987-2.207,2.207-2.207
					h132.242c1.22,0,2.207,0.988,2.207,2.207C1562.977,2005.267,1561.99,2006.255,1560.77,2006.255z"/>
				<path style="fill:#E6D0BE;" d="M1587.217,2015.074h-156.485c-1.22,0-2.207-0.988-2.207-2.207c0-1.219,0.987-2.207,2.207-2.207
					h156.485c1.22,0,2.207,0.988,2.207,2.207C1589.423,2014.086,1588.436,2015.074,1587.217,2015.074z"/>
				<path style="fill:#E6D0BE;" d="M1571.789,2032.714h-143.261c-1.22,0-2.207-0.988-2.207-2.207s0.987-2.207,2.207-2.207h143.261
					c1.22,0,2.207,0.988,2.207,2.207S1573.008,2032.714,1571.789,2032.714z"/>
			</g>
		</g>
		<g>
			<g>
				<g>
					<polygon style="fill:#84524D;" points="610.739,1888.574 569.604,2012.292 657.96,2012.258 705.18,1888.538 					"/>
					<path style="fill:#E6D0BE;" d="M569.592,2008.124l-54.149,139.846l308.214-0.093c-33.073-54.133-86.86-116.633-165.988-139.782
						L569.592,2008.124z"/>
				</g>
				<g>
					<polygon style="fill:#84524D;" points="469.71,1905.915 494.089,2023.892 571.157,2023.892 571.157,1898 					"/>
					<path style="fill:#F2E6DC;" d="M493.088,2017.277c0,6.615-30.968,134.494-30.968,134.494h177.306l-69.749-134.494H493.088z"/>
				</g>
				<g>
					<path style="fill:#EFBC73;" d="M698.882,1198.569l61.986,187.255c48.212,145.646,45.3,304.966-8.199,448.501l-47.043,126.214
						l-121.761-18.231l33.33-182.559c31.351-172.813,11.31-188.795-46.042-291.595l0,0l10.618-192.177L698.882,1198.569z"/>
					<path style="fill:#EFBC73;" d="M446.805,1291.18c0,0-48.48,263.085,16.689,642.314h116.248c0,0,20.849-550.148,50.792-632.722
						L446.805,1291.18z"/>
					<path style="fill:#363E44;" d="M606.066,1508.637c-0.036,0-0.071-0.001-0.108-0.002c-1.217-0.058-2.157-1.093-2.099-2.31
						l4.289-89.967l39.637-14.55c1.146-0.417,2.413,0.166,2.833,1.311c0.419,1.144-0.167,2.413-1.311,2.833l-36.889,13.539
						l-4.148,87.045C608.211,1507.717,607.236,1508.637,606.066,1508.637z"/>
				</g>
			</g>
			<g>
				<path style="fill:#363E44;" d="M684.875,842.162c0,0-9.089,15.608-2.394,28.237c2.633,4.966,6.487,7.152,10.721,9.94
					c4.397,2.895,33.165,21.839,39.001,46.563c1.207,5.116,3.169,13.428-0.563,20.818c-7.966,15.775-35.75,15.227-69.182,15.754
					c-85.559,1.348-95.779,7.965-149.359,1.14c-39.022-4.971-55.373-11.125-64.108-25.078c-6.079-9.71-8.695-22.885-5.276-40.591
					c11.078-57.381,76.03-54.872,100.614-77.874c24.583-23.002,41.898-46.845,84.185-48.697
					c42.287-1.852,89.61,20.797,85.013,57.198c-0.144,1.136-0.624,5.63-3.981,9.197
					C702.053,846.732,687.167,842.799,684.875,842.162z"/>
				<path style="fill:#363E44;" d="M456.123,939.81c-0.393,0-0.791-0.105-1.151-0.325c-22.277-13.658-31.601-32.919-26.255-54.236
					c7.24-28.876,40.824-54.883,73.338-56.792c50.985-2.994,67.233-25.174,67.392-25.397c0.701-0.992,2.075-1.235,3.071-0.536
					c0.996,0.698,1.24,2.067,0.546,3.063c-0.686,0.985-17.402,24.143-70.75,27.274c-30.76,1.807-62.503,26.288-69.315,53.46
					c-4.837,19.291,3.785,36.835,24.28,49.4c1.04,0.637,1.365,1.996,0.728,3.034C457.59,939.437,456.865,939.81,456.123,939.81z"/>
			</g>
			<g>
				<path style="fill:#FFFFFF;" d="M419.646,1050.409c0,0-26.751,114.034-5.699,251.667l342.34-1.364
					c0,0-25.618-130.436-25.594-197.517L419.646,1050.409z"/>
				<path style="fill:#9D6C5B;" d="M386.376,1091.172c0,0-10.913,129.325,70.523,142.705
					c81.437,13.38,68.746-135.742,68.746-135.742L386.376,1091.172z"/>
				<path style="fill:#FFFFFF;" d="M368.237,1107.101c0,0,100.152,6.323,168.46,39.277c68.308,32.954,269.07,1.785,322.044-48.614
					c0,0-59.451-169.705-249.486-169.436C419.22,928.596,383.214,1022.774,368.237,1107.101z"/>
				<g>
					<path style="fill:#9D6C5B;" d="M854.151,1050.409c0,0,62.3,106.721-7.262,138.344
						c-88.622,40.289-141.766-49.279-141.766-49.279L854.151,1050.409z"/>
					<g>
						<g>
							<polygon style="fill:#D87355;" points="790.242,1164.012 624.299,1164.012 708.136,969.988 874.08,969.988 							"/>
						</g>
						<g>
							<path style="fill:#D87355;" d="M620.039,1154.534c-0.292,0-0.589-0.059-0.875-0.182c-1.118-0.484-1.633-1.783-1.15-2.902
								l81.721-188.953c0.349-0.808,1.145-1.331,2.026-1.331h162.533c1.219,0,2.207,0.988,2.207,2.207
								c0,1.219-0.988,2.207-2.207,2.207H703.211l-81.145,187.622C621.705,1154.036,620.893,1154.534,620.039,1154.534z"/>
						</g>
					</g>
					<g>
						<g>
							<path style="fill:#9D6C5B;" d="M787.532,1017.495c1.336-9.833,23.717-11.151,45.43-10.779
								c15.943,0.273,34.072,1.766,34.072,14.58c0,14.897-22.462,14.878-37.079,13.638
								C808.262,1033.094,786.226,1027.107,787.532,1017.495z"/>
							<path style="fill:#9D6C5B;" d="M780.341,1039.901c1.457-10.38,25.862-11.772,49.539-11.379
								c17.385,0.289,37.154,1.865,37.154,15.393c0,15.727-24.494,15.707-40.433,14.397
								C802.946,1056.369,778.916,1050.049,780.341,1039.901z"/>
							<path style="fill:#9D6C5B;" d="M779.499,1066.805c0.827-10.803,22.289-13.162,43.188-13.645
								c15.345-0.354,32.849,0.534,33.446,14.541c0.694,16.284-20.909,17.184-35.023,16.427
								C800.161,1083.006,778.69,1077.366,779.499,1066.805z"/>
							<path style="fill:#9D6C5B;" d="M784.876,1089.351c0.629-8.946,17.471-10.86,33.874-11.222
								c12.044-0.265,25.785,0.503,26.279,12.107c0.575,13.49-16.38,14.194-27.46,13.542
								C801.124,1102.809,784.26,1098.098,784.876,1089.351z"/>
						</g>
						<g>
							<path style="fill:#363E44;" d="M821.556,1106.058c-1.768,0-3.623-0.057-5.567-0.172c-1.216-0.071-2.145-1.115-2.073-2.332
								c0.071-1.218,1.125-2.163,2.332-2.073c12.054,0.706,20.416-0.885,24.199-4.609c1.715-1.687,2.492-3.827,2.377-6.543
								c-0.104-2.449-0.903-4.355-2.442-5.826l-2.94-2.813l3.962-0.93c8.712-2.045,12.809-6.285,12.524-12.965
								c-0.15-3.522-1.548-6.183-4.276-8.132l-4.267-3.051l5.165-0.917c2.226-0.396,4.223-0.921,5.933-1.561
								c1.144-0.427,2.414,0.151,2.84,1.293c0.428,1.142-0.152,2.414-1.293,2.84c-0.823,0.308-1.698,0.592-2.621,0.85
								c1.805,2.344,2.788,5.185,2.928,8.49c0.241,5.671-1.876,12.902-12.705,16.54c0.969,1.74,1.505,3.745,1.601,5.993
								c0.169,3.978-1.072,7.301-3.691,9.877C839.462,1104.032,832.079,1106.058,821.556,1106.058z"/>
							<path style="fill:#363E44;" d="M858.768,1034.853c-0.039,0-0.077-0.001-0.115-0.003l-46.096-2.36
								c-1.216-0.063-2.153-1.099-2.09-2.317c0.063-1.218,1.105-2.143,2.317-2.09l46.095,2.36c1.217,0.063,2.153,1.099,2.09,2.317
								C860.909,1033.938,859.935,1034.853,858.768,1034.853z"/>
							<path style="fill:#363E44;" d="M852.229,1059.926c-0.048,0-0.094-0.001-0.142-0.004l-44.802-2.84
								c-1.216-0.078-2.139-1.126-2.062-2.343c0.078-1.216,1.117-2.155,2.343-2.062l44.802,2.84
								c1.215,0.078,2.139,1.126,2.062,2.342C854.355,1059.027,853.384,1059.926,852.229,1059.926z"/>
							<path style="fill:#363E44;" d="M842.421,1085c-0.034,0-0.069-0.001-0.102-0.002l-45.724-2.085
								c-1.218-0.056-2.159-1.087-2.104-2.305c0.055-1.218,1.137-2.139,2.305-2.104l45.724,2.085
								c1.218,0.056,2.159,1.087,2.104,2.305C844.57,1084.076,843.594,1085,842.421,1085z"/>
						</g>
					</g>
				</g>
				<g>
					<path style="fill:#9D6C5B;" d="M580.583,979.882c-54.222,41.163-174.707,210.824-174.707,210.824l33.317,38.146l12.842,5.425
						c41.779,17.649,90.073-0.24,110.288-40.851l60.587-125.179c0,0,11.097,2.748,15.712-1.528
						c5.577-5.167,6.505-15.706,6.505-15.706s6.986-1.767,9.59-9.462c2.352-6.951-2.556-12.214-2.556-12.214
						s5.81-8.225,1.905-16.571c-5.821-12.439-29.768-16.844-29.768-16.844s57.571,5.022,56.861-10.115
						C680.504,971.853,600.647,964.65,580.583,979.882z"/>
					<g>
						<path style="fill:#363E44;" d="M418.233,1175.77c-0.45,0-0.904-0.137-1.296-0.422c-0.985-0.716-1.204-2.097-0.486-3.083
							c8.974-12.334,23.12-31.572,39.556-53.171c0.738-0.97,2.124-1.158,3.092-0.42c0.97,0.738,1.158,2.123,0.42,3.093
							c-16.412,21.568-30.539,40.778-39.5,53.095C419.587,1175.456,418.915,1175.77,418.233,1175.77z"/>
					</g>
					<g>
						<path style="fill:#363E44;" d="M652.06,1031.532c-0.699,0-1.388-0.332-1.816-0.949c-2.571-3.709-8.336-10.424-18.068-13.73
							c-7.118-2.418-13.568-2.061-17.727-1.336c-1.2,0.201-2.344-0.595-2.554-1.795c-0.209-1.201,0.595-2.344,1.795-2.554
							c6.694-1.165,13.572-0.643,19.906,1.506c10.931,3.712,17.396,11.239,20.275,15.394c0.695,1.002,0.445,2.377-0.556,3.071
							C652.932,1031.405,652.493,1031.532,652.06,1031.532z"/>
						<path style="fill:#363E44;" d="M645.494,1052.877c-0.646,0-1.288-0.283-1.724-0.828c-3.037-3.793-6.698-6.863-10.879-9.125
							c-6.615-3.576-13.01-4.336-17.254-4.284c-0.003,0-0.006,0-0.01,0c-1.214,0-2.201-0.982-2.207-2.197
							c-0.005-1.219,0.978-2.211,2.197-2.216c0.058,0,0.117,0,0.178,0c4.735,0,11.853,0.847,19.195,4.815
							c4.703,2.544,8.816,5.992,12.226,10.248c0.762,0.952,0.608,2.34-0.344,3.102
							C646.464,1052.719,645.977,1052.877,645.494,1052.877z"/>
						<path style="fill:#363E44;" d="M622.611,1070.155c-0.269,0-0.544-0.051-0.81-0.156c-1.133-0.448-1.688-1.729-1.24-2.863
							l3.373-8.525c0.448-1.131,1.723-1.688,2.864-1.239c1.134,0.448,1.688,1.73,1.239,2.864l-3.373,8.523
							C624.321,1069.625,623.49,1070.155,622.611,1070.155z"/>
					</g>
				</g>
			</g>
			<g>
				<g>
					<polygon style="fill:#9D6C5B;" points="556.522,943.871 593.178,850.133 645.588,865.977 631.672,942.896 					"/>
					<path style="fill:#9D6C5B;" d="M642.726,939.531c0,6.617-20.765,11.982-46.38,11.982c-25.615,0-46.38-5.365-46.38-11.982
						c0-6.617,20.765-13.72,46.38-13.72C621.96,925.811,642.726,932.914,642.726,939.531z"/>
				</g>
				<path style="fill:#9D6C5B;" d="M686.618,825.156c0,0-7.532,73.419-38.556,75.767c-18.769,1.421-35.971-20.169-40.144-30.304
					c-4.172-10.134,0-26.701,0-26.701s6.303,5.905,11.367,2.005c5.064-3.9-0.785-28.422,21.486-27.42
					C663.042,819.505,665.458,828.926,686.618,825.156z"/>
				<path style="fill:#363E44;" d="M640.103,903.589c-0.193,0-0.389-0.026-0.584-0.08c-10.768-2.947-20.96-12.241-26.284-20.143
					c-0.68-1.011-0.413-2.382,0.598-3.063c1.013-0.68,2.383-0.412,3.064,0.598c4.867,7.226,14.111,15.704,23.788,18.352
					c1.176,0.321,1.867,1.535,1.545,2.711C641.961,902.945,641.073,903.589,640.103,903.589z"/>
				<path style="fill:#363E44;" d="M547.252,932.304c0,0,44.143,5.436,54.243-56.34c6.096-37.284,25.108-55.113,32.077-70.511
					C640.541,790.054,565.197,835.79,547.252,932.304z"/>
				<path style="fill:#9D6C5B;" d="M618.335,851.387c1.899,5.925,0.062,16.713-5.861,18.613c-5.923,1.9-13.688-5.808-15.587-11.733
					c-1.899-5.925,1.363-12.268,7.286-14.168C610.095,842.199,616.436,845.462,618.335,851.387z"/>
				<g>
					<g>
						<path style="fill:#FFFFFF;" d="M684.983,850.368c-0.064,0.136-0.013,0.28-0.077,0.416c-0.003,0.006-0.007,0.009-0.01,0.015
							c-0.265,2.092-0.538,4.299-0.417,6.403c0.054,0.932,0.452,1.581,0.603,2.453c0.11,0.64,0.213,1.253,0.348,1.879
							c6.235-3.155,9.986-8.597,9.986-8.597S690.775,850.72,684.983,850.368z"/>
						<path style="fill:#363E44;" d="M678.117,851.004c-7.927,2.082-13.14,8.843-13.984,9.998c0.046,0.105,0.094,0.209,0.143,0.313
							c1.488,0.667,9.224,3.854,17.022,1.805c1.462-0.384,2.823-0.936,4.091-1.575c0.254-0.514,0.485-1.045,0.666-1.607
							c1.069-3.325,0.566-6.773-1.081-9.561C682.803,850.255,680.465,850.387,678.117,851.004z"/>
					</g>
					<g>
						<path style="fill:#FFFFFF;" d="M643.117,851.711c-0.804,2.358-0.976,4.289-0.286,6.574c5.751,1.477,10.894,0.686,10.894,0.686
							s-2.401-7.423-8.325-12.369C644.255,848.036,643.688,850.037,643.117,851.711z"/>
						<path style="fill:#363E44;" d="M642.709,858.251c2.901-3.049,3.999-7.505,2.68-11.639c-0.669-0.55-1.37-1.079-2.132-1.554
							c-7.611-4.749-17.094-3.284-17.094-3.284s2.856,9.164,10.468,13.913C638.597,856.915,640.688,857.721,642.709,858.251z"/>
					</g>
				</g>
				<g>
					<path style="fill:#363E44;" d="M602.859,861.007c-0.94,0-1.81-0.606-2.105-1.551c-0.148-0.474-0.258-0.971-0.325-1.486
						c-0.562-4.292,2.083-8.19,5.896-8.691c0.977-0.129,1.958-0.027,2.904,0.301c1.153,0.398,1.764,1.654,1.366,2.806
						c-0.399,1.152-1.656,1.76-2.806,1.366c-0.295-0.102-0.593-0.136-0.892-0.096c-1.375,0.18-2.334,1.893-2.091,3.741
						c0.033,0.259,0.087,0.508,0.162,0.745c0.363,1.164-0.286,2.401-1.449,2.764C603.299,860.973,603.078,861.007,602.859,861.007z"
						/>
				</g>
				<path style="fill:#363E44;" d="M660.741,872.973c-0.649,0-1.291-0.284-1.727-0.832c-0.76-0.953-0.602-2.341,0.351-3.101
					c0.518-0.413,0.826-0.819,0.868-1.144c0.029-0.234-0.137-0.553-0.554-1.279c-0.424-0.74-0.954-1.661-1.345-2.932
					c-0.5-1.627-0.628-3.379-0.381-5.209c0.164-1.208,1.288-2.042,2.483-1.892c1.208,0.164,2.055,1.275,1.892,2.483
					c-0.164,1.21-0.091,2.295,0.225,3.32c0.246,0.8,0.589,1.399,0.954,2.033c0.622,1.083,1.325,2.309,1.103,4.038
					c-0.193,1.512-1.032,2.87-2.496,4.035C661.708,872.815,661.223,872.973,660.741,872.973z"/>
				<path style="fill:#363E44;" d="M651.818,882.27c-1.585,0-2.77-0.497-3.576-1.013c-2.957-1.901-3.513-5.666-3.567-6.089
					c-0.153-1.209,0.703-2.313,1.913-2.466c1.185-0.159,2.305,0.696,2.464,1.899c0.079,0.556,0.537,2.285,1.587,2.95
					c0.227,0.144,0.921,0.581,2.571,0.066c1.166-0.361,2.402,0.284,2.765,1.448c0.363,1.164-0.286,2.402-1.448,2.765
					C653.52,882.143,652.617,882.27,651.818,882.27z"/>
			</g>
		</g>
		<g>
			
				<rect x="1684.713" y="470.269" transform="matrix(0.8185 -0.5745 0.5745 0.8185 -10.4632 1095.8728)" style="fill:#2D353A;" width="89.071" height="188.455"/>
			<polygon style="fill:#40484C;" points="1727.287,569.275 1926.803,716.82 1841.779,483.291 1642.262,335.747 			"/>
			<g>
				<path style="fill:#EFBC73;" d="M1889.691,875.9c-1.215,0-2.202-0.983-2.207-2.199l-0.61-184.15l-40.439-65.663
					c-0.638-1.038-0.317-2.398,0.722-3.036c1.034-0.639,2.396-0.316,3.036,0.722l41.09,66.721l0.614,185.391
					c0.004,1.219-0.98,2.21-2.2,2.214C1889.695,875.9,1889.693,875.9,1889.691,875.9z"/>
				<polygon style="fill:#EFBC73;" points="1889.577,839.191 1911.085,926.151 1865.631,926.117 				"/>
			</g>
		</g>
	</g>
</g>
</svg>
