<?xml version="1.0" encoding="utf-8"?>
<!-- Generator: Adobe Illustrator 27.5.0, SVG Export Plug-In . SVG Version: 6.00 Build 0)  -->
<svg version="1.1" xmlns="http://www.w3.org/2000/svg" xmlns:xlink="http://www.w3.org/1999/xlink" x="0px" y="0px"
	 viewBox="0 0 2500 2500" style="enable-background:new 0 0 2500 2500;" xml:space="preserve">
<g id="Background">
	<rect style="fill:#FFFFFF;" width="2500" height="2500"/>
</g>
<g id="Illustration">
	<g id="Online_workshop_1_">
		<circle style="fill:#F2E6DC;" cx="1250" cy="1250" r="915"/>
		<g>
			<path style="fill:#E6D0BE;" d="M1771.85,2051.285c1.106-0.116,1.969-1.05,1.971-2.187
				c0.562-236.747,71.564-440.747,131.028-570.19c64.452-140.301,129.614-225.691,130.266-226.537
				c0.741-0.966,0.561-2.35-0.404-3.092c-0.968-0.738-2.35-0.558-3.091,0.404c-0.654,0.848-66.065,86.548-130.723,227.265
				c-59.672,129.868-130.921,334.548-131.485,572.14c-0.003,1.219,0.982,2.207,2.199,2.21
				C1771.692,2051.298,1771.772,2051.293,1771.85,2051.285z"/>
			<path style="fill:#E6D0BE;" d="M1993.761,1309.346c0,0-17.492-76.356,109.766-162.281
				C2103.527,1147.066,2103.585,1298.182,1993.761,1309.346z"/>
			<path style="fill:#E6D0BE;" d="M1957.366,1353.8c1.669,0.938,23.002-73.701-52.194-158.166
				C1905.172,1195.634,1895.177,1318.835,1957.366,1353.8z"/>
			<path style="fill:#E6D0BE;" d="M1915.776,1423.901c0,0-0.699-67.036-103.173-135.42
				C1812.603,1288.482,1857.474,1424.702,1915.776,1423.901z"/>
			<path style="fill:#E6D0BE;" d="M1878.447,1510.549c1.91-0.139-21.503-74.153-130.83-103.074
				C1747.617,1407.474,1807.291,1515.721,1878.447,1510.549z"/>
			<path style="fill:#E6D0BE;" d="M1851.457,1577.389c0,0-36.499-47.645-146.718-42.126
				C1704.739,1535.263,1810.071,1608.97,1851.457,1577.389z"/>
			<path style="fill:#E6D0BE;" d="M1820.807,1670.801c0,0-45.196-26.415-132.356,14.428
				C1688.451,1685.229,1797.821,1709.961,1820.807,1670.801z"/>
			<path style="fill:#E6D0BE;" d="M1968.313,1364.159c-1.448-0.886,47.115-49.672,145.018-27.974
				C2113.331,1336.185,2022.27,1397.188,1968.313,1364.159z"/>
			<path style="fill:#E6D0BE;" d="M1934.227,1434.869c0,0,58.869-32.074,168.537,24.053
				C2102.764,1458.922,1961.955,1486.162,1934.227,1434.869z"/>
			<path style="fill:#E6D0BE;" d="M1896.788,1526.339c-0.81-1.735,75.226-17.38,153.781,63.97
				C2050.569,1590.309,1926.965,1590.987,1896.788,1526.339z"/>
			<path style="fill:#E6D0BE;" d="M1868.393,1589.354c0,0,59.394,8.637,108.315,107.558
				C1976.707,1696.912,1860.998,1640.886,1868.393,1589.354z"/>
			<path style="fill:#E6D0BE;" d="M1836.751,1678.616c0,0,45.099,26.581,51.935,122.593
				C1888.687,1801.209,1813.769,1717.778,1836.751,1678.616z"/>
		</g>
		<g>
			
				<ellipse transform="matrix(0.7071 -0.7071 0.7071 0.7071 19.0299 1496.7068)" style="fill:#E6D0BE;" cx="1816.2" cy="725.382" rx="295.086" ry="295.086"/>
			<path style="fill:#FFFFFF;" d="M1858.99,1021.469c-0.588,0-1.164-0.002-1.753-0.005c-79.087-0.456-153.262-31.681-208.862-87.926
				s-85.97-130.774-85.515-209.861c0.455-79.086,31.682-153.261,87.926-208.862c55.825-55.187,129.678-85.52,208.107-85.52
				c0.588,0,1.164,0.002,1.753,0.005c79.087,0.455,153.262,31.681,208.862,87.926c55.601,56.244,85.97,130.774,85.515,209.86
				c-0.455,79.086-31.682,153.261-87.926,208.862C2011.272,991.135,1937.419,1021.469,1858.99,1021.469z M1858.914,431.296
				c-161.387,0-293.123,130.8-294.054,292.393c-0.452,78.552,29.712,152.579,84.937,208.443
				c55.226,55.865,128.899,86.88,207.452,87.332c0.564,0.003,1.157,0.005,1.721,0.005c161.387,0.016,293.123-130.8,294.054-292.393
				c0.452-78.552-29.712-152.579-84.938-208.443c-55.225-55.865-128.898-86.88-207.451-87.332
				C1860.07,431.297,1859.478,431.296,1858.914,431.296z"/>
			<path style="fill:#FFFFFF;" d="M1859.459,583.242c-81.932,0-162.463-13.795-232.889-39.892l0.695-1.875
				c70.205,26.016,150.497,39.768,232.193,39.768c81.07,0,160.825-13.554,230.644-39.196l0.689,1.877
				C2020.756,569.646,1940.762,583.242,1859.459,583.242z"/>
			<path style="fill:#FFFFFF;" d="M1624.569,905.201l-0.705-1.872c71.1-26.759,152.566-40.903,235.595-40.903
				c82.579,0,163.664,14.001,234.49,40.488l-0.701,1.873c-70.604-26.405-151.446-40.362-233.789-40.362
				C1776.669,864.427,1695.445,878.526,1624.569,905.201z"/>
			<path style="fill:#FFFFFF;" d="M1858.942,1021.469c-41.314,0-80.103-30.886-109.22-86.968
				c-29.01-55.874-44.985-130.14-44.985-209.118c0-78.978,15.976-153.244,44.985-209.118c29.117-56.082,67.905-86.968,109.22-86.968
				s80.103,30.886,109.219,86.968c29.01,55.874,44.985,130.141,44.985,209.118s-15.976,153.244-44.985,209.118
				C1939.045,990.583,1900.257,1021.469,1858.942,1021.469z M1858.942,431.296c-83.926,0-152.205,131.927-152.205,294.087
				s68.279,294.086,152.205,294.086s152.204-131.927,152.204-294.086S1942.868,431.296,1858.942,431.296z"/>
			<rect x="1857.942" y="430.924" style="fill:#FFFFFF;" width="2" height="589.152"/>
			
				<rect x="1857.886" y="428.374" transform="matrix(0.0078 -1 1 0.0078 1120.8285 2576.7786)" style="fill:#FFFFFF;" width="2" height="590.431"/>
		</g>
		<g>
			<g>
				<path style="fill:#FFFFFF;" d="M1389.167,614.605h-42.115v-12.024c-5.197-0.996-10.36-2.377-15.372-4.111l-6.007,10.407
					l-36.474-21.058l6.021-10.43c-4-3.469-7.776-7.245-11.242-11.242l-10.431,6.022l-21.058-36.474l10.407-6.008
					c-1.734-5.01-3.116-10.173-4.112-15.371h-12.023V472.2l12.023,0c0.996-5.198,2.378-10.361,4.112-15.371l-10.407-6.008
					l21.058-36.473l10.431,6.022c3.467-3.997,7.242-7.773,11.242-11.242l-6.021-10.43l36.474-21.058l6.007,10.407
					c5.012-1.735,10.175-3.115,15.372-4.111V371.91h42.115v12.024c5.197,0.996,10.36,2.377,15.371,4.111l6.008-10.406l36.474,21.058
					l-6.021,10.43c3.997,3.466,7.772,7.242,11.242,11.242l10.43-6.022l21.058,36.474l-10.406,6.008
					c1.736,5.016,3.117,10.179,4.111,15.371h12.023v42.116h-12.023c-0.994,5.192-2.375,10.355-4.111,15.371l10.406,6.008
					l-21.058,36.474l-10.43-6.022c-3.47,4-7.245,7.776-11.242,11.242l6.021,10.43l-36.474,21.058l-6.008-10.407
					c-5.011,1.734-10.174,3.115-15.371,4.111V614.605z M1349.052,612.605h38.115v-11.686l0.819-0.15
					c5.643-1.036,11.251-2.536,16.669-4.458l0.784-0.278l5.839,10.113l33.009-19.058l-5.852-10.136l0.633-0.54
					c4.362-3.726,8.465-7.829,12.193-12.194l0.541-0.632l10.135,5.852l19.058-33.009l-10.112-5.839l0.278-0.784
					c1.924-5.425,3.424-11.033,4.458-16.669l0.15-0.819h11.687V474.2h-11.687l-0.15-0.819c-1.034-5.636-2.534-11.244-4.458-16.669
					l-0.278-0.784l10.112-5.839l-19.058-33.009l-10.135,5.852l-0.541-0.632c-3.729-4.366-7.832-8.469-12.193-12.194l-0.633-0.54
					l5.852-10.136l-33.009-19.058l-5.839,10.113l-0.784-0.278c-5.419-1.922-11.026-3.422-16.669-4.458l-0.819-0.15V373.91h-38.115
					v11.687l-0.819,0.15c-5.642,1.036-11.25,2.536-16.67,4.458l-0.784,0.278l-5.838-10.113l-33.009,19.058l5.852,10.136l-0.633,0.54
					c-4.365,3.729-8.468,7.831-12.193,12.194l-0.54,0.633l-10.137-5.852l-19.058,33.009l10.113,5.839l-0.278,0.784
					c-1.922,5.417-3.422,11.026-4.459,16.669l-0.15,0.819h-11.687v38.116h11.687l0.15,0.819c1.037,5.643,2.537,11.251,4.459,16.669
					l0.278,0.784l-10.113,5.839l19.058,33.009l10.137-5.852l0.54,0.632c3.726,4.362,7.828,8.465,12.193,12.194l0.633,0.54
					l-5.852,10.136l33.009,19.058l5.838-10.113l0.784,0.278c5.42,1.922,11.028,3.422,16.67,4.458l0.819,0.15V612.605z
					 M1368.302,580.955c-23.24,0-45.519-8.862-62.273-25.618c-24.394-24.394-32.057-60.498-19.998-94.224
					c8.358-23.378,26.561-41.579,49.938-49.937c33.729-12.057,69.831-4.393,94.224,20.001
					c24.393,24.394,32.055,60.498,19.995,94.223l-0.941-0.337l0.941,0.337c-8.358,23.378-26.56,41.579-49.938,49.937
					C1389.69,579.113,1378.895,580.955,1368.302,580.955z M1367.91,407.562c-10.368,0-20.93,1.803-31.268,5.498
					c-22.813,8.156-40.573,25.916-48.729,48.727c-11.795,32.99-4.313,68.294,19.529,92.136
					c23.841,23.842,59.146,31.326,92.134,19.531c22.812-8.155,40.572-25.916,48.729-48.727
					c11.796-32.989,4.313-68.294-19.526-92.135C1412.407,416.221,1390.63,407.562,1367.91,407.562z"/>
			</g>
		</g>
		<g>
			<g>
				<g>
					
						<rect x="430.367" y="757.045" transform="matrix(-1 -1.224647e-16 1.224647e-16 -1 2228.4817 2550.7842)" style="fill:#D3BBA3;" width="1367.748" height="1036.695"/>
					
						<rect x="680.372" y="592.863" transform="matrix(-1.836970e-16 1 -1 -1.836970e-16 2348.0664 119.5845)" style="fill:#F2E6DC;" width="867.738" height="1281.924"/>
					<path style="fill:#F7F1EB;" d="M1088.495,1725.623c0,14.219,11.527,25.746,25.746,25.746c14.219,0,25.746-11.527,25.746-25.746
						c0-14.219-11.527-25.746-25.746-25.746C1100.022,1699.877,1088.495,1711.404,1088.495,1725.623z"/>
				</g>
				<path style="fill:#E6D0BE;" d="M430.367,1821.844c0,59.336,48.102,107.439,107.438,107.439h1433.651
					c59.336,0,107.438-48.103,107.438-107.439H430.367z"/>
				<path style="fill:#F2E6DC;" d="M790.383,1919.15c-47.516,0-86.173-38.657-86.173-86.172c0-0.552,0.447-1,1-1
					c0.553,0,1,0.448,1,1c0,46.413,37.76,84.172,84.173,84.172c0.553,0,1,0.448,1,1S790.935,1919.15,790.383,1919.15z"/>
				<path style="fill:#F2E6DC;" d="M1498.107,1893.892h-160.723c-25.725,0-46.653-20.928-46.653-46.653c0-0.552,0.447-1,1-1h252.028
					c0.553,0,1,0.448,1,1C1544.76,1872.963,1523.832,1893.892,1498.107,1893.892z M1292.742,1848.239
					c0.533,24.162,20.354,43.653,44.643,43.653h160.723c24.288,0,44.108-19.49,44.642-43.653H1292.742z"/>
			</g>
			<g>
				<polygon style="opacity:0.5;fill:#FFFFFF;" points="555.055,643.565 558.001,383.11 992.67,385.411 992.895,598.251 
					1024.679,648.295 936.02,646.721 				"/>
				<path style="fill:#8B865C;" d="M1053.759,635.093c-0.01,0-0.02,0-0.03-0.001l-101.649-3.057l-380.942-3.156
					c-0.267-0.002-0.521-0.11-0.706-0.3c-0.187-0.19-0.289-0.446-0.286-0.711l2.946-260.455c0.006-0.548,0.452-0.989,1-0.989
					c0.002,0,0.004,0,0.005,0l434.669,2.302c0.551,0.003,0.996,0.451,0.995,1.001l-0.31,215.953l45.036,47.725
					c0.277,0.294,0.351,0.727,0.185,1.096C1054.51,634.863,1054.151,635.093,1053.759,635.093z M572.156,626.888l379.961,3.148
					l99.255,2.985l-43.65-46.257c-0.175-0.186-0.272-0.432-0.272-0.688l0.31-215.355l-432.68-2.291L572.156,626.888z"/>
				<g>
					<path style="fill:#8B865C;" d="M902.242,443.326c-0.003,0-0.006,0-0.008,0l-260.298-2.157
						c-0.553-0.005-0.997-0.456-0.992-1.008c0.005-0.549,0.451-0.992,1-0.992c0.003,0,0.006,0,0.008,0l260.298,2.157
						c0.553,0.005,0.997,0.456,0.992,1.008C903.237,442.883,902.791,443.326,902.242,443.326z"/>
					<path style="fill:#8B865C;" d="M943.601,443.668c-0.003,0-0.006,0-0.008,0l-16.217-0.134c-0.553-0.005-0.997-0.456-0.992-1.008
						c0.005-0.549,0.451-0.992,1-0.992c0.003,0,0.006,0,0.008,0l16.217,0.134c0.553,0.005,0.997,0.456,0.992,1.008
						C944.596,443.226,944.149,443.668,943.601,443.668z"/>
					<path style="fill:#8B865C;" d="M712.377,490.351c-0.003,0-0.006,0-0.008,0l-71.129-0.589c-0.553-0.005-0.997-0.456-0.992-1.008
						c0.005-0.549,0.451-0.992,1-0.992c0.003,0,0.006,0,0.008,0l71.129,0.589c0.553,0.004,0.997,0.456,0.992,1.008
						C713.372,489.908,712.926,490.351,712.377,490.351z"/>
					<path style="fill:#8B865C;" d="M942.905,492.261c-0.003,0-0.006,0-0.008,0l-150.829-1.25c-0.553-0.004-0.997-0.456-0.992-1.008
						c0.005-0.549,0.451-0.992,1-0.992c0.003,0,0.006,0,0.008,0l150.829,1.25c0.553,0.005,0.997,0.456,0.992,1.008
						C943.9,491.818,943.454,492.261,942.905,492.261z"/>
					<path style="fill:#8B865C;" d="M839.969,540.006c-0.003,0-0.006,0-0.008,0l-199.416-1.652
						c-0.553-0.005-0.997-0.456-0.992-1.008c0.005-0.549,0.451-0.992,1-0.992c0.003,0,0.006,0,0.008,0l199.416,1.652
						c0.553,0.005,0.997,0.456,0.992,1.008C840.964,539.563,840.518,540.006,839.969,540.006z"/>
					<path style="fill:#8B865C;" d="M942.209,540.853c-0.003,0-0.006,0-0.008,0l-48.552-0.402c-0.553-0.005-0.997-0.456-0.992-1.008
						c0.005-0.549,0.451-0.992,1-0.992c0.003,0,0.006,0,0.008,0l48.552,0.402c0.553,0.005,0.997,0.456,0.992,1.008
						C943.204,540.411,942.758,540.853,942.209,540.853z"/>
				</g>
			</g>
			<g>
				<path style="fill:#363E44;" d="M1043.443,1214.639h322.641c75.125,131.89,114.772,285.322,107.553,450.478H935.89
					C928.67,1499.906,968.342,1346.492,1043.443,1214.639z"/>
				<path style="fill:#E2A18D;" d="M989.375,948.149c-181.657,39.175-262.763,77.615-258.452,133.321
					c4.446,57.448,124.588,72.009,285.425,35.079C1039.325,1111.274,1017.839,942.011,989.375,948.149z"/>
				<g>
					<path style="fill:#FFFFFF;" d="M1433.752,929.714c0,0-50.529-10.385-111.835-18.343
						c-35.901-4.66-110.806,89.821-110.806,89.821s-81.687-94.392-121.498-88.425c-61.224,9.176-112.055,21.141-112.055,21.141
						l43.645,322.472h363.188L1433.752,929.714z"/>
					<circle style="fill:#FFFFFF;" cx="1027.114" cy="1108.598" r="66.189"/>
					<path style="fill:#363E44;" d="M1250.391,1159.839c-20.757,0-40.025-9.372-52.864-25.714c-0.342-0.434-0.266-1.063,0.168-1.404
						c0.437-0.342,1.063-0.265,1.404,0.169c12.457,15.856,31.152,24.95,51.292,24.95c35.945,0,65.189-29.244,65.189-65.189
						c0-0.552,0.447-1,1-1s1,0.448,1,1C1317.58,1129.698,1287.439,1159.839,1250.391,1159.839z"/>
				</g>
				<g>
					<path style="fill:#E2A18D;" d="M878.193,1021.448c0.001-0.004-34.868-204.614-41.683-237.085
						c-0.714-3.4-1.946-9.408-5.604-16.49c-13.554-26.242-38.685-25.185-65.527-46.275c-30.457-23.93-34.058-54.648-43.743-52.637
						c-6.737,1.399-8.64,13.368-3.316,37.21c0,0.002-0.003,0.003-0.004,0.001c-6.127-17.649-15.482-41.221-25.225-37.807
						c-11.039,4.544-3.301,33.53,2.237,50.836c-6.704-20.947-16.535-30.08-21.493-26.823c-7.804,5.128-6.389,22.582,3.545,49.922
						c0,0.001-0.001,0.002-0.002,0.001c-12.133-16.962-17.604-19.269-21.285-15.321c-6.72,7.208,1.87,29.533,12.489,48.104
						c11.954,20.907,28.478,32.974,39.079,40.335c0.003,0.002,0.005,0.005,0.005,0.009c9.715,106.097,15.518,174.359,21.925,260.184
						C732.886,1119.773,866.924,1108.998,878.193,1021.448z"/>
					<path style="fill:#E2A18D;" d="M785.487,746.685c-4.993-37.998,1.259-52.762,7.306-53.361
						c10.169-1.008,27.711,29.688,42.004,84.303C820.286,770.238,799.997,754.073,785.487,746.685z"/>
					<path style="fill:#363E44;" d="M769.06,809.378c-0.495,0-0.925-0.367-0.99-0.871c-0.861-6.614-3.51-16.379-11.241-25.335
						c-10.944-12.676-25.36-15.656-31.051-16.348c-0.548-0.067-0.938-0.565-0.871-1.114c0.066-0.548,0.566-0.939,1.113-0.872
						c5.921,0.721,20.923,3.823,32.322,17.027c8.056,9.332,10.815,19.498,11.71,26.384c0.071,0.548-0.315,1.049-0.862,1.121
						C769.146,809.375,769.102,809.378,769.06,809.378z"/>
					<path style="fill:#363E44;" d="M817.789,754.394c-0.221,0-0.443-0.073-0.628-0.223c-6.416-5.193-14.04-8.793-22.11-12.604
						c-3.842-1.814-7.813-3.689-11.904-5.842c-0.488-0.257-0.677-0.862-0.419-1.351c0.256-0.489,0.861-0.676,1.351-0.419
						c4.052,2.132,8.004,3.999,11.826,5.803c8.183,3.864,15.912,7.513,22.515,12.857c0.43,0.348,0.496,0.977,0.148,1.406
						C818.37,754.267,818.081,754.394,817.789,754.394z"/>
					<path style="fill:#363E44;" d="M739.643,734.768c-0.229,0-0.461-0.079-0.648-0.239c-3.597-3.067-6.922-6.481-9.884-10.145
						c-4.3-5.319-7.878-11.21-10.635-17.508c-0.222-0.506,0.009-1.096,0.515-1.317c0.51-0.222,1.097,0.009,1.317,0.515
						c2.686,6.135,6.171,11.872,10.357,17.053c2.885,3.569,6.124,6.893,9.626,9.881c0.421,0.358,0.471,0.99,0.112,1.41
						C740.206,734.649,739.925,734.768,739.643,734.768z"/>
					<path style="fill:#363E44;" d="M715.881,745.053c-0.231,0-0.461-0.079-0.65-0.239c-3.597-3.069-6.922-6.482-9.882-10.145
						c-4.298-5.318-7.877-11.208-10.636-17.508c-0.222-0.506,0.009-1.096,0.515-1.317c0.51-0.222,1.097,0.009,1.317,0.515
						c2.688,6.137,6.173,11.874,10.358,17.053c2.884,3.568,6.122,6.892,9.626,9.881c0.42,0.358,0.47,0.99,0.111,1.41
						C716.444,744.934,716.163,745.053,715.881,745.053z"/>
					<path style="fill:#363E44;" d="M698.034,771.008c-0.23,0-0.461-0.078-0.649-0.239c-3.6-3.071-6.924-6.484-9.882-10.145
						c-4.298-5.318-7.877-11.208-10.636-17.508c-0.222-0.506,0.009-1.095,0.515-1.317c0.51-0.222,1.097,0.009,1.317,0.515
						c2.688,6.137,6.173,11.874,10.358,17.053c2.881,3.565,6.119,6.89,9.626,9.881c0.42,0.358,0.47,0.99,0.111,1.41
						C698.598,770.888,698.316,771.008,698.034,771.008z"/>
				</g>
				<g>
					<path style="opacity:0.5;fill:#FFFFFF;" d="M1049.579,982.914c8.244,30.7-9.775,86.404-22.465,112.059
						c-27.711,56.022-49.896,89.067-123.978,38.969c-12.964-64.454-18.265-91.532-30.815-155.016
						c8.961-26.685,17.85-94.425,88.603-94.425C1000.097,884.499,1033.882,924.456,1049.579,982.914z"/>
					<path style="fill:#FFFFFF;" d="M963.461,1159.584c-16.433,0-36.144-8.083-60.886-24.814l-0.339-0.229l-0.081-0.402
						c-10.742-53.406-16.08-80.433-24.925-125.209l-5.941-30.071l0.084-0.252c1.117-3.327,2.213-7.221,3.481-11.73
						c8.769-31.184,23.444-83.377,86.071-83.377c19.258,0,37.889,9.552,53.879,27.623c15.528,17.549,27.888,42.284,35.741,71.532
						c7.979,29.714-8.729,84.852-22.534,112.761c-15.163,30.654-29.615,56.53-52.985,62.708
						C971.352,1159.094,967.506,1159.584,963.461,1159.584z M904.035,1133.342c30.146,20.327,52.547,27.588,70.478,22.848
						c22.558-5.962,36.762-31.453,51.704-61.661c13.67-27.636,30.24-82.139,22.396-111.356
						c-7.774-28.951-19.983-53.407-35.308-70.725c-15.6-17.63-33.713-26.948-52.381-26.948c-61.112,0-75.531,51.28-84.146,81.919
						c-1.191,4.238-2.318,8.247-3.425,11.573l5.839,29.551C888.015,1053.203,893.348,1080.204,904.035,1133.342z"/>
					<path style="fill:#FFFFFF;" d="M1014.373,967.575c-1.85,0-4.977-1.701-10.683-4.805c-7.566-4.116-19-10.337-36.65-17.834
						c-17.617-7.483-31.287-11.934-41.268-15.185c-12.161-3.96-17.194-5.599-16.835-8.712c0.103-0.893,0.702-1.728,1.781-2.482
						c5.51-3.852,25.848-6.484,45.169-1.84c33.827,8.129,56.715,36.184,60.123,45.977c0.668,1.92,0.671,3.263,0.009,4.107
						C1015.609,967.322,1015.086,967.575,1014.373,967.575z M910.923,921.269c-0.171,1.488,7.076,3.848,15.468,6.581
						c10.017,3.262,23.734,7.729,41.431,15.245c17.74,7.535,29.225,13.784,36.825,17.918c4.831,2.628,9.017,4.903,9.824,4.533
						c0.057-0.089,0.168-0.753-0.39-2.307c-3.407-9.494-25.859-36.694-58.661-44.577c-18.785-4.514-38.346-2.107-43.557,1.535
						C911.039,920.773,910.935,921.163,910.923,921.269z"/>
					<path style="fill:#FFFFFF;" d="M911.386,1001.648c-0.867,0-1.523-0.28-2.028-0.858c-0.59-0.677-0.804-1.682-0.635-2.988
						c0.862-6.668,12.609-23.476,29.052-34.635c28.785-19.537,64.941-17.57,74.475-13.496c1.869,0.799,2.864,1.701,3.043,2.759
						c0.396,2.35-2.783,3.453-11.281,6.401c-8.139,2.823-20.436,7.088-37.864,15.09c-17.393,7.987-29.888,15.096-39.012,20.288
						C918.74,998.986,914.06,1001.648,911.386,1001.648z M993.091,948.984c-15.172,0-36.202,3.628-54.193,15.838
						c-15.988,10.851-27.376,26.933-28.191,33.237c-0.129,0.997,0.089,1.336,0.159,1.417c0.986,1.127,7.608-2.639,15.28-7.005
						c9.155-5.209,21.694-12.344,39.167-20.367c17.516-8.042,29.868-12.327,38.042-15.162c5.198-1.803,9.687-3.36,9.968-4.212
						c-0.028-0.102-0.444-0.631-1.97-1.265C1008.042,950.088,1001.456,948.984,993.091,948.984z"/>
				</g>
				<g>
					<path style="fill:#E2A18D;" d="M1180.932,1290.883c14.653-4.175,28.092,1.993,28.727-0.715
						c0.477-2.032-7.622-5.51-15.497-6.428c-12.992-1.516-32.755,11.328-39.083,3.395c-6.199-7.772,8.597-23.46,27.302-30.094
						c15.771-5.594,30.995,2.699,31.803-0.662c0.568-2.365-5.848-6.064-20.523-11.95c-12.249-4.914-39.24-8.332-36.013-21.919
						c2.715-11.427,31.098-10.357,57.081-4.535c17.216,3.858,34.186,9.777,44.115,12.791c-1.718-5.237-4.705-13.182-9.77-22.143
						c-9.036-15.985-14.363-20.541-10.128-27.685c4.363-7.362,17.51-0.864,30.023,10.13c14.927,13.114,20.37,28.418,25.119,36.382
						c33.507-13.243,105.386-39.739,138.893-52.982c-2.565-1.833-19.095-23.121-30.524-37.638l26.909-178.084
						c29.998,27.975,203.459,204.273,192.953,249.571c-11.489,49.526-252.725,133.158-319.51,147.559
						c-8.318,4.893-21.515,10.939-37.474,10.252c-18.191-0.783-22.549-9.565-41.618-13.381c-32.185-6.44-51.689,13.095-57.732,3.16
						c-4.147-6.819,6.725-18.693,19.459-26.946c13.073-8.472,25.094-8.447,24.911-10.992c-0.201-2.792-12.416-1.237-27.782-0.698
						c-7.139,0.251-26.319,13.01-33.359,4.529C1143.602,1315.04,1160.221,1296.784,1180.932,1290.883z"/>
					<path style="fill:#363E44;" d="M1289.435,1246.203c-0.194,0-0.39-0.056-0.563-0.174c-9.721-6.631-23.338-11.799-30.59-14.289
						c-0.521-0.179-0.8-0.748-0.62-1.271c0.178-0.522,0.74-0.801,1.271-0.621c7.347,2.523,21.152,7.766,31.066,14.529
						c0.456,0.311,0.574,0.933,0.263,1.39C1290.068,1246.051,1289.754,1246.203,1289.435,1246.203z"/>
				</g>
				<g>
					<path style="opacity:0.5;fill:#FFFFFF;" d="M1386.309,950.472c27.076-21.642,74.708-28.416,102.916-22.112
						c61.597,13.765,110.498,76.379,83.596,187.221c-55.884,19.975-83.922,37.201-139.806,57.177
						c-12.895-3.541-75.156-39.78-87.022-103.127C1344.305,1060.614,1334.752,991.682,1386.309,950.472z"/>
					<path style="fill:#FFFFFF;" d="M1433.055,1173.805l-0.304-0.084c-7.345-2.017-26.508-12.746-44.314-29.369
						c-16.29-15.208-37.047-40.484-43.425-74.538c-0.583-3.111-13.654-76.698,40.674-120.123
						c27.476-21.962,75.253-28.678,103.757-22.307c30.026,6.71,55.431,24.663,71.533,50.553
						c21.779,35.016,26.211,82.694,12.817,137.88l-0.127,0.524l-0.508,0.182c-27.907,9.975-49.222,19.423-69.835,28.561
						c-20.646,9.152-41.994,18.616-69.971,28.616L1433.055,1173.805z M1466.181,927.074c-26.553,0-58.688,7.746-79.247,24.18
						c-53.4,42.683-40.53,115.129-39.957,118.192c11.399,60.857,71.081,97.887,86.004,102.262
						c27.76-9.935,48.994-19.349,69.533-28.453c20.521-9.097,41.734-18.501,69.463-28.434
						c13.11-54.432,8.722-101.388-12.699-135.828c-15.817-25.43-40.773-43.065-70.271-49.657
						C1482.304,927.838,1474.515,927.074,1466.181,927.074z M1386.31,950.472h0.01H1386.31z"/>
					<path style="fill:#FFFFFF;" d="M1518.783,997.534c-1.852,0-4.978-1.701-10.683-4.805c-7.566-4.116-19.001-10.337-36.65-17.834
						c-17.617-7.483-31.287-11.934-41.269-15.184c-12.161-3.96-17.194-5.599-16.835-8.712c0.103-0.893,0.702-1.728,1.781-2.482
						c5.512-3.851,25.845-6.484,45.169-1.84c33.827,8.129,56.715,36.185,60.123,45.977c0.668,1.92,0.671,3.263,0.009,4.107
						C1520.02,997.281,1519.496,997.534,1518.783,997.534z M1415.333,951.228c-0.171,1.488,7.076,3.848,15.468,6.581
						c10.017,3.262,23.734,7.728,41.431,15.245c17.739,7.535,29.225,13.783,36.824,17.918c4.832,2.628,9.018,4.903,9.825,4.533
						c0.057-0.089,0.168-0.753-0.39-2.307c-3.407-9.494-25.859-36.694-58.661-44.577c-18.785-4.514-38.347-2.107-43.557,1.535
						C1415.449,950.732,1415.346,951.122,1415.333,951.228z"/>
					<path style="fill:#FFFFFF;" d="M1482.873,1065.264c-2.245,0-4.56-3.72-9.763-12.084c-5.698-9.16-14.309-23.002-28.903-42.078
						c-14.566-19.039-26.705-32.335-35.568-42.043c-10.696-11.716-15.123-16.565-12.931-19.566c0.619-0.848,1.727-1.352,3.292-1.499
						c8.346-0.787,32.004,8.888,50.122,25.831c31.739,29.68,39.318,74.242,36.987,86.971c-0.441,2.412-1.219,3.815-2.375,4.29
						C1483.444,1065.203,1483.159,1065.264,1482.873,1065.264z M1400.13,949.942c-0.334,0-0.647,0.014-0.942,0.042
						c-0.943,0.089-1.605,0.333-1.864,0.688c-1.229,1.681,4.653,8.122,12.793,17.038c8.888,9.735,21.061,23.068,35.679,42.176
						c14.654,19.153,23.296,33.045,29.014,42.237c3.684,5.922,7.188,11.524,8.166,11.111c0.263-0.108,0.805-0.819,1.168-2.8
						c2.274-12.423-5.208-55.994-36.386-85.15C1430.692,959.327,1408.839,949.942,1400.13,949.942z M1396.516,950.081h0.01H1396.516
						z"/>
				</g>
				<g>
					<g>
						<g>
							
								<ellipse transform="matrix(0.0217 -0.9998 0.9998 0.0217 447.8665 2112.1768)" style="fill:#84524D;" cx="1303.218" cy="827.236" rx="68.547" ry="68.546"/>
							<path style="fill:#84524D;" d="M1312.259,902.939c-38.348,0-69.546-31.198-69.546-69.547
								c0-38.348,31.198-69.547,69.546-69.547c38.349,0,69.547,31.198,69.547,69.547
								C1381.806,871.741,1350.607,902.939,1312.259,902.939z M1312.259,765.846c-37.245,0-67.546,30.301-67.546,67.547
								c0,37.245,30.301,67.547,67.546,67.547s67.547-30.301,67.547-67.547C1379.806,796.147,1349.504,765.846,1312.259,765.846z"/>
						</g>
						<path style="fill:#E2A18D;" d="M1202.012,959.068c27.278,0.922,50.139-20.444,51.061-47.722l4.481-132.595l-98.783-3.339
							l-4.481,132.596C1153.369,935.286,1174.734,958.147,1202.012,959.068z"/>
						<g>
							<path style="fill:#84524D;" d="M1199.651,623.737c22.937-12.553,45.414-8.802,59.39-1.618
								c39.722,20.419,59.538,75.016,45.214,139.507c-64.861-4.268-129.72-8.536-194.581-12.804
								c-5.667-42.013-6.057-85.043,17.648-110.181C1157.946,606.165,1195.289,623.553,1199.651,623.737z"/>
							<path style="fill:#E2A18D;" d="M1121.334,741.35c-3.419,53.603,30.79,99.415,76.409,102.325
								c45.619,2.91,85.373-38.184,88.792-91.787c3.419-53.602-31.148-95.196-76.767-98.106
								C1164.15,650.872,1124.754,687.747,1121.334,741.35z"/>
							<path style="fill:#E2A18D;" d="M1273.868,734.245c-11.272,14.81-10.192,34.592,2.412,44.185
								c12.604,9.593,31.959,5.364,43.231-9.445c11.272-14.81,10.192-34.592-2.412-44.185
								C1304.495,715.206,1285.14,719.435,1273.868,734.245z"/>
							<path style="fill:#E2A18D;" d="M1137.163,725.524c9.299,16.122,5.714,35.606-8.007,43.52
								c-13.72,7.914-32.381,1.26-41.68-14.862c-9.299-16.122-5.714-35.606,8.007-43.52
								C1109.204,702.748,1127.865,709.402,1137.163,725.524z"/>
							<path style="fill:#363E44;" d="M1202.334,844.821c-1.548,0-3.098-0.049-4.653-0.149c-17.377-1.109-33.642-8.363-47.036-20.98
								c-0.402-0.379-0.421-1.012-0.042-1.414c0.379-0.402,1.011-0.421,1.413-0.042c13.051,12.293,28.886,19.361,45.792,20.44
								c17.26,1.101,34.125-4.104,48.822-15.048c0.444-0.331,1.069-0.238,1.399,0.205c0.33,0.443,0.238,1.069-0.204,1.399
								C1234.065,839.479,1218.426,844.821,1202.334,844.821z"/>
							<path style="fill:#363E44;" d="M1122.651,768.416c-0.479,0-0.902-0.346-0.985-0.834c-1.045-6.197-1.572-12.572-1.567-18.949
								c0-0.552,0.448-0.999,1-0.999c0.552,0,1,0.448,1,1.001c-0.005,6.266,0.514,12.529,1.54,18.615
								c0.092,0.545-0.275,1.06-0.82,1.152C1122.763,768.412,1122.706,768.416,1122.651,768.416z"/>
							<path style="fill:#363E44;" d="M1282.046,778.148c-0.095,0-0.19-0.014-0.286-0.042c-0.529-0.158-0.83-0.715-0.672-1.244
								c2.037-6.821,3.428-13.931,4.134-21.132c0.055-0.549,0.532-0.952,1.093-0.898c0.55,0.054,0.951,0.543,0.897,1.093
								c-0.718,7.329-2.134,14.565-4.208,21.509C1282.875,777.868,1282.477,778.148,1282.046,778.148z"/>
							<path style="fill:#363E44;" d="M1197.801,778.059c-0.217,0-0.436-0.07-0.619-0.216c-2.873-2.27-4.337-4.625-4.353-6.999
								c-0.015-2.092,1.043-3.524,2.163-5.041c0.995-1.347,2.024-2.739,2.485-4.827c0.419-1.895,0.268-3.941-0.448-6.084
								c-0.175-0.524,0.107-1.09,0.631-1.265c0.527-0.176,1.091,0.108,1.266,0.631c0.833,2.49,1.002,4.896,0.505,7.149
								c-0.553,2.503-1.763,4.14-2.829,5.584c-0.996,1.348-1.782,2.412-1.772,3.839c0.012,1.737,1.22,3.568,3.593,5.443
								c0.434,0.342,0.507,0.971,0.164,1.405C1198.389,777.929,1198.097,778.059,1197.801,778.059z"/>
							<path style="fill:#363E44;" d="M1210.729,797.07c-0.823,0-1.551-0.041-2.161-0.097c-0.55-0.05-0.955-0.537-0.905-1.087
								c0.051-0.55,0.526-0.956,1.087-0.905c2.77,0.253,8.2,0.178,13.501-3.153c2.771-1.741,5.148-4.169,6.875-7.021
								c0.286-0.473,0.9-0.623,1.373-0.338c0.473,0.286,0.624,0.901,0.338,1.373c-1.887,3.117-4.487,5.773-7.521,7.679
								C1218.686,796.429,1213.976,797.07,1210.729,797.07z"/>
							<g>
								<path style="fill:#40484C;" d="M1169.718,772.465c-9.373,0-19.886-2.948-29.764-8.367
									c-10.329-5.667-18.754-13.372-23.721-21.696c-5.066-8.491-5.953-16.636-2.497-22.936c7.033-12.821,30.238-13.659,51.73-1.87
									c21.489,11.79,33.25,31.812,26.218,44.633l0,0c-3.457,6.3-10.803,9.929-20.686,10.218
									C1170.574,772.459,1170.146,772.465,1169.718,772.465z M1135.645,711.211c-9.295,0-16.793,3.089-20.154,9.216
									c-3.102,5.653-2.228,13.093,2.46,20.949c4.788,8.023,12.943,15.47,22.967,20.968c10.021,5.498,20.654,8.376,30.023,8.103
									c9.145-0.268,15.89-3.528,18.99-9.181c6.503-11.854-4.903-30.658-25.427-41.917
									C1154.59,713.91,1144.332,711.211,1135.645,711.211z M1190.808,761.747h0.01H1190.808z"/>
								<path style="fill:#40484C;" d="M1238.455,776.139c-3.403,0-6.682-0.307-9.764-0.926c-9.693-1.949-16.324-6.762-18.67-13.554
									c-2.347-6.792-0.102-14.672,6.322-22.189c6.297-7.369,15.897-13.547,27.034-17.394c23.163-8.003,45.899-3.271,50.677,10.551
									c2.347,6.792,0.102,14.672-6.322,22.189c-6.297,7.369-15.898,13.547-27.035,17.394
									C1253.174,774.809,1245.544,776.139,1238.455,776.139z M1265.696,720.143c-6.729,0-14.165,1.232-21.666,3.823
									c-10.805,3.733-20.097,9.7-26.167,16.803c-5.943,6.955-8.057,14.142-5.951,20.236c2.104,6.094,8.204,10.443,17.174,12.247
									c9.158,1.841,20.153,0.8,30.959-2.933c10.805-3.733,20.098-9.7,26.167-16.803c5.944-6.955,8.058-14.142,5.952-20.236
									C1289.246,724.833,1278.818,720.143,1265.696,720.143z"/>
								<path style="fill:#FFFFFF;" d="M1209.23,755.705c-0.028,0-0.057-0.001-0.086-0.004l-16.456-1.395
									c-0.55-0.047-0.958-0.531-0.911-1.081c0.047-0.55,0.518-0.958,1.081-0.912l16.456,1.395c0.55,0.047,0.958,0.531,0.911,1.081
									C1210.182,755.31,1209.745,755.705,1209.23,755.705z"/>
							</g>
							<g>
								<g>
									<path style="fill:#FFFFFF;" d="M1264.293,736.542c-0.001,0.002,0,0.003-0.001,0.005l-0.213-0.041
										c-0.151,0.439-0.5,0.984-0.972,0.93c-0.623,0.624-0.974,1.689-1.416,2.373c-0.795,1.231-2.653-0.079-1.86-1.309
										c0.534-0.828-2.68,0.572-4.072,0.977c-4.438,1.291-8.918,2.382-13.441,3.335c-2.109,0.444-4.222,0.904-6.346,1.274
										c-1.702,0.297-7.349,1.567-7.763,1.272c-6.039,4.661-9.544,9.253-9.544,9.253s7.742,4.247,18.089,5.675
										c0.041-0.137,0.085-0.271,0.122-0.411c0.359-1.374,24.805-5.01,25.362-3.892c10.689-5.607,17.298-14.235,17.298-14.235
										S1273.181,738.26,1264.293,736.542z"/>
									<path style="fill:#363E44;" d="M1246.621,736.447c-7.38,1.56-13.666,5.251-18.399,8.902
										c0.167,4.538,1.94,9.029,5.372,12.525c0.884,0.9,1.838,1.688,2.842,2.373c4.662,0.672,9.867,0.781,15.143-0.334
										c3.816-0.806,7.321-2.197,10.488-3.843c4.34-5.688,5.023-13.274,2.012-19.564
										C1258.86,735.518,1252.792,735.143,1246.621,736.447z"/>
								</g>
								<g>
									<path style="fill:#FFFFFF;" d="M1146.662,728.267c0,0,0,0.003,0,0.005l0.217-0.005c0.076,0.458,0.328,1.054,0.803,1.08
										c0.51,0.72,0.677,1.829,0.999,2.577c0.577,1.347,2.629,0.365,2.053-0.979c-0.389-0.905,2.547,1.013,3.851,1.644
										c4.159,2.015,8.394,3.84,12.693,5.536c2.005,0.791,4.011,1.598,6.043,2.318c1.629,0.578,6.983,2.775,7.441,2.553
										c5.174,5.606,7.861,10.719,7.861,10.719s-8.344,2.893-18.783,2.569c-0.018-0.142-0.039-0.282-0.051-0.426
										c-0.124-1.414-23.617-9.089-24.353-8.08c-9.6-7.317-14.672-16.928-14.672-16.928S1137.612,728.473,1146.662,728.267z"/>
									<path style="fill:#363E44;" d="M1164.101,731.13c7.015,2.772,12.595,7.463,16.651,11.854
										c-0.924,4.446-3.424,8.578-7.393,11.45c-1.022,0.74-2.094,1.356-3.198,1.864c-4.708-0.117-9.858-0.881-14.874-2.863
										c-3.627-1.433-6.85-3.391-9.697-5.543c-3.327-6.334-2.731-13.927,1.29-19.625
										C1152.19,728.166,1158.235,728.812,1164.101,731.13z"/>
								</g>
							</g>
						</g>
					</g>
					<path style="fill:#E2A18D;" d="M1089.614,913.125c75.688-16.807,153.27-16.06,232.303-1.557l-5.396,153.227h-271.9
						L1089.614,913.125z"/>
				</g>
			</g>
			<g>
				<polygon style="fill:#2D353A;" points="1660.094,742.889 1806.715,908.25 1878.372,841.003 1724.034,685.564 				"/>
				<polygon style="fill:#40484C;" points="1763.398,800.192 1978.691,883.997 1863.098,695.338 1663.402,611.702 				"/>
				<g>
					<path style="fill:#D87355;" d="M1877.246,958.748c-0.256,0-0.511-0.097-0.706-0.292c-0.392-0.39-0.392-1.023-0.002-1.414
						l68.817-68.971l-37.503-58.793c-0.297-0.466-0.16-1.084,0.305-1.381c0.465-0.297,1.084-0.16,1.381,0.305l37.935,59.469
						c0.252,0.395,0.196,0.912-0.135,1.244l-69.384,69.539C1877.759,958.65,1877.502,958.748,1877.246,958.748z"/>
					<polygon style="fill:#D87355;" points="1816.636,986.746 1893.284,942.102 1848.868,1017.446 					"/>
				</g>
			</g>
		</g>
		<g>
			<g>
				<path style="fill:#F7F1EB;" d="M798.084,1736.922h240.835c-15.62,0-28.283-24.758-28.283-55.3s12.663-55.3,28.283-55.3H798.084
					c-15.62,0-28.283,24.759-28.283,55.3S782.464,1736.922,798.084,1736.922z"/>
				<path style="fill:#D87355;" d="M405.736,1739.148h491.232c-31.861,0-57.689-25.755-57.689-57.526s26.612-56.686,58.473-56.686
					l-492.016-0.841c-31.86,0-57.688,25.756-57.688,57.527S373.876,1739.148,405.736,1739.148z"/>
				<path style="fill:#84524D;" d="M1043.926,1737.922H896.968c-32.91,0-58.689-24.73-58.689-56.3c0-31.57,25.779-56.3,58.689-56.3
					h146.958c0.553,0,1,0.448,1,1s-0.447,1-1,1H896.968c-31.788,0-56.689,23.852-56.689,54.3c0,30.448,24.901,54.3,56.689,54.3
					h146.958c0.553,0,1,0.448,1,1S1044.479,1737.922,1043.926,1737.922z"/>
				<path style="fill:#E6D0BE;" d="M1020.345,1722.739H891.646c-0.553,0-1-0.448-1-1s0.447-1,1-1h128.698c0.553,0,1,0.448,1,1
					S1020.898,1722.739,1020.345,1722.739z"/>
				<path style="fill:#E6D0BE;" d="M1013.646,1700.473H884.948c-0.553,0-1-0.448-1-1s0.447-1,1-1h128.697c0.553,0,1,0.448,1,1
					S1014.198,1700.473,1013.646,1700.473z"/>
				<path style="fill:#E6D0BE;" d="M1011.413,1687.114H860.387c-0.553,0-1-0.448-1-1s0.447-1,1-1h151.026c0.553,0,1,0.448,1,1
					S1011.966,1687.114,1011.413,1687.114z"/>
				<path style="fill:#E6D0BE;" d="M1013.646,1658.168H873.784c-0.553,0-1-0.448-1-1s0.447-1,1-1h139.861c0.553,0,1,0.448,1,1
					S1014.198,1658.168,1013.646,1658.168z"/>
				
					<rect x="392.133" y="1650.65" transform="matrix(-1 -1.224647e-16 1.224647e-16 -1 917.3388 3365.3738)" style="fill:#B77250;" width="133.074" height="64.075"/>
				
					<rect x="548.433" y="1650.65" transform="matrix(-1 -1.224647e-16 1.224647e-16 -1 1334.5356 3365.3738)" style="fill:#B77250;" width="237.669" height="64.075"/>
			</g>
			<g>
				<path style="fill:#F7F1EB;" d="M798.084,1809.882h240.835c-15.62,0-28.283-15.85-28.283-35.403s12.663-35.403,28.283-35.403
					H798.084c-15.62,0-28.283,15.851-28.283,35.403S782.464,1809.882,798.084,1809.882z"/>
				<path style="fill:#EFBC73;" d="M405.736,1811.308h491.232c-31.861,0-46.525-16.489-46.525-36.828s14.664-36.829,46.525-36.829
					H405.736c-31.86,0-46.524,16.489-46.524,36.829S373.876,1811.308,405.736,1811.308z"/>
				<path style="fill:#84524D;" d="M1043.926,1810.883H896.968c-29.759,0-47.525-13.609-47.525-36.403
					c0-22.795,17.767-36.403,47.525-36.403h146.958c0.553,0,1,0.448,1,1s-0.447,1-1,1H896.968c-28.932,0-45.525,12.54-45.525,34.403
					c0,21.864,16.594,34.403,45.525,34.403h146.958c0.553,0,1,0.448,1,1S1044.479,1810.883,1043.926,1810.883z"/>
				<path style="fill:#E6D0BE;" d="M1020.345,1801.162H891.646c-0.553,0-1-0.448-1-1s0.447-1,1-1h128.698c0.553,0,1,0.448,1,1
					S1020.898,1801.162,1020.345,1801.162z"/>
				<path style="fill:#E6D0BE;" d="M1013.646,1786.908H884.948c-0.553,0-1-0.448-1-1s0.447-1,1-1h128.697c0.553,0,1,0.448,1,1
					S1014.198,1786.908,1013.646,1786.908z"/>
				<path style="fill:#E6D0BE;" d="M1011.413,1778.355H860.387c-0.553,0-1-0.448-1-1s0.447-1,1-1h151.026c0.553,0,1,0.448,1,1
					S1011.966,1778.355,1011.413,1778.355z"/>
				<path style="fill:#E6D0BE;" d="M1013.646,1759.824H873.784c-0.553,0-1-0.448-1-1s0.447-1,1-1h139.861c0.553,0,1,0.448,1,1
					S1014.198,1759.824,1013.646,1759.824z"/>
			</g>
			<g>
				<path style="fill:#F7F1EB;" d="M622.4,1880.802H396.822c14.631,0,26.491,23.19,26.491,51.796s-11.861,51.797-26.491,51.797
					H622.4c14.63,0,26.491-23.19,26.491-51.797S637.03,1880.802,622.4,1880.802z"/>
				<path style="fill:#8B865C;" d="M989.892,1878.716H529.781c29.842,0,54.035,24.124,54.035,53.882s-24.192,53.882-54.035,53.882
					h460.112c29.841,0,54.034-24.124,54.034-53.882S1019.734,1878.716,989.892,1878.716z"/>
				<path style="fill:#84524D;" d="M529.781,1985.395H392.133c-0.553,0-1-0.448-1-1s0.447-1,1-1h137.648
					c29.739,0,53.034-22.313,53.034-50.797c0-28.484-23.295-50.796-53.034-50.796H392.133c-0.553,0-1-0.448-1-1s0.447-1,1-1h137.648
					c30.86,0,55.034,23.191,55.034,52.796C584.815,1962.204,560.642,1985.395,529.781,1985.395z"/>
				<path style="fill:#E6D0BE;" d="M534.765,1896.023H414.22c-0.553,0-1-0.448-1-1s0.447-1,1-1h120.545c0.553,0,1,0.448,1,1
					S535.317,1896.023,534.765,1896.023z"/>
				<path style="fill:#E6D0BE;" d="M541.039,1916.878H420.494c-0.553,0-1-0.448-1-1s0.447-1,1-1h120.545c0.553,0,1,0.448,1,1
					S541.592,1916.878,541.039,1916.878z"/>
				<path style="fill:#E6D0BE;" d="M564.044,1929.391H422.586c-0.553,0-1-0.448-1-1s0.447-1,1-1h141.458c0.553,0,1,0.448,1,1
					S564.597,1929.391,564.044,1929.391z"/>
				<path style="fill:#E6D0BE;" d="M551.496,1956.503H420.494c-0.553,0-1-0.448-1-1s0.447-1,1-1h131.002c0.553,0,1,0.448,1,1
					S552.049,1956.503,551.496,1956.503z"/>
				<rect x="833.334" y="1901.593" style="fill:#FFFFFF;" width="124.643" height="60.015"/>
			</g>
			<g>
				<path style="fill:#F7F1EB;" d="M622.4,1812.463H396.822c14.631,0,26.491,14.846,26.491,33.16
					c0,18.314-11.861,33.161-26.491,33.161H622.4c14.63,0,26.491-14.846,26.491-33.161
					C648.891,1827.309,637.03,1812.463,622.4,1812.463z"/>
				<path style="fill:#9E9569;" d="M989.892,1811.128H529.781c29.842,0,43.578,15.444,43.578,34.495s-13.735,34.496-43.578,34.496
					h460.112c29.841,0,43.576-15.444,43.576-34.496S1019.734,1811.128,989.892,1811.128z"/>
				<path style="fill:#84524D;" d="M529.781,1879.784H392.133c-0.553,0-1-0.448-1-1s0.447-1,1-1h137.648
					c27.058,0,42.577-11.722,42.577-32.161c0-20.438-15.519-32.16-42.577-32.16H392.133c-0.553,0-1-0.448-1-1s0.447-1,1-1h137.648
					c27.913,0,44.577,12.77,44.577,34.16C574.358,1867.013,557.694,1879.784,529.781,1879.784z"/>
				<path style="fill:#E6D0BE;" d="M534.765,1822.567H414.22c-0.553,0-1-0.448-1-1s0.447-1,1-1h120.545c0.553,0,1,0.448,1,1
					S535.317,1822.567,534.765,1822.567z"/>
				<path style="fill:#E6D0BE;" d="M541.039,1835.919H420.494c-0.553,0-1-0.448-1-1s0.447-1,1-1h120.545c0.553,0,1,0.448,1,1
					S541.592,1835.919,541.039,1835.919z"/>
				<path style="fill:#E6D0BE;" d="M564.044,1843.93H422.586c-0.553,0-1-0.448-1-1s0.447-1,1-1h141.458c0.553,0,1,0.448,1,1
					S564.597,1843.93,564.044,1843.93z"/>
				<path style="fill:#E6D0BE;" d="M551.496,1861.287H420.494c-0.553,0-1-0.448-1-1s0.447-1,1-1h131.002c0.553,0,1,0.448,1,1
					S552.049,1861.287,551.496,1861.287z"/>
			</g>
			<g>
				<g>
					<path style="fill:#8B865C;" d="M564.182,1270.201c-17.391,0.001-30.775-5.655-33.42-15.554
						c-0.143-0.534,0.174-1.082,0.708-1.224c0.528-0.142,1.082,0.174,1.224,0.708c3.521,13.181,28.473,18.001,55.623,10.748
						c13.264-3.544,25.036-9.423,33.149-16.553c7.927-6.966,11.371-14.248,9.7-20.504c-0.143-0.534,0.174-1.082,0.708-1.224
						c0.529-0.142,1.081,0.174,1.224,0.708c1.879,7.029-1.783,15.028-10.312,22.523c-8.34,7.33-20.398,13.362-33.954,16.983
						C580.226,1269.11,571.816,1270.201,564.182,1270.201z"/>
					<path style="fill:#8B865C;" d="M545.406,1285.071c-6.628,0-12.01-1.948-15.248-6.034c-0.344-0.433-0.271-1.062,0.162-1.405
						c0.431-0.343,1.06-0.271,1.404,0.162c8.477,10.691,33.515,5.005,55.816-12.675c22.302-17.679,33.552-40.76,25.077-51.452
						c-0.344-0.433-0.271-1.062,0.162-1.405c0.433-0.344,1.061-0.27,1.404,0.162c9.16,11.556-2.234,35.897-25.401,54.261
						C573.809,1278.558,557.523,1285.071,545.406,1285.071z"/>
					<path style="fill:#8B865C;" d="M584.328,1268.009c-2.753,0-5.799-1.093-8.904-3.239c-4.595-3.174-8.822-8.312-11.903-14.466
						c-2.234-4.464-3.7-9.152-4.236-13.559c-0.067-0.548,0.323-1.047,0.871-1.114c0.551-0.068,1.047,0.324,1.113,0.872
						c0.51,4.182,1.907,8.645,4.041,12.906c2.933,5.859,6.928,10.73,11.251,13.716c4.146,2.864,8.055,3.624,11.014,2.144
						c2.958-1.481,4.692-5.068,4.884-10.102c0.2-5.25-1.305-11.368-4.238-17.227c-2.229-4.453-5.098-8.372-8.296-11.332
						c-0.405-0.375-0.43-1.008-0.054-1.413c0.373-0.406,1.007-0.43,1.413-0.054c3.372,3.122,6.39,7.239,8.726,11.905
						c3.081,6.155,4.661,12.618,4.448,18.198c-0.221,5.796-2.348,9.992-5.988,11.814
						C587.198,1267.694,585.805,1268.009,584.328,1268.009z"/>
					<path style="fill:#8B865C;" d="M534.044,1274.872c0.751,2.811-0.919,5.699-3.73,6.45c-2.811,0.751-5.699-0.919-6.45-3.73
						s0.919-5.699,3.73-6.45C530.405,1270.391,533.292,1272.061,534.044,1274.872z"/>
					<path style="fill:#8B865C;" d="M536.262,1254.036c0.751,2.811-0.919,5.699-3.73,6.45c-2.811,0.751-5.699-0.919-6.45-3.73
						c-0.751-2.811,0.919-5.699,3.73-6.45C532.623,1249.555,535.511,1251.225,536.262,1254.036z"/>
					<path style="fill:#8B865C;" d="M564.951,1234.196c0.751,2.811-0.919,5.699-3.73,6.45s-5.699-0.919-6.45-3.73
						c-0.751-2.811,0.919-5.699,3.73-6.45C561.312,1229.715,564.2,1231.385,564.951,1234.196z"/>
					<path style="fill:#8B865C;" d="M585.616,1224.789c0.751,2.811-0.919,5.699-3.73,6.45c-2.811,0.751-5.699-0.919-6.45-3.73
						c-0.751-2.811,0.919-5.699,3.73-6.45S584.865,1221.978,585.616,1224.789z"/>
					<path style="fill:#8B865C;" d="M617.319,1210.686c0.751,2.811-0.919,5.699-3.73,6.45s-5.699-0.919-6.45-3.73
						s0.919-5.699,3.73-6.45C613.68,1206.204,616.568,1207.874,617.319,1210.686z"/>
					<path style="fill:#8B865C;" d="M636.679,1224.283c0.751,2.811-0.919,5.699-3.73,6.45c-2.811,0.751-5.699-0.919-6.45-3.73
						s0.919-5.699,3.73-6.45C633.04,1219.802,635.927,1221.472,636.679,1224.283z"/>
					<path style="fill:#8B865C;" d="M643.336,1447.175c-0.485,0-0.911-0.353-0.987-0.847c-5.689-36.769-14.53-73.263-26.278-108.469
						c-8.082-24.222-17.682-48.244-28.531-71.397c-0.234-0.5-0.02-1.095,0.48-1.33c0.504-0.235,1.097-0.018,1.33,0.481
						c10.883,23.223,20.512,47.317,28.617,71.612c11.784,35.313,20.652,71.917,26.358,108.797c0.084,0.546-0.29,1.057-0.835,1.141
						C643.438,1447.171,643.387,1447.175,643.336,1447.175z"/>
				</g>
				<g>
					<path style="fill:#8B865C;" d="M653.527,1203.437c-3.37,0-6.818-0.145-10.323-0.444c-33.781-2.888-60.082-19.078-58.628-36.09
						c0.047-0.55,0.532-0.958,1.081-0.911c0.551,0.047,0.958,0.531,0.911,1.082c-1.359,15.913,24.123,31.133,56.806,33.927
						c32.692,2.793,60.381-7.88,61.741-23.793c0.046-0.55,0.54-0.96,1.081-0.911c0.551,0.047,0.958,0.531,0.911,1.082
						C705.804,1192.625,682.64,1203.437,653.527,1203.437z"/>
					<path style="fill:#8B865C;" d="M608.388,1208.954c-3.315,0-6.512-0.198-9.552-0.599c-13.167-1.736-21.892-7.081-24.567-15.05
						c-0.176-0.523,0.106-1.09,0.63-1.266c0.523-0.176,1.091,0.106,1.267,0.63c2.419,7.206,10.564,12.073,22.933,13.703
						c12.615,1.663,28.032-0.261,43.399-5.421c31.492-10.574,52.977-31.494,47.893-46.635c-0.176-0.524,0.107-1.09,0.63-1.266
						c0.524-0.176,1.091,0.106,1.267,0.63c5.435,16.186-16.615,38.243-49.152,49.168
						C631.168,1206.864,619.154,1208.954,608.388,1208.954z"/>
					<path style="fill:#8B865C;" d="M641.527,1203.188c-8.944,0.001-17.485-12.228-19.366-28.127
						c-0.681-5.752-0.434-11.445,0.716-16.465c0.122-0.539,0.663-0.874,1.197-0.752c0.539,0.123,0.875,0.66,0.752,1.198
						c-1.098,4.799-1.333,10.257-0.679,15.784c1.832,15.483,10.04,27.286,18.294,26.309c3.886-0.46,7.249-3.738,9.472-9.233
						c2.305-5.694,3.078-13.017,2.179-20.618c-0.684-5.777-2.282-11.221-4.623-15.743c-0.254-0.49-0.063-1.094,0.428-1.348
						c0.492-0.255,1.095-0.062,1.348,0.428c2.451,4.734,4.122,10.414,4.834,16.427c0.938,7.93,0.117,15.602-2.311,21.603
						c-2.509,6.202-6.448,9.919-11.092,10.469C642.293,1203.166,641.909,1203.188,641.527,1203.188z"/>
					<path style="fill:#8B865C;" d="M580.014,1190.332c-0.289,3.375-3.258,5.877-6.633,5.588c-3.375-0.288-5.877-3.258-5.589-6.633
						c0.289-3.375,3.258-5.877,6.633-5.589C577.8,1183.987,580.302,1186.957,580.014,1190.332z"/>
					<path style="fill:#8B865C;" d="M590.677,1168.395c-0.289,3.375-3.258,5.877-6.633,5.589c-3.375-0.289-5.877-3.258-5.589-6.633
						c0.289-3.375,3.258-5.877,6.633-5.589C588.464,1162.05,590.966,1165.02,590.677,1168.395z"/>
					<path style="fill:#8B865C;" d="M629.93,1158.008c-0.289,3.375-3.258,5.877-6.633,5.588c-3.375-0.288-5.877-3.258-5.588-6.633
						c0.288-3.375,3.258-5.877,6.633-5.589C627.716,1151.663,630.218,1154.633,629.93,1158.008z"/>
					<path style="fill:#8B865C;" d="M656.274,1155.874c-0.289,3.375-3.258,5.877-6.633,5.589c-3.375-0.289-5.877-3.258-5.589-6.633
						c0.289-3.375,3.258-5.877,6.633-5.589C654.061,1149.529,656.563,1152.499,656.274,1155.874z"/>
					<path style="fill:#8B865C;" d="M696.561,1152.96c-0.289,3.375-3.258,5.877-6.633,5.588c-3.375-0.288-5.877-3.258-5.589-6.633
						c0.289-3.375,3.258-5.877,6.633-5.589C694.348,1146.615,696.85,1149.585,696.561,1152.96z"/>
					<path style="fill:#8B865C;" d="M712.385,1175.499c-0.288,3.375-3.258,5.877-6.633,5.589c-3.375-0.288-5.877-3.258-5.589-6.633
						c0.289-3.375,3.258-5.877,6.633-5.589C710.172,1169.154,712.674,1172.124,712.385,1175.499z"/>
					<path style="fill:#8B865C;" d="M631.991,1422.09c-0.064,0-0.128-0.006-0.192-0.019c-0.542-0.106-0.896-0.631-0.79-1.173
						c8.301-42.514,13.043-85.976,14.093-129.181c0.724-29.724-0.295-59.826-3.026-89.469c-0.051-0.55,0.354-1.037,0.904-1.088
						c0.562-0.051,1.037,0.355,1.088,0.904c2.738,29.721,3.759,59.901,3.034,89.702c-1.054,43.317-5.808,86.892-14.13,129.515
						C632.879,1421.759,632.46,1422.09,631.991,1422.09z"/>
				</g>
				<g>
					<path style="fill:#8B865C;" d="M744.703,1300.219c-11.034,0-23.429-2.326-35.716-6.764
						c-15.338-5.541-28.701-13.722-37.628-23.035c-9.1-9.494-12.538-19.075-9.683-26.979c0.189-0.52,0.763-0.788,1.28-0.601
						c0.52,0.188,0.788,0.761,0.601,1.28c-2.583,7.151,0.7,16,9.245,24.916c8.718,9.096,21.81,17.1,36.864,22.538
						c15.053,5.438,30.239,7.648,42.757,6.225c12.27-1.396,20.451-6.104,23.034-13.255c0.188-0.52,0.761-0.788,1.28-0.601
						c0.52,0.188,0.788,0.761,0.601,1.28c-2.855,7.904-11.623,13.076-24.689,14.563
						C750.101,1300.075,747.443,1300.219,744.703,1300.219z"/>
					<path style="fill:#8B865C;" d="M760.497,1319.171c-4.039,0-8.562-0.754-13.461-2.274c-12.442-3.861-25.91-12.223-37.923-23.547
						c-12.014-11.324-21.156-24.275-25.744-36.468c-4.678-12.43-4.078-22.644,1.689-28.761c0.378-0.402,1.013-0.42,1.413-0.042
						c0.402,0.379,0.421,1.012,0.042,1.414c-5.214,5.531-5.666,15.008-1.271,26.685c4.482,11.913,13.447,24.598,25.243,35.717
						s24.987,19.32,37.144,23.092c11.917,3.697,21.351,2.687,26.563-2.845c0.378-0.402,1.014-0.42,1.413-0.042
						c0.402,0.379,0.421,1.012,0.042,1.414C772.107,1317.269,766.913,1319.171,760.497,1319.171z"/>
					<path style="fill:#8B865C;" d="M715.113,1295.328c-2.1,0-4.023-0.51-5.699-1.537c-3.987-2.443-6.008-7.468-5.691-14.15
						c0.307-6.467,2.773-13.777,6.945-20.586c3.162-5.162,7.058-9.621,11.266-12.896c0.439-0.34,1.064-0.26,1.403,0.175
						c0.339,0.436,0.261,1.064-0.175,1.403c-4.021,3.128-7.751,7.402-10.789,12.362c-3.999,6.527-6.361,13.5-6.653,19.636
						c-0.281,5.92,1.401,10.306,4.738,12.35c3.337,2.044,8.009,1.551,13.154-1.388c5.334-3.047,10.474-8.319,14.473-14.846
						c2.907-4.746,4.979-9.801,5.99-14.619c0.113-0.541,0.646-0.886,1.184-0.773c0.541,0.113,0.887,0.644,0.773,1.184
						c-1.058,5.04-3.216,10.314-6.242,15.253c-4.171,6.809-9.564,12.327-15.187,15.537
						C721.237,1294.358,718.009,1295.328,715.113,1295.328z"/>
					<path style="fill:#8B865C;" d="M771.674,1308.409c-1.151,3.186,0.499,6.701,3.685,7.852c3.186,1.151,6.701-0.499,7.852-3.685
						c1.151-3.186-0.499-6.701-3.685-7.852C776.341,1303.574,772.825,1305.224,771.674,1308.409z"/>
					<path style="fill:#8B865C;" d="M771.174,1284.023c-1.151,3.186,0.499,6.701,3.685,7.852c3.186,1.151,6.701-0.499,7.852-3.685
						c1.151-3.186-0.499-6.701-3.684-7.852C775.84,1279.188,772.325,1280.837,771.174,1284.023z"/>
					<path style="fill:#8B865C;" d="M739.875,1258.158c-1.151,3.186,0.499,6.701,3.685,7.852c3.186,1.151,6.701-0.499,7.852-3.685
						c1.151-3.186-0.499-6.701-3.685-7.852C744.541,1253.322,741.026,1254.972,739.875,1258.158z"/>
					<path style="fill:#8B865C;" d="M716.843,1245.191c-1.151,3.186,0.499,6.701,3.685,7.852c3.186,1.151,6.701-0.499,7.852-3.685
						c1.151-3.186-0.499-6.701-3.684-7.852C721.509,1240.355,717.994,1242.005,716.843,1245.191z"/>
					<path style="fill:#8B865C;" d="M681.476,1225.679c-1.151,3.186,0.499,6.701,3.685,7.852c3.186,1.151,6.701-0.499,7.852-3.685
						c1.151-3.186-0.499-6.701-3.685-7.852C686.142,1220.844,682.627,1222.494,681.476,1225.679z"/>
					<path style="fill:#8B865C;" d="M657.67,1239.524c-1.151,3.186,0.499,6.701,3.685,7.852c3.186,1.151,6.701-0.499,7.852-3.685
						s-0.499-6.701-3.685-7.852C662.336,1234.689,658.82,1236.338,657.67,1239.524z"/>
					<path style="fill:#8B865C;" d="M627.87,1497.216c-0.079,0-0.158-0.009-0.238-0.029c-0.536-0.131-0.865-0.672-0.734-1.208
						c10.287-42.197,24.211-83.76,41.387-123.536c11.818-27.367,25.38-54.348,40.308-80.193c0.276-0.479,0.889-0.642,1.366-0.366
						c0.479,0.276,0.643,0.888,0.366,1.366c-14.89,25.778-28.417,52.689-40.204,79.985c-17.131,39.673-31.02,81.129-41.279,123.216
						C628.729,1496.909,628.32,1497.216,627.87,1497.216z"/>
				</g>
				<path style="fill:#EFBC73;" d="M708.281,1635.121c32.402-34.124,54.315-94.266,54.315-137.186
					c0-45.964-25.139-79.045-61.373-93.653v-44.736h-89.05v44.736c-36.233,14.608-61.372,47.69-61.372,93.653
					c0,42.919,21.912,103.061,54.315,137.186H708.281z"/>
			</g>
		</g>
		<g>
			<g>
				<polygon style="fill:#776E42;" points="1895.747,1872.747 1904.817,2104.868 1560.448,2104.868 1550.151,1881.957 
					1549.931,1877.194 				"/>
				<g>
					<polygon style="fill:#84524D;" points="1748.601,2099.93 1641.029,2031.37 1602.313,2137.847 1708.1,2160.866 					"/>
					<path style="fill:#D3BBA3;" d="M1934.186,2160.073h-232.287l15.602-86.25c0,0,98.527-42.453,206.223,20.571
						C1923.724,2094.394,1950.269,2126.842,1934.186,2160.073z"/>
					<path style="fill:#363E44;" d="M1769.107,2138.517c-0.553,0-1-0.448-1-1v-52.889c0-0.552,0.447-1,1-1s1,0.448,1,1v52.889
						C1770.107,2138.069,1769.66,2138.517,1769.107,2138.517z"/>
					<path style="fill:#363E44;" d="M1784.118,2138.517c-0.553,0-1-0.448-1-1v-52.889c0-0.552,0.447-1,1-1s1,0.448,1,1v52.889
						C1785.118,2138.069,1784.671,2138.517,1784.118,2138.517z"/>
					<path style="fill:#8B865C;" d="M1695.729,2013.012l-65.253,147.06c0,0-181.464-38.265-307.679-117.224
						c-44.103-27.59-58.333-85.278-32.065-130.181c0.374-0.64,0.752-1.279,1.134-1.916c22.45-37.525,67.903-54.524,109.788-41.966
						C1468.734,1888.897,1593.849,1933.852,1695.729,2013.012z"/>
				</g>
				<g>
					<polygon style="fill:#84524D;" points="1690.507,2099.93 1798.08,2031.37 1836.796,2137.847 1731.009,2160.866 					"/>
					<path style="fill:#FFFFFF;" d="M1507.403,2160.073h229.807l-15.602-81.493c0,0-84.979-49.433-186.457-11.378
						C1535.151,2067.201,1521.627,2096.118,1507.403,2160.073z"/>
					<path style="fill:#363E44;" d="M1670.001,2138.517c-0.553,0-1-0.448-1-1v-52.889c0-0.552,0.447-1,1-1s1,0.448,1,1v52.889
						C1671.001,2138.069,1670.554,2138.517,1670.001,2138.517z"/>
					<path style="fill:#363E44;" d="M1654.99,2138.517c-0.553,0-1-0.448-1-1v-52.889c0-0.552,0.447-1,1-1s1,0.448,1,1v52.889
						C1655.99,2138.069,1655.543,2138.517,1654.99,2138.517z"/>
					<path style="fill:#8B865C;" d="M1743.38,2013.012l65.253,147.06c0,0,181.464-38.265,307.679-117.224
						c44.103-27.59,58.333-85.278,32.065-130.181c-0.375-0.64-0.752-1.279-1.134-1.916c-22.45-37.525-67.903-54.524-109.789-41.966
						C1970.375,1888.897,1845.26,1933.852,1743.38,2013.012z"/>
				</g>
			</g>
			<g>
				<g>
					<path style="fill:#EFBC73;" d="M1453.161,1903.732l-19.815-3.476c-35.488-6.226-57.843-41.615-48.381-76.38
						c9.02-33.141,67.084-106.734,99.271-128.809c78.626-53.923,145.271-65.147,230.205-66.45
						c35.173-0.54,132.293-0.082,212.346,53.841c25.053,16.875,101.021,91.988,112.542,131.576
						c10.92,37.521-11.95,76.544-49.888,85.914l-88.605-19.235L1453.161,1903.732z"/>
					<path style="fill:#84524D;" d="M1405.897,1830.443c-1.456,5.239-2.338,10.946-2.394,17.123
						c-0.256,27.878,17.536,52.764,43.55,62.789l102.842,15.373l55.343-77.163l-133.694-50.648
						C1444.368,1787.622,1413.681,1802.444,1405.897,1830.443z"/>
					<path style="fill:#84524D;" d="M2014.362,1860.888c-1.809,5.128-4.359,10.31-7.853,15.404
						c-15.769,22.991-44.612,33.186-71.675,26.49l-130.919-32.392l36.713-108.909l138.583,35.127
						C2007.382,1803.748,2024.033,1833.483,2014.362,1860.888z"/>
				</g>
				<g>
					<rect x="1549.895" y="1723.58" style="fill:#FFFFFF;" width="337.174" height="202.148"/>
					<rect x="1549.895" y="1931.237" style="fill:#FFFFFF;" width="337.174" height="20.695"/>
					<path style="fill:#40484C;" d="M1736.808,1835.542h-36.651c-0.553,0-1-0.448-1-1v-36.651c0-0.552,0.447-1,1-1h36.651
						c0.553,0,1,0.448,1,1v36.651C1737.808,1835.095,1737.36,1835.542,1736.808,1835.542z M1701.156,1833.542h34.651v-34.651
						h-34.651V1833.542z"/>
					<path style="fill:#40484C;" d="M1872.479,1740.819h-307.994c-0.553,0-1-0.448-1-1s0.447-1,1-1h307.994c0.553,0,1,0.448,1,1
						S1873.031,1740.819,1872.479,1740.819z"/>
				</g>
			</g>
			<g>
				<path style="fill:#363E44;" d="M1779.268,1525.078c-0.038-0.729-0.105-1.448-0.167-2.17
					c-2.123-46.857-7.033-70.664-14.732-71.406c-4.201-0.405-9.233,6.055-15.094,19.376c-4.581-17.44-12.804-28.467-18.554-27.8
					c-5.087,0.59-9.078,10.442-10.371,22.912c-0.223-0.012-0.447-0.02-0.671-0.029c-10.435-20.308-21.109-33.738-26.693-32.243
					c-8.019,2.146-3.611,34.503-3.355,36.318c-0.716-1.865-8.916-22.802-16.351-22.09c-5.772,0.553-10.203,14.07-10.901,33.323
					c-8.593-15.05-14.323-22.166-17.191-21.341c-4.755,1.367-1.636,24.567,9.357,69.604c0.013,0.673,0.018,1.343,0.054,2.02
					l2.098,40.403l124.671-6.472L1779.268,1525.078z"/>
				<path style="fill:#84524D;" d="M1668.327,1556.444c8.035,10.843,7.068,25.178-2.161,32.016
					c-9.229,6.839-23.224,3.592-31.259-7.252c-8.035-10.843-7.068-25.177,2.161-32.016
					C1646.297,1542.353,1660.292,1545.6,1668.327,1556.444z"/>
				<path style="fill:#84524D;" d="M1767.534,1551.395c-6.893,11.603-4.475,25.765,5.4,31.631
					c9.875,5.866,23.468,1.215,30.361-10.388c6.892-11.603,4.475-25.765-5.401-31.631
					C1788.02,1535.141,1774.427,1539.791,1767.534,1551.395z"/>
				<path style="fill:#84524D;" d="M1713.796,1682.414c-22.338-1.024-39.616-19.963-38.591-42.301l3.753-81.818l80.892,3.71
					l-3.753,81.818C1755.072,1666.161,1736.134,1683.438,1713.796,1682.414z"/>
				<path style="fill:#84524D;" d="M1778.864,1563.017c1.979,38.899-23.253,71.799-56.358,73.484
					c-33.106,1.685-61.548-28.483-63.528-67.383c-1.147-22.535,4.917-42.507,20.199-50.061c14.261-7.048,36.16,4.499,36.16,4.499
					s20.503-16.069,34.127-10.296C1766.718,1520.573,1777.627,1538.706,1778.864,1563.017z"/>
				<path style="fill:#363E44;" d="M1719.844,1637.569c-15.332,0-29.977-6.629-41.502-18.854c-0.379-0.402-0.36-1.035,0.042-1.414
					c0.4-0.379,1.035-0.36,1.413,0.042c11.795,12.51,26.945,18.958,42.658,18.16c12.431-0.633,24.09-5.744,33.717-14.782
					c0.405-0.378,1.036-0.358,1.414,0.045c0.378,0.403,0.357,1.036-0.045,1.413c-9.977,9.366-22.074,14.664-34.984,15.321
					C1721.65,1637.546,1720.745,1637.569,1719.844,1637.569z"/>
				<path style="fill:#363E44;" d="M1778.854,1582.906c-0.06,0-0.119-0.005-0.18-0.016c-0.544-0.099-0.904-0.619-0.805-1.163
					c1.105-6.083,1.504-12.361,1.184-18.659c-0.285-5.614-1.141-11.171-2.542-16.516c-0.14-0.534,0.18-1.081,0.714-1.221
					c0.536-0.141,1.081,0.179,1.222,0.714c1.435,5.478,2.312,11.171,2.604,16.922c0.327,6.452-0.081,12.884-1.215,19.118
					C1779.749,1582.568,1779.328,1582.906,1778.854,1582.906z"/>
				<path style="fill:#363E44;" d="M1660.811,1588.477c-0.435,0-0.836-0.287-0.961-0.726c-1.706-5.991-2.734-12.242-3.058-18.581
					c-0.298-5.861,0.013-11.724,0.924-17.424c0.086-0.545,0.59-0.917,1.146-0.83c0.545,0.087,0.916,0.6,0.829,1.145
					c-0.889,5.563-1.192,11.285-0.9,17.007c0.314,6.188,1.318,12.289,2.983,18.135c0.151,0.531-0.157,1.084-0.688,1.236
					C1660.994,1588.464,1660.901,1588.477,1660.811,1588.477z"/>
				<g>
					<path style="fill:#FFFFFF;" d="M1761.988,1557.151c-3.622-0.118-10.253,0.739-13.694,1.85c-3.307,1.067-6.178,3.018-9.257,6.04
						c-4.577,4.26-7.016,8.683-7.016,8.683s6.418,2.365,14.169,1.919c2.688-0.154,4.585-3.849,7.383-4.896
						c3.425-1.281,7.317-0.038,9.736-2.12c5.252-4.52,8.049-9.621,8.049-9.621S1767.415,1557.565,1761.988,1557.151z"/>
					<g>
						<defs>
							<path id="SVGID_1_" d="M1732.021,1573.724c0,0,11.643,4.288,22.505,0.224c10.863-4.064,16.832-14.941,16.832-14.941
								s-11.643-4.288-22.506-0.224C1737.99,1562.847,1732.021,1573.724,1732.021,1573.724z"/>
						</defs>
						<clipPath id="SVGID_00000121972209131382438890000008513739640730965146_">
							<use xlink:href="#SVGID_1_"  style="overflow:visible;"/>
						</clipPath>
						<path style="clip-path:url(#SVGID_00000121972209131382438890000008513739640730965146_);fill:#363E44;" d="
							M1744.031,1581.749c5.625,4.23,13.614,3.1,17.844-2.525c4.23-5.625,3.099-13.614-2.526-17.844
							c-5.625-4.23-13.614-3.099-17.844,2.526C1737.275,1569.53,1738.406,1577.519,1744.031,1581.749z"/>
					</g>
				</g>
				<g>
					<path style="fill:#FFFFFF;" d="M1680.924,1557.151c3.622-0.118,10.253,0.739,13.693,1.85c3.307,1.067,6.178,3.018,9.257,6.04
						c4.577,4.26,7.016,8.683,7.016,8.683s-6.418,2.365-14.169,1.919c-2.688-0.154-4.585-3.849-7.383-4.896
						c-3.425-1.281-7.317-0.038-9.736-2.12c-5.252-4.52-8.049-9.621-8.049-9.621S1675.496,1557.565,1680.924,1557.151z"/>
					<g>
						<defs>
							<path id="SVGID_00000060017556569583586450000012884149354303892124_" d="M1710.89,1573.724c0,0-11.643,4.288-22.505,0.224
								c-10.863-4.064-16.832-14.941-16.832-14.941s11.643-4.288,22.505-0.224C1704.921,1562.847,1710.89,1573.724,1710.89,1573.724
								z"/>
						</defs>
						<clipPath id="SVGID_00000083057397962105197220000010966526656856642956_">
							<use xlink:href="#SVGID_00000060017556569583586450000012884149354303892124_"  style="overflow:visible;"/>
						</clipPath>
						<path style="clip-path:url(#SVGID_00000083057397962105197220000010966526656856642956_);fill:#363E44;" d="
							M1698.881,1581.749c-5.625,4.23-13.614,3.1-17.845-2.525c-4.23-5.625-3.099-13.614,2.526-17.844
							c5.625-4.23,13.614-3.099,17.844,2.526C1705.636,1569.53,1704.506,1577.519,1698.881,1581.749z"/>
					</g>
				</g>
				<path style="fill:#363E44;" d="M1723.086,1593.078c-0.3,0-0.597-0.134-0.793-0.39c-0.337-0.438-0.256-1.066,0.182-1.402
					c1.668-1.284,2.525-2.529,2.549-3.701c0.019-0.943-0.491-1.652-1.197-2.634c-0.738-1.026-1.656-2.303-2.046-4.18
					c-0.351-1.69-0.201-3.482,0.442-5.326c0.183-0.521,0.753-0.796,1.274-0.614c0.521,0.182,0.796,0.752,0.614,1.274
					c-0.523,1.497-0.648,2.93-0.372,4.26c0.303,1.461,1.019,2.456,1.711,3.418c0.789,1.097,1.604,2.232,1.573,3.841
					c-0.036,1.809-1.156,3.574-3.328,5.246C1723.513,1593.011,1723.299,1593.078,1723.086,1593.078z"/>
				<path style="fill:#363E44;" d="M1713.755,1602.863c-2.396,0-5.977-0.476-9.472-2.735c-2.219-1.434-4.11-3.415-5.471-5.73
					c-0.279-0.476-0.12-1.089,0.355-1.369c0.477-0.28,1.089-0.12,1.369,0.355c1.203,2.047,2.874,3.798,4.832,5.064
					c3.745,2.422,7.615,2.523,9.589,2.369c0.548-0.042,1.032,0.368,1.075,0.919c0.043,0.551-0.368,1.032-0.919,1.075
					C1714.724,1602.841,1714.266,1602.863,1713.755,1602.863z"/>
			</g>
		</g>
	</g>
</g>
</svg>
